G04 #@! TF.GenerationSoftware,KiCad,Pcbnew,(5.1.0)-1*
G04 #@! TF.CreationDate,2019-04-21T21:02:20+09:00*
G04 #@! TF.ProjectId,meishikbd,6d656973-6869-46b6-9264-2e6b69636164,rev?*
G04 #@! TF.SameCoordinates,Original*
G04 #@! TF.FileFunction,Soldermask,Top*
G04 #@! TF.FilePolarity,Negative*
%FSLAX46Y46*%
G04 Gerber Fmt 4.6, Leading zero omitted, Abs format (unit mm)*
G04 Created by KiCad (PCBNEW (5.1.0)-1) date 2019-04-21 21:02:20*
%MOMM*%
%LPD*%
G04 APERTURE LIST*
%ADD10C,0.100000*%
G04 APERTURE END LIST*
D10*
G36*
X53456564Y-92689389D02*
G01*
X53647833Y-92768615D01*
X53647835Y-92768616D01*
X53819973Y-92883635D01*
X53966365Y-93030027D01*
X54081385Y-93202167D01*
X54160611Y-93393436D01*
X54201000Y-93596484D01*
X54201000Y-93803516D01*
X54160611Y-94006564D01*
X54081385Y-94197833D01*
X54081384Y-94197835D01*
X53966365Y-94369973D01*
X53819973Y-94516365D01*
X53647835Y-94631384D01*
X53647834Y-94631385D01*
X53647833Y-94631385D01*
X53456564Y-94710611D01*
X53253516Y-94751000D01*
X53046484Y-94751000D01*
X52843436Y-94710611D01*
X52652167Y-94631385D01*
X52652166Y-94631385D01*
X52652165Y-94631384D01*
X52480027Y-94516365D01*
X52333635Y-94369973D01*
X52218616Y-94197835D01*
X52218615Y-94197833D01*
X52139389Y-94006564D01*
X52099000Y-93803516D01*
X52099000Y-93596484D01*
X52139389Y-93393436D01*
X52218615Y-93202167D01*
X52333635Y-93030027D01*
X52480027Y-92883635D01*
X52652165Y-92768616D01*
X52652167Y-92768615D01*
X52843436Y-92689389D01*
X53046484Y-92649000D01*
X53253516Y-92649000D01*
X53456564Y-92689389D01*
X53456564Y-92689389D01*
G37*
G36*
X46956564Y-92689389D02*
G01*
X47147833Y-92768615D01*
X47147835Y-92768616D01*
X47319973Y-92883635D01*
X47466365Y-93030027D01*
X47581385Y-93202167D01*
X47660611Y-93393436D01*
X47701000Y-93596484D01*
X47701000Y-93803516D01*
X47660611Y-94006564D01*
X47581385Y-94197833D01*
X47581384Y-94197835D01*
X47466365Y-94369973D01*
X47319973Y-94516365D01*
X47147835Y-94631384D01*
X47147834Y-94631385D01*
X47147833Y-94631385D01*
X46956564Y-94710611D01*
X46753516Y-94751000D01*
X46546484Y-94751000D01*
X46343436Y-94710611D01*
X46152167Y-94631385D01*
X46152166Y-94631385D01*
X46152165Y-94631384D01*
X45980027Y-94516365D01*
X45833635Y-94369973D01*
X45718616Y-94197835D01*
X45718615Y-94197833D01*
X45639389Y-94006564D01*
X45599000Y-93803516D01*
X45599000Y-93596484D01*
X45639389Y-93393436D01*
X45718615Y-93202167D01*
X45833635Y-93030027D01*
X45980027Y-92883635D01*
X46152165Y-92768616D01*
X46152167Y-92768615D01*
X46343436Y-92689389D01*
X46546484Y-92649000D01*
X46753516Y-92649000D01*
X46956564Y-92689389D01*
X46956564Y-92689389D01*
G37*
G36*
X90798254Y-88127818D02*
G01*
X91171511Y-88282426D01*
X91171513Y-88282427D01*
X91507436Y-88506884D01*
X91793116Y-88792564D01*
X92017574Y-89128489D01*
X92172182Y-89501746D01*
X92251000Y-89897993D01*
X92251000Y-90302007D01*
X92172182Y-90698254D01*
X92021293Y-91062532D01*
X92017573Y-91071513D01*
X91793116Y-91407436D01*
X91507436Y-91693116D01*
X91171513Y-91917573D01*
X91171512Y-91917574D01*
X91171511Y-91917574D01*
X90798254Y-92072182D01*
X90402007Y-92151000D01*
X89997993Y-92151000D01*
X89601746Y-92072182D01*
X89228489Y-91917574D01*
X89228488Y-91917574D01*
X89228487Y-91917573D01*
X88892564Y-91693116D01*
X88606884Y-91407436D01*
X88382427Y-91071513D01*
X88378707Y-91062532D01*
X88227818Y-90698254D01*
X88149000Y-90302007D01*
X88149000Y-89897993D01*
X88227818Y-89501746D01*
X88382426Y-89128489D01*
X88606884Y-88792564D01*
X88892564Y-88506884D01*
X89228487Y-88282427D01*
X89228489Y-88282426D01*
X89601746Y-88127818D01*
X89997993Y-88049000D01*
X90402007Y-88049000D01*
X90798254Y-88127818D01*
X90798254Y-88127818D01*
G37*
G36*
X128898254Y-88127818D02*
G01*
X129271511Y-88282426D01*
X129271513Y-88282427D01*
X129607436Y-88506884D01*
X129893116Y-88792564D01*
X130117574Y-89128489D01*
X130272182Y-89501746D01*
X130351000Y-89897993D01*
X130351000Y-90302007D01*
X130272182Y-90698254D01*
X130121293Y-91062532D01*
X130117573Y-91071513D01*
X129893116Y-91407436D01*
X129607436Y-91693116D01*
X129271513Y-91917573D01*
X129271512Y-91917574D01*
X129271511Y-91917574D01*
X128898254Y-92072182D01*
X128502007Y-92151000D01*
X128097993Y-92151000D01*
X127701746Y-92072182D01*
X127328489Y-91917574D01*
X127328488Y-91917574D01*
X127328487Y-91917573D01*
X126992564Y-91693116D01*
X126706884Y-91407436D01*
X126482427Y-91071513D01*
X126478707Y-91062532D01*
X126327818Y-90698254D01*
X126249000Y-90302007D01*
X126249000Y-89897993D01*
X126327818Y-89501746D01*
X126482426Y-89128489D01*
X126706884Y-88792564D01*
X126992564Y-88506884D01*
X127328487Y-88282427D01*
X127328489Y-88282426D01*
X127701746Y-88127818D01*
X128097993Y-88049000D01*
X128502007Y-88049000D01*
X128898254Y-88127818D01*
X128898254Y-88127818D01*
G37*
G36*
X109848254Y-88127818D02*
G01*
X110221511Y-88282426D01*
X110221513Y-88282427D01*
X110557436Y-88506884D01*
X110843116Y-88792564D01*
X111067574Y-89128489D01*
X111222182Y-89501746D01*
X111301000Y-89897993D01*
X111301000Y-90302007D01*
X111222182Y-90698254D01*
X111071293Y-91062532D01*
X111067573Y-91071513D01*
X110843116Y-91407436D01*
X110557436Y-91693116D01*
X110221513Y-91917573D01*
X110221512Y-91917574D01*
X110221511Y-91917574D01*
X109848254Y-92072182D01*
X109452007Y-92151000D01*
X109047993Y-92151000D01*
X108651746Y-92072182D01*
X108278489Y-91917574D01*
X108278488Y-91917574D01*
X108278487Y-91917573D01*
X107942564Y-91693116D01*
X107656884Y-91407436D01*
X107432427Y-91071513D01*
X107428707Y-91062532D01*
X107277818Y-90698254D01*
X107199000Y-90302007D01*
X107199000Y-89897993D01*
X107277818Y-89501746D01*
X107432426Y-89128489D01*
X107656884Y-88792564D01*
X107942564Y-88506884D01*
X108278487Y-88282427D01*
X108278489Y-88282426D01*
X108651746Y-88127818D01*
X109047993Y-88049000D01*
X109452007Y-88049000D01*
X109848254Y-88127818D01*
X109848254Y-88127818D01*
G37*
G36*
X71748254Y-88127818D02*
G01*
X72121511Y-88282426D01*
X72121513Y-88282427D01*
X72457436Y-88506884D01*
X72743116Y-88792564D01*
X72967574Y-89128489D01*
X73122182Y-89501746D01*
X73201000Y-89897993D01*
X73201000Y-90302007D01*
X73122182Y-90698254D01*
X72971293Y-91062532D01*
X72967573Y-91071513D01*
X72743116Y-91407436D01*
X72457436Y-91693116D01*
X72121513Y-91917573D01*
X72121512Y-91917574D01*
X72121511Y-91917574D01*
X71748254Y-92072182D01*
X71352007Y-92151000D01*
X70947993Y-92151000D01*
X70551746Y-92072182D01*
X70178489Y-91917574D01*
X70178488Y-91917574D01*
X70178487Y-91917573D01*
X69842564Y-91693116D01*
X69556884Y-91407436D01*
X69332427Y-91071513D01*
X69328707Y-91062532D01*
X69177818Y-90698254D01*
X69099000Y-90302007D01*
X69099000Y-89897993D01*
X69177818Y-89501746D01*
X69332426Y-89128489D01*
X69556884Y-88792564D01*
X69842564Y-88506884D01*
X70178487Y-88282427D01*
X70178489Y-88282426D01*
X70551746Y-88127818D01*
X70947993Y-88049000D01*
X71352007Y-88049000D01*
X71748254Y-88127818D01*
X71748254Y-88127818D01*
G37*
G36*
X76845285Y-89118234D02*
G01*
X76941981Y-89137468D01*
X77124151Y-89212926D01*
X77288100Y-89322473D01*
X77427527Y-89461900D01*
X77537074Y-89625849D01*
X77612532Y-89808019D01*
X77651000Y-90001410D01*
X77651000Y-90198590D01*
X77612532Y-90391981D01*
X77537074Y-90574151D01*
X77427527Y-90738100D01*
X77288100Y-90877527D01*
X77124151Y-90987074D01*
X76941981Y-91062532D01*
X76845285Y-91081766D01*
X76748591Y-91101000D01*
X76551409Y-91101000D01*
X76454715Y-91081766D01*
X76358019Y-91062532D01*
X76175849Y-90987074D01*
X76011900Y-90877527D01*
X75872473Y-90738100D01*
X75762926Y-90574151D01*
X75687468Y-90391981D01*
X75649000Y-90198590D01*
X75649000Y-90001410D01*
X75687468Y-89808019D01*
X75762926Y-89625849D01*
X75872473Y-89461900D01*
X76011900Y-89322473D01*
X76175849Y-89212926D01*
X76358019Y-89137468D01*
X76454715Y-89118234D01*
X76551409Y-89099000D01*
X76748591Y-89099000D01*
X76845285Y-89118234D01*
X76845285Y-89118234D01*
G37*
G36*
X65845285Y-89118234D02*
G01*
X65941981Y-89137468D01*
X66124151Y-89212926D01*
X66288100Y-89322473D01*
X66427527Y-89461900D01*
X66537074Y-89625849D01*
X66612532Y-89808019D01*
X66651000Y-90001410D01*
X66651000Y-90198590D01*
X66612532Y-90391981D01*
X66537074Y-90574151D01*
X66427527Y-90738100D01*
X66288100Y-90877527D01*
X66124151Y-90987074D01*
X65941981Y-91062532D01*
X65845285Y-91081766D01*
X65748591Y-91101000D01*
X65551409Y-91101000D01*
X65454715Y-91081766D01*
X65358019Y-91062532D01*
X65175849Y-90987074D01*
X65011900Y-90877527D01*
X64872473Y-90738100D01*
X64762926Y-90574151D01*
X64687468Y-90391981D01*
X64649000Y-90198590D01*
X64649000Y-90001410D01*
X64687468Y-89808019D01*
X64762926Y-89625849D01*
X64872473Y-89461900D01*
X65011900Y-89322473D01*
X65175849Y-89212926D01*
X65358019Y-89137468D01*
X65454715Y-89118234D01*
X65551409Y-89099000D01*
X65748591Y-89099000D01*
X65845285Y-89118234D01*
X65845285Y-89118234D01*
G37*
G36*
X95895285Y-89118234D02*
G01*
X95991981Y-89137468D01*
X96174151Y-89212926D01*
X96338100Y-89322473D01*
X96477527Y-89461900D01*
X96587074Y-89625849D01*
X96662532Y-89808019D01*
X96701000Y-90001410D01*
X96701000Y-90198590D01*
X96662532Y-90391981D01*
X96587074Y-90574151D01*
X96477527Y-90738100D01*
X96338100Y-90877527D01*
X96174151Y-90987074D01*
X95991981Y-91062532D01*
X95798591Y-91101000D01*
X95601409Y-91101000D01*
X95504715Y-91081766D01*
X95408019Y-91062532D01*
X95225849Y-90987074D01*
X95061900Y-90877527D01*
X94922473Y-90738100D01*
X94812926Y-90574151D01*
X94737468Y-90391981D01*
X94699000Y-90198590D01*
X94699000Y-90001410D01*
X94737468Y-89808019D01*
X94812926Y-89625849D01*
X94922473Y-89461900D01*
X95061900Y-89322473D01*
X95225849Y-89212926D01*
X95408019Y-89137468D01*
X95504715Y-89118234D01*
X95601409Y-89099000D01*
X95798591Y-89099000D01*
X95895285Y-89118234D01*
X95895285Y-89118234D01*
G37*
G36*
X114945285Y-89118234D02*
G01*
X115041981Y-89137468D01*
X115224151Y-89212926D01*
X115388100Y-89322473D01*
X115527527Y-89461900D01*
X115637074Y-89625849D01*
X115712532Y-89808019D01*
X115751000Y-90001410D01*
X115751000Y-90198590D01*
X115712532Y-90391981D01*
X115637074Y-90574151D01*
X115527527Y-90738100D01*
X115388100Y-90877527D01*
X115224151Y-90987074D01*
X115041981Y-91062532D01*
X114848591Y-91101000D01*
X114651409Y-91101000D01*
X114554715Y-91081766D01*
X114458019Y-91062532D01*
X114275849Y-90987074D01*
X114111900Y-90877527D01*
X113972473Y-90738100D01*
X113862926Y-90574151D01*
X113787468Y-90391981D01*
X113749000Y-90198590D01*
X113749000Y-90001410D01*
X113787468Y-89808019D01*
X113862926Y-89625849D01*
X113972473Y-89461900D01*
X114111900Y-89322473D01*
X114275849Y-89212926D01*
X114458019Y-89137468D01*
X114554715Y-89118234D01*
X114651409Y-89099000D01*
X114848591Y-89099000D01*
X114945285Y-89118234D01*
X114945285Y-89118234D01*
G37*
G36*
X103945285Y-89118234D02*
G01*
X104041981Y-89137468D01*
X104224151Y-89212926D01*
X104388100Y-89322473D01*
X104527527Y-89461900D01*
X104637074Y-89625849D01*
X104712532Y-89808019D01*
X104751000Y-90001410D01*
X104751000Y-90198590D01*
X104712532Y-90391981D01*
X104637074Y-90574151D01*
X104527527Y-90738100D01*
X104388100Y-90877527D01*
X104224151Y-90987074D01*
X104041981Y-91062532D01*
X103848591Y-91101000D01*
X103651409Y-91101000D01*
X103554715Y-91081766D01*
X103458019Y-91062532D01*
X103275849Y-90987074D01*
X103111900Y-90877527D01*
X102972473Y-90738100D01*
X102862926Y-90574151D01*
X102787468Y-90391981D01*
X102749000Y-90198590D01*
X102749000Y-90001410D01*
X102787468Y-89808019D01*
X102862926Y-89625849D01*
X102972473Y-89461900D01*
X103111900Y-89322473D01*
X103275849Y-89212926D01*
X103458019Y-89137468D01*
X103554715Y-89118234D01*
X103651409Y-89099000D01*
X103848591Y-89099000D01*
X103945285Y-89118234D01*
X103945285Y-89118234D01*
G37*
G36*
X122995285Y-89118234D02*
G01*
X123091981Y-89137468D01*
X123274151Y-89212926D01*
X123438100Y-89322473D01*
X123577527Y-89461900D01*
X123687074Y-89625849D01*
X123762532Y-89808019D01*
X123801000Y-90001410D01*
X123801000Y-90198590D01*
X123762532Y-90391981D01*
X123687074Y-90574151D01*
X123577527Y-90738100D01*
X123438100Y-90877527D01*
X123274151Y-90987074D01*
X123091981Y-91062532D01*
X122898591Y-91101000D01*
X122701409Y-91101000D01*
X122604715Y-91081766D01*
X122508019Y-91062532D01*
X122325849Y-90987074D01*
X122161900Y-90877527D01*
X122022473Y-90738100D01*
X121912926Y-90574151D01*
X121837468Y-90391981D01*
X121799000Y-90198590D01*
X121799000Y-90001410D01*
X121837468Y-89808019D01*
X121912926Y-89625849D01*
X122022473Y-89461900D01*
X122161900Y-89322473D01*
X122325849Y-89212926D01*
X122508019Y-89137468D01*
X122604715Y-89118234D01*
X122701409Y-89099000D01*
X122898591Y-89099000D01*
X122995285Y-89118234D01*
X122995285Y-89118234D01*
G37*
G36*
X133995285Y-89118234D02*
G01*
X134091981Y-89137468D01*
X134274151Y-89212926D01*
X134438100Y-89322473D01*
X134577527Y-89461900D01*
X134687074Y-89625849D01*
X134762532Y-89808019D01*
X134801000Y-90001410D01*
X134801000Y-90198590D01*
X134762532Y-90391981D01*
X134687074Y-90574151D01*
X134577527Y-90738100D01*
X134438100Y-90877527D01*
X134274151Y-90987074D01*
X134091981Y-91062532D01*
X133898591Y-91101000D01*
X133701409Y-91101000D01*
X133604715Y-91081766D01*
X133508019Y-91062532D01*
X133325849Y-90987074D01*
X133161900Y-90877527D01*
X133022473Y-90738100D01*
X132912926Y-90574151D01*
X132837468Y-90391981D01*
X132799000Y-90198590D01*
X132799000Y-90001410D01*
X132837468Y-89808019D01*
X132912926Y-89625849D01*
X133022473Y-89461900D01*
X133161900Y-89322473D01*
X133325849Y-89212926D01*
X133508019Y-89137468D01*
X133604715Y-89118234D01*
X133701409Y-89099000D01*
X133898591Y-89099000D01*
X133995285Y-89118234D01*
X133995285Y-89118234D01*
G37*
G36*
X84895285Y-89118234D02*
G01*
X84991981Y-89137468D01*
X85174151Y-89212926D01*
X85338100Y-89322473D01*
X85477527Y-89461900D01*
X85587074Y-89625849D01*
X85662532Y-89808019D01*
X85701000Y-90001410D01*
X85701000Y-90198590D01*
X85662532Y-90391981D01*
X85587074Y-90574151D01*
X85477527Y-90738100D01*
X85338100Y-90877527D01*
X85174151Y-90987074D01*
X84991981Y-91062532D01*
X84798591Y-91101000D01*
X84601409Y-91101000D01*
X84504715Y-91081766D01*
X84408019Y-91062532D01*
X84225849Y-90987074D01*
X84061900Y-90877527D01*
X83922473Y-90738100D01*
X83812926Y-90574151D01*
X83737468Y-90391981D01*
X83699000Y-90198590D01*
X83699000Y-90001410D01*
X83737468Y-89808019D01*
X83812926Y-89625849D01*
X83922473Y-89461900D01*
X84061900Y-89322473D01*
X84225849Y-89212926D01*
X84408019Y-89137468D01*
X84504715Y-89118234D01*
X84601409Y-89099000D01*
X84798591Y-89099000D01*
X84895285Y-89118234D01*
X84895285Y-89118234D01*
G37*
G36*
X71698254Y-69127818D02*
G01*
X72071511Y-69282426D01*
X72071513Y-69282427D01*
X72332606Y-69456884D01*
X72407436Y-69506884D01*
X72693116Y-69792564D01*
X72917574Y-70128489D01*
X73072182Y-70501746D01*
X73151000Y-70897993D01*
X73151000Y-71302007D01*
X73072182Y-71698254D01*
X72938284Y-72021513D01*
X72917573Y-72071513D01*
X72693116Y-72407436D01*
X72407436Y-72693116D01*
X72071513Y-72917573D01*
X72071512Y-72917574D01*
X72071511Y-72917574D01*
X71698254Y-73072182D01*
X71302007Y-73151000D01*
X70897993Y-73151000D01*
X70501746Y-73072182D01*
X70128489Y-72917574D01*
X70128488Y-72917574D01*
X70128487Y-72917573D01*
X69792564Y-72693116D01*
X69506884Y-72407436D01*
X69282427Y-72071513D01*
X69261716Y-72021513D01*
X69127818Y-71698254D01*
X69049000Y-71302007D01*
X69049000Y-70897993D01*
X69127818Y-70501746D01*
X69282426Y-70128489D01*
X69506884Y-69792564D01*
X69792564Y-69506884D01*
X69867394Y-69456884D01*
X70128487Y-69282427D01*
X70128489Y-69282426D01*
X70501746Y-69127818D01*
X70897993Y-69049000D01*
X71302007Y-69049000D01*
X71698254Y-69127818D01*
X71698254Y-69127818D01*
G37*
G36*
X90798254Y-69077818D02*
G01*
X91171511Y-69232426D01*
X91171513Y-69232427D01*
X91246343Y-69282427D01*
X91507436Y-69456884D01*
X91793116Y-69742564D01*
X92017574Y-70078489D01*
X92172182Y-70451746D01*
X92251000Y-70847993D01*
X92251000Y-71252007D01*
X92172182Y-71648254D01*
X92031838Y-71987074D01*
X92017573Y-72021513D01*
X91793116Y-72357436D01*
X91507436Y-72643116D01*
X91171513Y-72867573D01*
X91171512Y-72867574D01*
X91171511Y-72867574D01*
X90798254Y-73022182D01*
X90402007Y-73101000D01*
X89997993Y-73101000D01*
X89601746Y-73022182D01*
X89228489Y-72867574D01*
X89228488Y-72867574D01*
X89228487Y-72867573D01*
X88892564Y-72643116D01*
X88606884Y-72357436D01*
X88382427Y-72021513D01*
X88368162Y-71987074D01*
X88227818Y-71648254D01*
X88149000Y-71252007D01*
X88149000Y-70847993D01*
X88227818Y-70451746D01*
X88382426Y-70078489D01*
X88606884Y-69742564D01*
X88892564Y-69456884D01*
X89153657Y-69282427D01*
X89228487Y-69232427D01*
X89228489Y-69232426D01*
X89601746Y-69077818D01*
X89997993Y-68999000D01*
X90402007Y-68999000D01*
X90798254Y-69077818D01*
X90798254Y-69077818D01*
G37*
G36*
X128898254Y-69077818D02*
G01*
X129271511Y-69232426D01*
X129271513Y-69232427D01*
X129346343Y-69282427D01*
X129607436Y-69456884D01*
X129893116Y-69742564D01*
X130117574Y-70078489D01*
X130272182Y-70451746D01*
X130351000Y-70847993D01*
X130351000Y-71252007D01*
X130272182Y-71648254D01*
X130131838Y-71987074D01*
X130117573Y-72021513D01*
X129893116Y-72357436D01*
X129607436Y-72643116D01*
X129271513Y-72867573D01*
X129271512Y-72867574D01*
X129271511Y-72867574D01*
X128898254Y-73022182D01*
X128502007Y-73101000D01*
X128097993Y-73101000D01*
X127701746Y-73022182D01*
X127328489Y-72867574D01*
X127328488Y-72867574D01*
X127328487Y-72867573D01*
X126992564Y-72643116D01*
X126706884Y-72357436D01*
X126482427Y-72021513D01*
X126468162Y-71987074D01*
X126327818Y-71648254D01*
X126249000Y-71252007D01*
X126249000Y-70847993D01*
X126327818Y-70451746D01*
X126482426Y-70078489D01*
X126706884Y-69742564D01*
X126992564Y-69456884D01*
X127253657Y-69282427D01*
X127328487Y-69232427D01*
X127328489Y-69232426D01*
X127701746Y-69077818D01*
X128097993Y-68999000D01*
X128502007Y-68999000D01*
X128898254Y-69077818D01*
X128898254Y-69077818D01*
G37*
G36*
X109848254Y-69077818D02*
G01*
X110221511Y-69232426D01*
X110221513Y-69232427D01*
X110296343Y-69282427D01*
X110557436Y-69456884D01*
X110843116Y-69742564D01*
X111067574Y-70078489D01*
X111222182Y-70451746D01*
X111301000Y-70847993D01*
X111301000Y-71252007D01*
X111222182Y-71648254D01*
X111081838Y-71987074D01*
X111067573Y-72021513D01*
X110843116Y-72357436D01*
X110557436Y-72643116D01*
X110221513Y-72867573D01*
X110221512Y-72867574D01*
X110221511Y-72867574D01*
X109848254Y-73022182D01*
X109452007Y-73101000D01*
X109047993Y-73101000D01*
X108651746Y-73022182D01*
X108278489Y-72867574D01*
X108278488Y-72867574D01*
X108278487Y-72867573D01*
X107942564Y-72643116D01*
X107656884Y-72357436D01*
X107432427Y-72021513D01*
X107418162Y-71987074D01*
X107277818Y-71648254D01*
X107199000Y-71252007D01*
X107199000Y-70847993D01*
X107277818Y-70451746D01*
X107432426Y-70078489D01*
X107656884Y-69742564D01*
X107942564Y-69456884D01*
X108203657Y-69282427D01*
X108278487Y-69232427D01*
X108278489Y-69232426D01*
X108651746Y-69077818D01*
X109047993Y-68999000D01*
X109452007Y-68999000D01*
X109848254Y-69077818D01*
X109848254Y-69077818D01*
G37*
G36*
X76795285Y-70118234D02*
G01*
X76891981Y-70137468D01*
X77074151Y-70212926D01*
X77238100Y-70322473D01*
X77377527Y-70461900D01*
X77487074Y-70625849D01*
X77562532Y-70808019D01*
X77601000Y-71001410D01*
X77601000Y-71198590D01*
X77562532Y-71391981D01*
X77487074Y-71574151D01*
X77377527Y-71738100D01*
X77238100Y-71877527D01*
X77074151Y-71987074D01*
X76891981Y-72062532D01*
X76698591Y-72101000D01*
X76501409Y-72101000D01*
X76308019Y-72062532D01*
X76125849Y-71987074D01*
X75961900Y-71877527D01*
X75822473Y-71738100D01*
X75712926Y-71574151D01*
X75637468Y-71391981D01*
X75599000Y-71198590D01*
X75599000Y-71001410D01*
X75637468Y-70808019D01*
X75712926Y-70625849D01*
X75822473Y-70461900D01*
X75961900Y-70322473D01*
X76125849Y-70212926D01*
X76308019Y-70137468D01*
X76404715Y-70118234D01*
X76501409Y-70099000D01*
X76698591Y-70099000D01*
X76795285Y-70118234D01*
X76795285Y-70118234D01*
G37*
G36*
X65795285Y-70118234D02*
G01*
X65891981Y-70137468D01*
X66074151Y-70212926D01*
X66238100Y-70322473D01*
X66377527Y-70461900D01*
X66487074Y-70625849D01*
X66562532Y-70808019D01*
X66601000Y-71001410D01*
X66601000Y-71198590D01*
X66562532Y-71391981D01*
X66487074Y-71574151D01*
X66377527Y-71738100D01*
X66238100Y-71877527D01*
X66074151Y-71987074D01*
X65891981Y-72062532D01*
X65698591Y-72101000D01*
X65501409Y-72101000D01*
X65308019Y-72062532D01*
X65125849Y-71987074D01*
X64961900Y-71877527D01*
X64822473Y-71738100D01*
X64712926Y-71574151D01*
X64637468Y-71391981D01*
X64599000Y-71198590D01*
X64599000Y-71001410D01*
X64637468Y-70808019D01*
X64712926Y-70625849D01*
X64822473Y-70461900D01*
X64961900Y-70322473D01*
X65125849Y-70212926D01*
X65308019Y-70137468D01*
X65404715Y-70118234D01*
X65501409Y-70099000D01*
X65698591Y-70099000D01*
X65795285Y-70118234D01*
X65795285Y-70118234D01*
G37*
G36*
X84991981Y-70087468D02*
G01*
X85174151Y-70162926D01*
X85338100Y-70272473D01*
X85477527Y-70411900D01*
X85587074Y-70575849D01*
X85662532Y-70758019D01*
X85701000Y-70951410D01*
X85701000Y-71148590D01*
X85662532Y-71341981D01*
X85587074Y-71524151D01*
X85477527Y-71688100D01*
X85338100Y-71827527D01*
X85174151Y-71937074D01*
X84991981Y-72012532D01*
X84895285Y-72031766D01*
X84798591Y-72051000D01*
X84601409Y-72051000D01*
X84504715Y-72031766D01*
X84408019Y-72012532D01*
X84225849Y-71937074D01*
X84061900Y-71827527D01*
X83922473Y-71688100D01*
X83812926Y-71524151D01*
X83737468Y-71341981D01*
X83699000Y-71148590D01*
X83699000Y-70951410D01*
X83737468Y-70758019D01*
X83812926Y-70575849D01*
X83922473Y-70411900D01*
X84061900Y-70272473D01*
X84225849Y-70162926D01*
X84408019Y-70087468D01*
X84601409Y-70049000D01*
X84798591Y-70049000D01*
X84991981Y-70087468D01*
X84991981Y-70087468D01*
G37*
G36*
X104041981Y-70087468D02*
G01*
X104224151Y-70162926D01*
X104388100Y-70272473D01*
X104527527Y-70411900D01*
X104637074Y-70575849D01*
X104712532Y-70758019D01*
X104751000Y-70951410D01*
X104751000Y-71148590D01*
X104712532Y-71341981D01*
X104637074Y-71524151D01*
X104527527Y-71688100D01*
X104388100Y-71827527D01*
X104224151Y-71937074D01*
X104041981Y-72012532D01*
X103945285Y-72031766D01*
X103848591Y-72051000D01*
X103651409Y-72051000D01*
X103554715Y-72031766D01*
X103458019Y-72012532D01*
X103275849Y-71937074D01*
X103111900Y-71827527D01*
X102972473Y-71688100D01*
X102862926Y-71524151D01*
X102787468Y-71341981D01*
X102749000Y-71148590D01*
X102749000Y-70951410D01*
X102787468Y-70758019D01*
X102862926Y-70575849D01*
X102972473Y-70411900D01*
X103111900Y-70272473D01*
X103275849Y-70162926D01*
X103458019Y-70087468D01*
X103651409Y-70049000D01*
X103848591Y-70049000D01*
X104041981Y-70087468D01*
X104041981Y-70087468D01*
G37*
G36*
X134091981Y-70087468D02*
G01*
X134274151Y-70162926D01*
X134438100Y-70272473D01*
X134577527Y-70411900D01*
X134687074Y-70575849D01*
X134762532Y-70758019D01*
X134801000Y-70951410D01*
X134801000Y-71148590D01*
X134762532Y-71341981D01*
X134687074Y-71524151D01*
X134577527Y-71688100D01*
X134438100Y-71827527D01*
X134274151Y-71937074D01*
X134091981Y-72012532D01*
X133995285Y-72031766D01*
X133898591Y-72051000D01*
X133701409Y-72051000D01*
X133604715Y-72031766D01*
X133508019Y-72012532D01*
X133325849Y-71937074D01*
X133161900Y-71827527D01*
X133022473Y-71688100D01*
X132912926Y-71524151D01*
X132837468Y-71341981D01*
X132799000Y-71148590D01*
X132799000Y-70951410D01*
X132837468Y-70758019D01*
X132912926Y-70575849D01*
X133022473Y-70411900D01*
X133161900Y-70272473D01*
X133325849Y-70162926D01*
X133508019Y-70087468D01*
X133701409Y-70049000D01*
X133898591Y-70049000D01*
X134091981Y-70087468D01*
X134091981Y-70087468D01*
G37*
G36*
X123091981Y-70087468D02*
G01*
X123274151Y-70162926D01*
X123438100Y-70272473D01*
X123577527Y-70411900D01*
X123687074Y-70575849D01*
X123762532Y-70758019D01*
X123801000Y-70951410D01*
X123801000Y-71148590D01*
X123762532Y-71341981D01*
X123687074Y-71524151D01*
X123577527Y-71688100D01*
X123438100Y-71827527D01*
X123274151Y-71937074D01*
X123091981Y-72012532D01*
X122995285Y-72031766D01*
X122898591Y-72051000D01*
X122701409Y-72051000D01*
X122604715Y-72031766D01*
X122508019Y-72012532D01*
X122325849Y-71937074D01*
X122161900Y-71827527D01*
X122022473Y-71688100D01*
X121912926Y-71524151D01*
X121837468Y-71341981D01*
X121799000Y-71148590D01*
X121799000Y-70951410D01*
X121837468Y-70758019D01*
X121912926Y-70575849D01*
X122022473Y-70411900D01*
X122161900Y-70272473D01*
X122325849Y-70162926D01*
X122508019Y-70087468D01*
X122701409Y-70049000D01*
X122898591Y-70049000D01*
X123091981Y-70087468D01*
X123091981Y-70087468D01*
G37*
G36*
X115041981Y-70087468D02*
G01*
X115224151Y-70162926D01*
X115388100Y-70272473D01*
X115527527Y-70411900D01*
X115637074Y-70575849D01*
X115712532Y-70758019D01*
X115751000Y-70951410D01*
X115751000Y-71148590D01*
X115712532Y-71341981D01*
X115637074Y-71524151D01*
X115527527Y-71688100D01*
X115388100Y-71827527D01*
X115224151Y-71937074D01*
X115041981Y-72012532D01*
X114945285Y-72031766D01*
X114848591Y-72051000D01*
X114651409Y-72051000D01*
X114554715Y-72031766D01*
X114458019Y-72012532D01*
X114275849Y-71937074D01*
X114111900Y-71827527D01*
X113972473Y-71688100D01*
X113862926Y-71524151D01*
X113787468Y-71341981D01*
X113749000Y-71148590D01*
X113749000Y-70951410D01*
X113787468Y-70758019D01*
X113862926Y-70575849D01*
X113972473Y-70411900D01*
X114111900Y-70272473D01*
X114275849Y-70162926D01*
X114458019Y-70087468D01*
X114651409Y-70049000D01*
X114848591Y-70049000D01*
X115041981Y-70087468D01*
X115041981Y-70087468D01*
G37*
G36*
X95991981Y-70087468D02*
G01*
X96174151Y-70162926D01*
X96338100Y-70272473D01*
X96477527Y-70411900D01*
X96587074Y-70575849D01*
X96662532Y-70758019D01*
X96701000Y-70951410D01*
X96701000Y-71148590D01*
X96662532Y-71341981D01*
X96587074Y-71524151D01*
X96477527Y-71688100D01*
X96338100Y-71827527D01*
X96174151Y-71937074D01*
X95991981Y-72012532D01*
X95895285Y-72031766D01*
X95798591Y-72051000D01*
X95601409Y-72051000D01*
X95504715Y-72031766D01*
X95408019Y-72012532D01*
X95225849Y-71937074D01*
X95061900Y-71827527D01*
X94922473Y-71688100D01*
X94812926Y-71524151D01*
X94737468Y-71341981D01*
X94699000Y-71148590D01*
X94699000Y-70951410D01*
X94737468Y-70758019D01*
X94812926Y-70575849D01*
X94922473Y-70411900D01*
X95061900Y-70272473D01*
X95225849Y-70162926D01*
X95408019Y-70087468D01*
X95601409Y-70049000D01*
X95798591Y-70049000D01*
X95991981Y-70087468D01*
X95991981Y-70087468D01*
G37*
M02*
