M48
; DRILL file {KiCad (5.1.0)-1} date 2019/04/21 21:02:51
; FORMAT={-:-/ absolute / inch / decimal}
; #@! TF.CreationDate,2019-04-21T21:02:51+09:00
; #@! TF.GenerationSoftware,Kicad,Pcbnew,(5.1.0)-1
; #@! TF.FileFunction,Plated,1,2,PTH
FMAT,2
INCH
T1C0.0315
T2C0.0320
T3C0.0512
%
G90
G05
T2
X1.669Y-2.2331
X1.669Y-2.3331
X1.669Y-2.4331
X1.669Y-2.5331
X1.669Y-2.6331
X1.669Y-2.7331
X1.669Y-2.8331
X1.669Y-2.9331
X1.669Y-3.0331
X1.669Y-3.1331
X1.669Y-3.2331
X1.669Y-3.3331
X2.2682Y-2.2331
X2.2682Y-2.3331
X2.2682Y-2.4331
X2.2682Y-2.5331
X2.2682Y-2.6331
X2.2682Y-2.7331
X2.2682Y-2.8331
X2.2682Y-2.9331
X2.2682Y-3.0331
X2.2682Y-3.1331
X2.2682Y-3.2331
X2.2682Y-3.3331
T3
X1.8366Y-3.689
X2.0925Y-3.689
T1
G00X2.8933Y-3.3472
M15
G01X2.9091Y-3.3472
M16
G05
G00X4.1433Y-2.6972
M15
G01X4.1591Y-2.6972
M16
G05
G00X3.3933Y-3.4472
M15
G01X3.4091Y-3.4472
M16
G05
G00X3.6433Y-3.3472
M15
G01X3.6591Y-3.3472
M16
G05
G00X3.6433Y-2.5972
M15
G01X3.6591Y-2.5972
M16
G05
G00X4.1433Y-3.4472
M15
G01X4.1591Y-3.4472
M16
G05
G00X4.3933Y-3.3472
M15
G01X4.4091Y-3.3472
M16
G05
G00X2.6433Y-3.4472
M15
G01X2.6591Y-3.4472
M16
G05
G00X2.6413Y-2.6992
M15
G01X2.6571Y-2.6992
M16
G05
G00X2.8913Y-2.5992
M15
G01X2.9071Y-2.5992
M16
G05
G00X4.8933Y-3.4472
M15
G01X4.9091Y-3.4472
M16
G05
G00X5.1433Y-3.3472
M15
G01X5.1591Y-3.3472
M16
G05
G00X4.3933Y-2.5972
M15
G01X4.4091Y-2.5972
M16
G05
G00X4.8933Y-2.6972
M15
G01X4.9091Y-2.6972
M16
G05
G00X5.1433Y-2.5972
M15
G01X5.1591Y-2.5972
M16
G05
G00X3.3933Y-2.6972
M15
G01X3.4091Y-2.6972
M16
G05
T0
M30
