M48
; DRILL file {KiCad (5.1.0)-1} date 2019/04/21 21:02:51
; FORMAT={-:-/ absolute / inch / decimal}
; #@! TF.CreationDate,2019-04-21T21:02:51+09:00
; #@! TF.GenerationSoftware,Kicad,Pcbnew,(5.1.0)-1
; #@! TF.FileFunction,NonPlated,1,2,NPTH
FMAT,2
INCH
T1C0.0748
T2C0.1575
%
G90
G05
T1
X4.8346Y-3.5472
X5.2677Y-3.5472
X4.0846Y-2.7972
X4.5177Y-2.7972
X3.3346Y-3.5472
X5.2677Y-2.7972
X4.0846Y-3.5472
X4.5177Y-3.5472
X2.5846Y-3.5472
X3.0177Y-3.5472
X2.5827Y-2.7992
X3.0157Y-2.7992
X3.7677Y-3.5472
X4.8346Y-2.7972
X3.3346Y-2.7972
X3.7677Y-2.7972
T2
X4.3012Y-3.5472
X2.8012Y-3.5472
X2.7992Y-2.7992
X5.0512Y-3.5472
X4.3012Y-2.7972
X3.5512Y-3.5472
X5.0512Y-2.7972
X3.5512Y-2.7972
T0
M30
