G04 #@! TF.GenerationSoftware,KiCad,Pcbnew,(5.1.0)-1*
G04 #@! TF.CreationDate,2019-04-21T21:02:20+09:00*
G04 #@! TF.ProjectId,meishikbd,6d656973-6869-46b6-9264-2e6b69636164,rev?*
G04 #@! TF.SameCoordinates,Original*
G04 #@! TF.FileFunction,Copper,L2,Bot*
G04 #@! TF.FilePolarity,Positive*
%FSLAX46Y46*%
G04 Gerber Fmt 4.6, Leading zero omitted, Abs format (unit mm)*
G04 Created by KiCad (PCBNEW (5.1.0)-1) date 2019-04-21 21:02:20*
%MOMM*%
%LPD*%
G04 APERTURE LIST*
%ADD10O,2.500000X2.000000*%
%ADD11C,1.524000*%
%ADD12C,2.000000*%
%ADD13C,0.254000*%
G04 APERTURE END LIST*
D10*
X67340000Y-87560000D03*
X73690000Y-85020000D03*
X86390000Y-68510000D03*
X92740000Y-65970000D03*
X92740000Y-85020000D03*
X86390000Y-87560000D03*
X105440000Y-68510000D03*
X111790000Y-65970000D03*
X105440000Y-87560000D03*
X111790000Y-85020000D03*
X124490000Y-68510000D03*
X130840000Y-65970000D03*
X130840000Y-85020000D03*
X124490000Y-87560000D03*
D11*
X57611400Y-56722000D03*
X57611400Y-59262000D03*
X57611400Y-61802000D03*
X57611400Y-64342000D03*
X57611400Y-66882000D03*
X57611400Y-69422000D03*
X57611400Y-71962000D03*
X57611400Y-74502000D03*
X57611400Y-77042000D03*
X57611400Y-79582000D03*
X57611400Y-82122000D03*
X57611400Y-84662000D03*
X42391400Y-84662000D03*
X42391400Y-82122000D03*
X42391400Y-79582000D03*
X42391400Y-77042000D03*
X42391400Y-74502000D03*
X42391400Y-71962000D03*
X42391400Y-69422000D03*
X42391400Y-66882000D03*
X42391400Y-64342000D03*
X42391400Y-61802000D03*
X42391400Y-59262000D03*
X42391400Y-56722000D03*
D10*
X73640000Y-66020000D03*
X67290000Y-68560000D03*
D12*
X53150000Y-93700000D03*
X46650000Y-93700000D03*
D13*
G36*
X138259659Y-50688625D02*
G01*
X138509429Y-50764035D01*
X138739792Y-50886522D01*
X138941980Y-51051422D01*
X139108286Y-51252450D01*
X139232378Y-51481954D01*
X139309531Y-51731195D01*
X139340000Y-52021088D01*
X139340001Y-107967711D01*
X139311375Y-108259660D01*
X139235965Y-108509429D01*
X139113477Y-108739794D01*
X138948579Y-108941979D01*
X138747546Y-109108288D01*
X138518046Y-109232378D01*
X138268805Y-109309531D01*
X137978911Y-109340000D01*
X42032279Y-109340000D01*
X41740340Y-109311375D01*
X41490571Y-109235965D01*
X41260206Y-109113477D01*
X41058021Y-108948579D01*
X40891712Y-108747546D01*
X40767622Y-108518046D01*
X40690469Y-108268805D01*
X40660000Y-107978911D01*
X40660000Y-93538967D01*
X45015000Y-93538967D01*
X45015000Y-93861033D01*
X45077832Y-94176912D01*
X45201082Y-94474463D01*
X45380013Y-94742252D01*
X45607748Y-94969987D01*
X45875537Y-95148918D01*
X46173088Y-95272168D01*
X46488967Y-95335000D01*
X46811033Y-95335000D01*
X47126912Y-95272168D01*
X47424463Y-95148918D01*
X47692252Y-94969987D01*
X47826826Y-94835413D01*
X52194192Y-94835413D01*
X52289956Y-95099814D01*
X52579571Y-95240704D01*
X52891108Y-95322384D01*
X53212595Y-95341718D01*
X53531675Y-95297961D01*
X53836088Y-95192795D01*
X54010044Y-95099814D01*
X54105808Y-94835413D01*
X53150000Y-93879605D01*
X52194192Y-94835413D01*
X47826826Y-94835413D01*
X47919987Y-94742252D01*
X48098918Y-94474463D01*
X48222168Y-94176912D01*
X48285000Y-93861033D01*
X48285000Y-93762595D01*
X51508282Y-93762595D01*
X51552039Y-94081675D01*
X51657205Y-94386088D01*
X51750186Y-94560044D01*
X52014587Y-94655808D01*
X52970395Y-93700000D01*
X53329605Y-93700000D01*
X54285413Y-94655808D01*
X54549814Y-94560044D01*
X54690704Y-94270429D01*
X54772384Y-93958892D01*
X54791718Y-93637405D01*
X54747961Y-93318325D01*
X54642795Y-93013912D01*
X54549814Y-92839956D01*
X54285413Y-92744192D01*
X53329605Y-93700000D01*
X52970395Y-93700000D01*
X52014587Y-92744192D01*
X51750186Y-92839956D01*
X51609296Y-93129571D01*
X51527616Y-93441108D01*
X51508282Y-93762595D01*
X48285000Y-93762595D01*
X48285000Y-93538967D01*
X48222168Y-93223088D01*
X48098918Y-92925537D01*
X47919987Y-92657748D01*
X47826826Y-92564587D01*
X52194192Y-92564587D01*
X53150000Y-93520395D01*
X54105808Y-92564587D01*
X54010044Y-92300186D01*
X53720429Y-92159296D01*
X53408892Y-92077616D01*
X53087405Y-92058282D01*
X52768325Y-92102039D01*
X52463912Y-92207205D01*
X52289956Y-92300186D01*
X52194192Y-92564587D01*
X47826826Y-92564587D01*
X47692252Y-92430013D01*
X47424463Y-92251082D01*
X47126912Y-92127832D01*
X46811033Y-92065000D01*
X46488967Y-92065000D01*
X46173088Y-92127832D01*
X45875537Y-92251082D01*
X45607748Y-92430013D01*
X45380013Y-92657748D01*
X45201082Y-92925537D01*
X45077832Y-93223088D01*
X45015000Y-93538967D01*
X40660000Y-93538967D01*
X40660000Y-89943891D01*
X64065000Y-89943891D01*
X64065000Y-90256109D01*
X64125911Y-90562327D01*
X64245391Y-90850779D01*
X64418850Y-91110379D01*
X64639621Y-91331150D01*
X64899221Y-91504609D01*
X65187673Y-91624089D01*
X65493891Y-91685000D01*
X65806109Y-91685000D01*
X66112327Y-91624089D01*
X66400779Y-91504609D01*
X66660379Y-91331150D01*
X66881150Y-91110379D01*
X67054609Y-90850779D01*
X67174089Y-90562327D01*
X67235000Y-90256109D01*
X67235000Y-89943891D01*
X67214430Y-89840475D01*
X68515000Y-89840475D01*
X68515000Y-90359525D01*
X68616261Y-90868601D01*
X68814893Y-91348141D01*
X69103262Y-91779715D01*
X69470285Y-92146738D01*
X69901859Y-92435107D01*
X70381399Y-92633739D01*
X70890475Y-92735000D01*
X71409525Y-92735000D01*
X71918601Y-92633739D01*
X72398141Y-92435107D01*
X72829715Y-92146738D01*
X73196738Y-91779715D01*
X73485107Y-91348141D01*
X73683739Y-90868601D01*
X73785000Y-90359525D01*
X73785000Y-89943891D01*
X75065000Y-89943891D01*
X75065000Y-90256109D01*
X75125911Y-90562327D01*
X75245391Y-90850779D01*
X75418850Y-91110379D01*
X75639621Y-91331150D01*
X75899221Y-91504609D01*
X76187673Y-91624089D01*
X76493891Y-91685000D01*
X76806109Y-91685000D01*
X77112327Y-91624089D01*
X77400779Y-91504609D01*
X77660379Y-91331150D01*
X77881150Y-91110379D01*
X78054609Y-90850779D01*
X78174089Y-90562327D01*
X78235000Y-90256109D01*
X78235000Y-89943891D01*
X83115000Y-89943891D01*
X83115000Y-90256109D01*
X83175911Y-90562327D01*
X83295391Y-90850779D01*
X83468850Y-91110379D01*
X83689621Y-91331150D01*
X83949221Y-91504609D01*
X84237673Y-91624089D01*
X84543891Y-91685000D01*
X84856109Y-91685000D01*
X85162327Y-91624089D01*
X85450779Y-91504609D01*
X85710379Y-91331150D01*
X85931150Y-91110379D01*
X86104609Y-90850779D01*
X86224089Y-90562327D01*
X86285000Y-90256109D01*
X86285000Y-89943891D01*
X86264430Y-89840475D01*
X87565000Y-89840475D01*
X87565000Y-90359525D01*
X87666261Y-90868601D01*
X87864893Y-91348141D01*
X88153262Y-91779715D01*
X88520285Y-92146738D01*
X88951859Y-92435107D01*
X89431399Y-92633739D01*
X89940475Y-92735000D01*
X90459525Y-92735000D01*
X90968601Y-92633739D01*
X91448141Y-92435107D01*
X91879715Y-92146738D01*
X92246738Y-91779715D01*
X92535107Y-91348141D01*
X92733739Y-90868601D01*
X92835000Y-90359525D01*
X92835000Y-89943891D01*
X94115000Y-89943891D01*
X94115000Y-90256109D01*
X94175911Y-90562327D01*
X94295391Y-90850779D01*
X94468850Y-91110379D01*
X94689621Y-91331150D01*
X94949221Y-91504609D01*
X95237673Y-91624089D01*
X95543891Y-91685000D01*
X95856109Y-91685000D01*
X96162327Y-91624089D01*
X96450779Y-91504609D01*
X96710379Y-91331150D01*
X96931150Y-91110379D01*
X97104609Y-90850779D01*
X97224089Y-90562327D01*
X97285000Y-90256109D01*
X97285000Y-89943891D01*
X102165000Y-89943891D01*
X102165000Y-90256109D01*
X102225911Y-90562327D01*
X102345391Y-90850779D01*
X102518850Y-91110379D01*
X102739621Y-91331150D01*
X102999221Y-91504609D01*
X103287673Y-91624089D01*
X103593891Y-91685000D01*
X103906109Y-91685000D01*
X104212327Y-91624089D01*
X104500779Y-91504609D01*
X104760379Y-91331150D01*
X104981150Y-91110379D01*
X105154609Y-90850779D01*
X105274089Y-90562327D01*
X105335000Y-90256109D01*
X105335000Y-89943891D01*
X105314430Y-89840475D01*
X106615000Y-89840475D01*
X106615000Y-90359525D01*
X106716261Y-90868601D01*
X106914893Y-91348141D01*
X107203262Y-91779715D01*
X107570285Y-92146738D01*
X108001859Y-92435107D01*
X108481399Y-92633739D01*
X108990475Y-92735000D01*
X109509525Y-92735000D01*
X110018601Y-92633739D01*
X110498141Y-92435107D01*
X110929715Y-92146738D01*
X111296738Y-91779715D01*
X111585107Y-91348141D01*
X111783739Y-90868601D01*
X111885000Y-90359525D01*
X111885000Y-89943891D01*
X113165000Y-89943891D01*
X113165000Y-90256109D01*
X113225911Y-90562327D01*
X113345391Y-90850779D01*
X113518850Y-91110379D01*
X113739621Y-91331150D01*
X113999221Y-91504609D01*
X114287673Y-91624089D01*
X114593891Y-91685000D01*
X114906109Y-91685000D01*
X115212327Y-91624089D01*
X115500779Y-91504609D01*
X115760379Y-91331150D01*
X115981150Y-91110379D01*
X116154609Y-90850779D01*
X116274089Y-90562327D01*
X116335000Y-90256109D01*
X116335000Y-89943891D01*
X121215000Y-89943891D01*
X121215000Y-90256109D01*
X121275911Y-90562327D01*
X121395391Y-90850779D01*
X121568850Y-91110379D01*
X121789621Y-91331150D01*
X122049221Y-91504609D01*
X122337673Y-91624089D01*
X122643891Y-91685000D01*
X122956109Y-91685000D01*
X123262327Y-91624089D01*
X123550779Y-91504609D01*
X123810379Y-91331150D01*
X124031150Y-91110379D01*
X124204609Y-90850779D01*
X124324089Y-90562327D01*
X124385000Y-90256109D01*
X124385000Y-89943891D01*
X124364430Y-89840475D01*
X125665000Y-89840475D01*
X125665000Y-90359525D01*
X125766261Y-90868601D01*
X125964893Y-91348141D01*
X126253262Y-91779715D01*
X126620285Y-92146738D01*
X127051859Y-92435107D01*
X127531399Y-92633739D01*
X128040475Y-92735000D01*
X128559525Y-92735000D01*
X129068601Y-92633739D01*
X129548141Y-92435107D01*
X129979715Y-92146738D01*
X130346738Y-91779715D01*
X130635107Y-91348141D01*
X130833739Y-90868601D01*
X130935000Y-90359525D01*
X130935000Y-89943891D01*
X132215000Y-89943891D01*
X132215000Y-90256109D01*
X132275911Y-90562327D01*
X132395391Y-90850779D01*
X132568850Y-91110379D01*
X132789621Y-91331150D01*
X133049221Y-91504609D01*
X133337673Y-91624089D01*
X133643891Y-91685000D01*
X133956109Y-91685000D01*
X134262327Y-91624089D01*
X134550779Y-91504609D01*
X134810379Y-91331150D01*
X135031150Y-91110379D01*
X135204609Y-90850779D01*
X135324089Y-90562327D01*
X135385000Y-90256109D01*
X135385000Y-89943891D01*
X135324089Y-89637673D01*
X135204609Y-89349221D01*
X135031150Y-89089621D01*
X134810379Y-88868850D01*
X134550779Y-88695391D01*
X134262327Y-88575911D01*
X133956109Y-88515000D01*
X133643891Y-88515000D01*
X133337673Y-88575911D01*
X133049221Y-88695391D01*
X132789621Y-88868850D01*
X132568850Y-89089621D01*
X132395391Y-89349221D01*
X132275911Y-89637673D01*
X132215000Y-89943891D01*
X130935000Y-89943891D01*
X130935000Y-89840475D01*
X130833739Y-89331399D01*
X130635107Y-88851859D01*
X130346738Y-88420285D01*
X129979715Y-88053262D01*
X129548141Y-87764893D01*
X129068601Y-87566261D01*
X128559525Y-87465000D01*
X128040475Y-87465000D01*
X127531399Y-87566261D01*
X127051859Y-87764893D01*
X126620285Y-88053262D01*
X126253262Y-88420285D01*
X125964893Y-88851859D01*
X125766261Y-89331399D01*
X125665000Y-89840475D01*
X124364430Y-89840475D01*
X124324089Y-89637673D01*
X124204609Y-89349221D01*
X124097468Y-89188873D01*
X124159678Y-89195000D01*
X124820322Y-89195000D01*
X125060516Y-89171343D01*
X125368715Y-89077852D01*
X125652752Y-88926031D01*
X125901714Y-88721714D01*
X126106031Y-88472752D01*
X126257852Y-88188715D01*
X126351343Y-87880516D01*
X126382911Y-87560000D01*
X126351343Y-87239484D01*
X126257852Y-86931285D01*
X126106031Y-86647248D01*
X125901714Y-86398286D01*
X125652752Y-86193969D01*
X125368715Y-86042148D01*
X125060516Y-85948657D01*
X124820322Y-85925000D01*
X124159678Y-85925000D01*
X123919484Y-85948657D01*
X123611285Y-86042148D01*
X123327248Y-86193969D01*
X123078286Y-86398286D01*
X122873969Y-86647248D01*
X122722148Y-86931285D01*
X122628657Y-87239484D01*
X122597089Y-87560000D01*
X122628657Y-87880516D01*
X122722148Y-88188715D01*
X122873969Y-88472752D01*
X122908641Y-88515000D01*
X122643891Y-88515000D01*
X122337673Y-88575911D01*
X122049221Y-88695391D01*
X121789621Y-88868850D01*
X121568850Y-89089621D01*
X121395391Y-89349221D01*
X121275911Y-89637673D01*
X121215000Y-89943891D01*
X116335000Y-89943891D01*
X116274089Y-89637673D01*
X116154609Y-89349221D01*
X115981150Y-89089621D01*
X115760379Y-88868850D01*
X115500779Y-88695391D01*
X115212327Y-88575911D01*
X114906109Y-88515000D01*
X114593891Y-88515000D01*
X114287673Y-88575911D01*
X113999221Y-88695391D01*
X113739621Y-88868850D01*
X113518850Y-89089621D01*
X113345391Y-89349221D01*
X113225911Y-89637673D01*
X113165000Y-89943891D01*
X111885000Y-89943891D01*
X111885000Y-89840475D01*
X111783739Y-89331399D01*
X111585107Y-88851859D01*
X111296738Y-88420285D01*
X110929715Y-88053262D01*
X110498141Y-87764893D01*
X110018601Y-87566261D01*
X109509525Y-87465000D01*
X108990475Y-87465000D01*
X108481399Y-87566261D01*
X108001859Y-87764893D01*
X107570285Y-88053262D01*
X107203262Y-88420285D01*
X106914893Y-88851859D01*
X106716261Y-89331399D01*
X106615000Y-89840475D01*
X105314430Y-89840475D01*
X105274089Y-89637673D01*
X105154609Y-89349221D01*
X105047468Y-89188873D01*
X105109678Y-89195000D01*
X105770322Y-89195000D01*
X106010516Y-89171343D01*
X106318715Y-89077852D01*
X106602752Y-88926031D01*
X106851714Y-88721714D01*
X107056031Y-88472752D01*
X107207852Y-88188715D01*
X107301343Y-87880516D01*
X107332911Y-87560000D01*
X107301343Y-87239484D01*
X107207852Y-86931285D01*
X107056031Y-86647248D01*
X106851714Y-86398286D01*
X106602752Y-86193969D01*
X106318715Y-86042148D01*
X106010516Y-85948657D01*
X105770322Y-85925000D01*
X105109678Y-85925000D01*
X104869484Y-85948657D01*
X104561285Y-86042148D01*
X104277248Y-86193969D01*
X104028286Y-86398286D01*
X103823969Y-86647248D01*
X103672148Y-86931285D01*
X103578657Y-87239484D01*
X103547089Y-87560000D01*
X103578657Y-87880516D01*
X103672148Y-88188715D01*
X103823969Y-88472752D01*
X103858641Y-88515000D01*
X103593891Y-88515000D01*
X103287673Y-88575911D01*
X102999221Y-88695391D01*
X102739621Y-88868850D01*
X102518850Y-89089621D01*
X102345391Y-89349221D01*
X102225911Y-89637673D01*
X102165000Y-89943891D01*
X97285000Y-89943891D01*
X97224089Y-89637673D01*
X97104609Y-89349221D01*
X96931150Y-89089621D01*
X96710379Y-88868850D01*
X96450779Y-88695391D01*
X96162327Y-88575911D01*
X95856109Y-88515000D01*
X95543891Y-88515000D01*
X95237673Y-88575911D01*
X94949221Y-88695391D01*
X94689621Y-88868850D01*
X94468850Y-89089621D01*
X94295391Y-89349221D01*
X94175911Y-89637673D01*
X94115000Y-89943891D01*
X92835000Y-89943891D01*
X92835000Y-89840475D01*
X92733739Y-89331399D01*
X92535107Y-88851859D01*
X92246738Y-88420285D01*
X91879715Y-88053262D01*
X91448141Y-87764893D01*
X90968601Y-87566261D01*
X90459525Y-87465000D01*
X89940475Y-87465000D01*
X89431399Y-87566261D01*
X88951859Y-87764893D01*
X88520285Y-88053262D01*
X88153262Y-88420285D01*
X87864893Y-88851859D01*
X87666261Y-89331399D01*
X87565000Y-89840475D01*
X86264430Y-89840475D01*
X86224089Y-89637673D01*
X86104609Y-89349221D01*
X85997468Y-89188873D01*
X86059678Y-89195000D01*
X86720322Y-89195000D01*
X86960516Y-89171343D01*
X87268715Y-89077852D01*
X87552752Y-88926031D01*
X87801714Y-88721714D01*
X88006031Y-88472752D01*
X88157852Y-88188715D01*
X88251343Y-87880516D01*
X88282911Y-87560000D01*
X88251343Y-87239484D01*
X88157852Y-86931285D01*
X88006031Y-86647248D01*
X87801714Y-86398286D01*
X87552752Y-86193969D01*
X87268715Y-86042148D01*
X86960516Y-85948657D01*
X86720322Y-85925000D01*
X86059678Y-85925000D01*
X85819484Y-85948657D01*
X85511285Y-86042148D01*
X85227248Y-86193969D01*
X84978286Y-86398286D01*
X84773969Y-86647248D01*
X84622148Y-86931285D01*
X84528657Y-87239484D01*
X84497089Y-87560000D01*
X84528657Y-87880516D01*
X84622148Y-88188715D01*
X84773969Y-88472752D01*
X84808641Y-88515000D01*
X84543891Y-88515000D01*
X84237673Y-88575911D01*
X83949221Y-88695391D01*
X83689621Y-88868850D01*
X83468850Y-89089621D01*
X83295391Y-89349221D01*
X83175911Y-89637673D01*
X83115000Y-89943891D01*
X78235000Y-89943891D01*
X78174089Y-89637673D01*
X78054609Y-89349221D01*
X77881150Y-89089621D01*
X77660379Y-88868850D01*
X77400779Y-88695391D01*
X77112327Y-88575911D01*
X76806109Y-88515000D01*
X76493891Y-88515000D01*
X76187673Y-88575911D01*
X75899221Y-88695391D01*
X75639621Y-88868850D01*
X75418850Y-89089621D01*
X75245391Y-89349221D01*
X75125911Y-89637673D01*
X75065000Y-89943891D01*
X73785000Y-89943891D01*
X73785000Y-89840475D01*
X73683739Y-89331399D01*
X73485107Y-88851859D01*
X73196738Y-88420285D01*
X72829715Y-88053262D01*
X72398141Y-87764893D01*
X71918601Y-87566261D01*
X71409525Y-87465000D01*
X70890475Y-87465000D01*
X70381399Y-87566261D01*
X69901859Y-87764893D01*
X69470285Y-88053262D01*
X69103262Y-88420285D01*
X68814893Y-88851859D01*
X68616261Y-89331399D01*
X68515000Y-89840475D01*
X67214430Y-89840475D01*
X67174089Y-89637673D01*
X67054609Y-89349221D01*
X66947468Y-89188873D01*
X67009678Y-89195000D01*
X67670322Y-89195000D01*
X67910516Y-89171343D01*
X68218715Y-89077852D01*
X68502752Y-88926031D01*
X68751714Y-88721714D01*
X68956031Y-88472752D01*
X69107852Y-88188715D01*
X69201343Y-87880516D01*
X69232911Y-87560000D01*
X69201343Y-87239484D01*
X69107852Y-86931285D01*
X68956031Y-86647248D01*
X68751714Y-86398286D01*
X68502752Y-86193969D01*
X68218715Y-86042148D01*
X67910516Y-85948657D01*
X67670322Y-85925000D01*
X67009678Y-85925000D01*
X66769484Y-85948657D01*
X66461285Y-86042148D01*
X66177248Y-86193969D01*
X65928286Y-86398286D01*
X65723969Y-86647248D01*
X65572148Y-86931285D01*
X65478657Y-87239484D01*
X65447089Y-87560000D01*
X65478657Y-87880516D01*
X65572148Y-88188715D01*
X65723969Y-88472752D01*
X65758641Y-88515000D01*
X65493891Y-88515000D01*
X65187673Y-88575911D01*
X64899221Y-88695391D01*
X64639621Y-88868850D01*
X64418850Y-89089621D01*
X64245391Y-89349221D01*
X64125911Y-89637673D01*
X64065000Y-89943891D01*
X40660000Y-89943891D01*
X40660000Y-61664408D01*
X40994400Y-61664408D01*
X40994400Y-61939592D01*
X41048086Y-62209490D01*
X41153395Y-62463727D01*
X41306280Y-62692535D01*
X41500865Y-62887120D01*
X41729673Y-63040005D01*
X41806915Y-63072000D01*
X41729673Y-63103995D01*
X41500865Y-63256880D01*
X41306280Y-63451465D01*
X41153395Y-63680273D01*
X41048086Y-63934510D01*
X40994400Y-64204408D01*
X40994400Y-64479592D01*
X41048086Y-64749490D01*
X41153395Y-65003727D01*
X41306280Y-65232535D01*
X41500865Y-65427120D01*
X41729673Y-65580005D01*
X41806915Y-65612000D01*
X41729673Y-65643995D01*
X41500865Y-65796880D01*
X41306280Y-65991465D01*
X41153395Y-66220273D01*
X41048086Y-66474510D01*
X40994400Y-66744408D01*
X40994400Y-67019592D01*
X41048086Y-67289490D01*
X41153395Y-67543727D01*
X41306280Y-67772535D01*
X41500865Y-67967120D01*
X41729673Y-68120005D01*
X41806915Y-68152000D01*
X41729673Y-68183995D01*
X41500865Y-68336880D01*
X41306280Y-68531465D01*
X41153395Y-68760273D01*
X41048086Y-69014510D01*
X40994400Y-69284408D01*
X40994400Y-69559592D01*
X41048086Y-69829490D01*
X41153395Y-70083727D01*
X41306280Y-70312535D01*
X41500865Y-70507120D01*
X41729673Y-70660005D01*
X41806915Y-70692000D01*
X41729673Y-70723995D01*
X41500865Y-70876880D01*
X41306280Y-71071465D01*
X41153395Y-71300273D01*
X41048086Y-71554510D01*
X40994400Y-71824408D01*
X40994400Y-72099592D01*
X41048086Y-72369490D01*
X41153395Y-72623727D01*
X41306280Y-72852535D01*
X41500865Y-73047120D01*
X41729673Y-73200005D01*
X41806915Y-73232000D01*
X41729673Y-73263995D01*
X41500865Y-73416880D01*
X41306280Y-73611465D01*
X41153395Y-73840273D01*
X41048086Y-74094510D01*
X40994400Y-74364408D01*
X40994400Y-74639592D01*
X41048086Y-74909490D01*
X41153395Y-75163727D01*
X41306280Y-75392535D01*
X41500865Y-75587120D01*
X41729673Y-75740005D01*
X41806915Y-75772000D01*
X41729673Y-75803995D01*
X41500865Y-75956880D01*
X41306280Y-76151465D01*
X41153395Y-76380273D01*
X41048086Y-76634510D01*
X40994400Y-76904408D01*
X40994400Y-77179592D01*
X41048086Y-77449490D01*
X41153395Y-77703727D01*
X41306280Y-77932535D01*
X41500865Y-78127120D01*
X41729673Y-78280005D01*
X41806915Y-78312000D01*
X41729673Y-78343995D01*
X41500865Y-78496880D01*
X41306280Y-78691465D01*
X41153395Y-78920273D01*
X41048086Y-79174510D01*
X40994400Y-79444408D01*
X40994400Y-79719592D01*
X41048086Y-79989490D01*
X41153395Y-80243727D01*
X41306280Y-80472535D01*
X41500865Y-80667120D01*
X41729673Y-80820005D01*
X41806915Y-80852000D01*
X41729673Y-80883995D01*
X41500865Y-81036880D01*
X41306280Y-81231465D01*
X41153395Y-81460273D01*
X41048086Y-81714510D01*
X40994400Y-81984408D01*
X40994400Y-82259592D01*
X41048086Y-82529490D01*
X41153395Y-82783727D01*
X41306280Y-83012535D01*
X41500865Y-83207120D01*
X41729673Y-83360005D01*
X41806915Y-83392000D01*
X41729673Y-83423995D01*
X41500865Y-83576880D01*
X41306280Y-83771465D01*
X41153395Y-84000273D01*
X41048086Y-84254510D01*
X40994400Y-84524408D01*
X40994400Y-84799592D01*
X41048086Y-85069490D01*
X41153395Y-85323727D01*
X41306280Y-85552535D01*
X41500865Y-85747120D01*
X41729673Y-85900005D01*
X41983910Y-86005314D01*
X42253808Y-86059000D01*
X42528992Y-86059000D01*
X42798890Y-86005314D01*
X43053127Y-85900005D01*
X43281935Y-85747120D01*
X43476520Y-85552535D01*
X43629405Y-85323727D01*
X43734714Y-85069490D01*
X43788400Y-84799592D01*
X43788400Y-84524408D01*
X43734714Y-84254510D01*
X43629405Y-84000273D01*
X43476520Y-83771465D01*
X43281935Y-83576880D01*
X43053127Y-83423995D01*
X42975885Y-83392000D01*
X43053127Y-83360005D01*
X43281935Y-83207120D01*
X43476520Y-83012535D01*
X43629405Y-82783727D01*
X43734714Y-82529490D01*
X43788400Y-82259592D01*
X43788400Y-81984408D01*
X43734714Y-81714510D01*
X43629405Y-81460273D01*
X43476520Y-81231465D01*
X43281935Y-81036880D01*
X43053127Y-80883995D01*
X42975885Y-80852000D01*
X43053127Y-80820005D01*
X43281935Y-80667120D01*
X43476520Y-80472535D01*
X43629405Y-80243727D01*
X43734714Y-79989490D01*
X43788400Y-79719592D01*
X43788400Y-79444408D01*
X43734714Y-79174510D01*
X43629405Y-78920273D01*
X43476520Y-78691465D01*
X43281935Y-78496880D01*
X43053127Y-78343995D01*
X42975885Y-78312000D01*
X43053127Y-78280005D01*
X43281935Y-78127120D01*
X43476520Y-77932535D01*
X43629405Y-77703727D01*
X43734714Y-77449490D01*
X43788400Y-77179592D01*
X43788400Y-76904408D01*
X43734714Y-76634510D01*
X43629405Y-76380273D01*
X43476520Y-76151465D01*
X43281935Y-75956880D01*
X43053127Y-75803995D01*
X42975885Y-75772000D01*
X43053127Y-75740005D01*
X43281935Y-75587120D01*
X43476520Y-75392535D01*
X43629405Y-75163727D01*
X43734714Y-74909490D01*
X43788400Y-74639592D01*
X43788400Y-74364408D01*
X43734714Y-74094510D01*
X43629405Y-73840273D01*
X43476520Y-73611465D01*
X43281935Y-73416880D01*
X43053127Y-73263995D01*
X42975885Y-73232000D01*
X43053127Y-73200005D01*
X43281935Y-73047120D01*
X43476520Y-72852535D01*
X43629405Y-72623727D01*
X43734714Y-72369490D01*
X43788400Y-72099592D01*
X43788400Y-71824408D01*
X43734714Y-71554510D01*
X43629405Y-71300273D01*
X43476520Y-71071465D01*
X43281935Y-70876880D01*
X43053127Y-70723995D01*
X42975885Y-70692000D01*
X43053127Y-70660005D01*
X43281935Y-70507120D01*
X43476520Y-70312535D01*
X43629405Y-70083727D01*
X43734714Y-69829490D01*
X43788400Y-69559592D01*
X43788400Y-69284408D01*
X43734714Y-69014510D01*
X43629405Y-68760273D01*
X43476520Y-68531465D01*
X43281935Y-68336880D01*
X43053127Y-68183995D01*
X42975885Y-68152000D01*
X43053127Y-68120005D01*
X43281935Y-67967120D01*
X43476520Y-67772535D01*
X43629405Y-67543727D01*
X43734714Y-67289490D01*
X43788400Y-67019592D01*
X43788400Y-66744408D01*
X56214400Y-66744408D01*
X56214400Y-67019592D01*
X56268086Y-67289490D01*
X56373395Y-67543727D01*
X56526280Y-67772535D01*
X56720865Y-67967120D01*
X56949673Y-68120005D01*
X57026915Y-68152000D01*
X56949673Y-68183995D01*
X56720865Y-68336880D01*
X56526280Y-68531465D01*
X56373395Y-68760273D01*
X56268086Y-69014510D01*
X56214400Y-69284408D01*
X56214400Y-69559592D01*
X56268086Y-69829490D01*
X56373395Y-70083727D01*
X56526280Y-70312535D01*
X56720865Y-70507120D01*
X56949673Y-70660005D01*
X57026915Y-70692000D01*
X56949673Y-70723995D01*
X56720865Y-70876880D01*
X56526280Y-71071465D01*
X56373395Y-71300273D01*
X56268086Y-71554510D01*
X56214400Y-71824408D01*
X56214400Y-72099592D01*
X56268086Y-72369490D01*
X56373395Y-72623727D01*
X56526280Y-72852535D01*
X56720865Y-73047120D01*
X56949673Y-73200005D01*
X57026915Y-73232000D01*
X56949673Y-73263995D01*
X56720865Y-73416880D01*
X56526280Y-73611465D01*
X56373395Y-73840273D01*
X56268086Y-74094510D01*
X56214400Y-74364408D01*
X56214400Y-74639592D01*
X56268086Y-74909490D01*
X56373395Y-75163727D01*
X56526280Y-75392535D01*
X56720865Y-75587120D01*
X56949673Y-75740005D01*
X57026915Y-75772000D01*
X56949673Y-75803995D01*
X56720865Y-75956880D01*
X56526280Y-76151465D01*
X56373395Y-76380273D01*
X56268086Y-76634510D01*
X56214400Y-76904408D01*
X56214400Y-77179592D01*
X56268086Y-77449490D01*
X56373395Y-77703727D01*
X56526280Y-77932535D01*
X56720865Y-78127120D01*
X56949673Y-78280005D01*
X57026915Y-78312000D01*
X56949673Y-78343995D01*
X56720865Y-78496880D01*
X56526280Y-78691465D01*
X56373395Y-78920273D01*
X56268086Y-79174510D01*
X56214400Y-79444408D01*
X56214400Y-79719592D01*
X56268086Y-79989490D01*
X56373395Y-80243727D01*
X56526280Y-80472535D01*
X56720865Y-80667120D01*
X56949673Y-80820005D01*
X57026915Y-80852000D01*
X56949673Y-80883995D01*
X56720865Y-81036880D01*
X56526280Y-81231465D01*
X56373395Y-81460273D01*
X56268086Y-81714510D01*
X56214400Y-81984408D01*
X56214400Y-82259592D01*
X56268086Y-82529490D01*
X56373395Y-82783727D01*
X56526280Y-83012535D01*
X56720865Y-83207120D01*
X56949673Y-83360005D01*
X57026915Y-83392000D01*
X56949673Y-83423995D01*
X56720865Y-83576880D01*
X56526280Y-83771465D01*
X56373395Y-84000273D01*
X56268086Y-84254510D01*
X56214400Y-84524408D01*
X56214400Y-84799592D01*
X56268086Y-85069490D01*
X56373395Y-85323727D01*
X56526280Y-85552535D01*
X56720865Y-85747120D01*
X56949673Y-85900005D01*
X57203910Y-86005314D01*
X57473808Y-86059000D01*
X57748992Y-86059000D01*
X58018890Y-86005314D01*
X58273127Y-85900005D01*
X58501935Y-85747120D01*
X58696520Y-85552535D01*
X58798150Y-85400434D01*
X71849876Y-85400434D01*
X71874256Y-85522398D01*
X72002354Y-85818206D01*
X72185700Y-86083340D01*
X72417248Y-86307610D01*
X72688100Y-86482398D01*
X72987847Y-86600987D01*
X73304970Y-86658819D01*
X73563000Y-86501016D01*
X73563000Y-85147000D01*
X73817000Y-85147000D01*
X73817000Y-86501016D01*
X74075030Y-86658819D01*
X74392153Y-86600987D01*
X74691900Y-86482398D01*
X74962752Y-86307610D01*
X75194300Y-86083340D01*
X75377646Y-85818206D01*
X75505744Y-85522398D01*
X75530124Y-85400434D01*
X90899876Y-85400434D01*
X90924256Y-85522398D01*
X91052354Y-85818206D01*
X91235700Y-86083340D01*
X91467248Y-86307610D01*
X91738100Y-86482398D01*
X92037847Y-86600987D01*
X92354970Y-86658819D01*
X92613000Y-86501016D01*
X92613000Y-85147000D01*
X92867000Y-85147000D01*
X92867000Y-86501016D01*
X93125030Y-86658819D01*
X93442153Y-86600987D01*
X93741900Y-86482398D01*
X94012752Y-86307610D01*
X94244300Y-86083340D01*
X94427646Y-85818206D01*
X94555744Y-85522398D01*
X94580124Y-85400434D01*
X109949876Y-85400434D01*
X109974256Y-85522398D01*
X110102354Y-85818206D01*
X110285700Y-86083340D01*
X110517248Y-86307610D01*
X110788100Y-86482398D01*
X111087847Y-86600987D01*
X111404970Y-86658819D01*
X111663000Y-86501016D01*
X111663000Y-85147000D01*
X111917000Y-85147000D01*
X111917000Y-86501016D01*
X112175030Y-86658819D01*
X112492153Y-86600987D01*
X112791900Y-86482398D01*
X113062752Y-86307610D01*
X113294300Y-86083340D01*
X113477646Y-85818206D01*
X113605744Y-85522398D01*
X113630124Y-85400434D01*
X128999876Y-85400434D01*
X129024256Y-85522398D01*
X129152354Y-85818206D01*
X129335700Y-86083340D01*
X129567248Y-86307610D01*
X129838100Y-86482398D01*
X130137847Y-86600987D01*
X130454970Y-86658819D01*
X130713000Y-86501016D01*
X130713000Y-85147000D01*
X130967000Y-85147000D01*
X130967000Y-86501016D01*
X131225030Y-86658819D01*
X131542153Y-86600987D01*
X131841900Y-86482398D01*
X132112752Y-86307610D01*
X132344300Y-86083340D01*
X132527646Y-85818206D01*
X132655744Y-85522398D01*
X132680124Y-85400434D01*
X132560777Y-85147000D01*
X130967000Y-85147000D01*
X130713000Y-85147000D01*
X129119223Y-85147000D01*
X128999876Y-85400434D01*
X113630124Y-85400434D01*
X113510777Y-85147000D01*
X111917000Y-85147000D01*
X111663000Y-85147000D01*
X110069223Y-85147000D01*
X109949876Y-85400434D01*
X94580124Y-85400434D01*
X94460777Y-85147000D01*
X92867000Y-85147000D01*
X92613000Y-85147000D01*
X91019223Y-85147000D01*
X90899876Y-85400434D01*
X75530124Y-85400434D01*
X75410777Y-85147000D01*
X73817000Y-85147000D01*
X73563000Y-85147000D01*
X71969223Y-85147000D01*
X71849876Y-85400434D01*
X58798150Y-85400434D01*
X58849405Y-85323727D01*
X58954714Y-85069490D01*
X59008400Y-84799592D01*
X59008400Y-84639566D01*
X71849876Y-84639566D01*
X71969223Y-84893000D01*
X73563000Y-84893000D01*
X73563000Y-83538984D01*
X73817000Y-83538984D01*
X73817000Y-84893000D01*
X75410777Y-84893000D01*
X75530124Y-84639566D01*
X90899876Y-84639566D01*
X91019223Y-84893000D01*
X92613000Y-84893000D01*
X92613000Y-83538984D01*
X92867000Y-83538984D01*
X92867000Y-84893000D01*
X94460777Y-84893000D01*
X94580124Y-84639566D01*
X109949876Y-84639566D01*
X110069223Y-84893000D01*
X111663000Y-84893000D01*
X111663000Y-83538984D01*
X111917000Y-83538984D01*
X111917000Y-84893000D01*
X113510777Y-84893000D01*
X113630124Y-84639566D01*
X128999876Y-84639566D01*
X129119223Y-84893000D01*
X130713000Y-84893000D01*
X130713000Y-83538984D01*
X130967000Y-83538984D01*
X130967000Y-84893000D01*
X132560777Y-84893000D01*
X132680124Y-84639566D01*
X132655744Y-84517602D01*
X132527646Y-84221794D01*
X132344300Y-83956660D01*
X132112752Y-83732390D01*
X131841900Y-83557602D01*
X131542153Y-83439013D01*
X131225030Y-83381181D01*
X130967000Y-83538984D01*
X130713000Y-83538984D01*
X130454970Y-83381181D01*
X130137847Y-83439013D01*
X129838100Y-83557602D01*
X129567248Y-83732390D01*
X129335700Y-83956660D01*
X129152354Y-84221794D01*
X129024256Y-84517602D01*
X128999876Y-84639566D01*
X113630124Y-84639566D01*
X113605744Y-84517602D01*
X113477646Y-84221794D01*
X113294300Y-83956660D01*
X113062752Y-83732390D01*
X112791900Y-83557602D01*
X112492153Y-83439013D01*
X112175030Y-83381181D01*
X111917000Y-83538984D01*
X111663000Y-83538984D01*
X111404970Y-83381181D01*
X111087847Y-83439013D01*
X110788100Y-83557602D01*
X110517248Y-83732390D01*
X110285700Y-83956660D01*
X110102354Y-84221794D01*
X109974256Y-84517602D01*
X109949876Y-84639566D01*
X94580124Y-84639566D01*
X94555744Y-84517602D01*
X94427646Y-84221794D01*
X94244300Y-83956660D01*
X94012752Y-83732390D01*
X93741900Y-83557602D01*
X93442153Y-83439013D01*
X93125030Y-83381181D01*
X92867000Y-83538984D01*
X92613000Y-83538984D01*
X92354970Y-83381181D01*
X92037847Y-83439013D01*
X91738100Y-83557602D01*
X91467248Y-83732390D01*
X91235700Y-83956660D01*
X91052354Y-84221794D01*
X90924256Y-84517602D01*
X90899876Y-84639566D01*
X75530124Y-84639566D01*
X75505744Y-84517602D01*
X75377646Y-84221794D01*
X75194300Y-83956660D01*
X74962752Y-83732390D01*
X74691900Y-83557602D01*
X74392153Y-83439013D01*
X74075030Y-83381181D01*
X73817000Y-83538984D01*
X73563000Y-83538984D01*
X73304970Y-83381181D01*
X72987847Y-83439013D01*
X72688100Y-83557602D01*
X72417248Y-83732390D01*
X72185700Y-83956660D01*
X72002354Y-84221794D01*
X71874256Y-84517602D01*
X71849876Y-84639566D01*
X59008400Y-84639566D01*
X59008400Y-84524408D01*
X58954714Y-84254510D01*
X58849405Y-84000273D01*
X58696520Y-83771465D01*
X58501935Y-83576880D01*
X58273127Y-83423995D01*
X58195885Y-83392000D01*
X58273127Y-83360005D01*
X58501935Y-83207120D01*
X58696520Y-83012535D01*
X58849405Y-82783727D01*
X58954714Y-82529490D01*
X59008400Y-82259592D01*
X59008400Y-81984408D01*
X58954714Y-81714510D01*
X58849405Y-81460273D01*
X58696520Y-81231465D01*
X58501935Y-81036880D01*
X58273127Y-80883995D01*
X58195885Y-80852000D01*
X58273127Y-80820005D01*
X58501935Y-80667120D01*
X58696520Y-80472535D01*
X58849405Y-80243727D01*
X58954714Y-79989490D01*
X59008400Y-79719592D01*
X59008400Y-79444408D01*
X58954714Y-79174510D01*
X58849405Y-78920273D01*
X58696520Y-78691465D01*
X58501935Y-78496880D01*
X58273127Y-78343995D01*
X58195885Y-78312000D01*
X58273127Y-78280005D01*
X58501935Y-78127120D01*
X58696520Y-77932535D01*
X58849405Y-77703727D01*
X58954714Y-77449490D01*
X59008400Y-77179592D01*
X59008400Y-76904408D01*
X58954714Y-76634510D01*
X58849405Y-76380273D01*
X58696520Y-76151465D01*
X58501935Y-75956880D01*
X58273127Y-75803995D01*
X58195885Y-75772000D01*
X58273127Y-75740005D01*
X58501935Y-75587120D01*
X58696520Y-75392535D01*
X58849405Y-75163727D01*
X58954714Y-74909490D01*
X59008400Y-74639592D01*
X59008400Y-74364408D01*
X58954714Y-74094510D01*
X58849405Y-73840273D01*
X58696520Y-73611465D01*
X58501935Y-73416880D01*
X58273127Y-73263995D01*
X58195885Y-73232000D01*
X58273127Y-73200005D01*
X58501935Y-73047120D01*
X58696520Y-72852535D01*
X58849405Y-72623727D01*
X58954714Y-72369490D01*
X59008400Y-72099592D01*
X59008400Y-71824408D01*
X58954714Y-71554510D01*
X58849405Y-71300273D01*
X58696520Y-71071465D01*
X58568946Y-70943891D01*
X64015000Y-70943891D01*
X64015000Y-71256109D01*
X64075911Y-71562327D01*
X64195391Y-71850779D01*
X64368850Y-72110379D01*
X64589621Y-72331150D01*
X64849221Y-72504609D01*
X65137673Y-72624089D01*
X65443891Y-72685000D01*
X65756109Y-72685000D01*
X66062327Y-72624089D01*
X66350779Y-72504609D01*
X66610379Y-72331150D01*
X66831150Y-72110379D01*
X67004609Y-71850779D01*
X67124089Y-71562327D01*
X67185000Y-71256109D01*
X67185000Y-70943891D01*
X67164430Y-70840475D01*
X68465000Y-70840475D01*
X68465000Y-71359525D01*
X68566261Y-71868601D01*
X68764893Y-72348141D01*
X69053262Y-72779715D01*
X69420285Y-73146738D01*
X69851859Y-73435107D01*
X70331399Y-73633739D01*
X70840475Y-73735000D01*
X71359525Y-73735000D01*
X71868601Y-73633739D01*
X72348141Y-73435107D01*
X72779715Y-73146738D01*
X73146738Y-72779715D01*
X73435107Y-72348141D01*
X73633739Y-71868601D01*
X73735000Y-71359525D01*
X73735000Y-70943891D01*
X75015000Y-70943891D01*
X75015000Y-71256109D01*
X75075911Y-71562327D01*
X75195391Y-71850779D01*
X75368850Y-72110379D01*
X75589621Y-72331150D01*
X75849221Y-72504609D01*
X76137673Y-72624089D01*
X76443891Y-72685000D01*
X76756109Y-72685000D01*
X77062327Y-72624089D01*
X77350779Y-72504609D01*
X77610379Y-72331150D01*
X77831150Y-72110379D01*
X78004609Y-71850779D01*
X78124089Y-71562327D01*
X78185000Y-71256109D01*
X78185000Y-70943891D01*
X78175055Y-70893891D01*
X83115000Y-70893891D01*
X83115000Y-71206109D01*
X83175911Y-71512327D01*
X83295391Y-71800779D01*
X83468850Y-72060379D01*
X83689621Y-72281150D01*
X83949221Y-72454609D01*
X84237673Y-72574089D01*
X84543891Y-72635000D01*
X84856109Y-72635000D01*
X85162327Y-72574089D01*
X85450779Y-72454609D01*
X85710379Y-72281150D01*
X85931150Y-72060379D01*
X86104609Y-71800779D01*
X86224089Y-71512327D01*
X86285000Y-71206109D01*
X86285000Y-70893891D01*
X86264430Y-70790475D01*
X87565000Y-70790475D01*
X87565000Y-71309525D01*
X87666261Y-71818601D01*
X87864893Y-72298141D01*
X88153262Y-72729715D01*
X88520285Y-73096738D01*
X88951859Y-73385107D01*
X89431399Y-73583739D01*
X89940475Y-73685000D01*
X90459525Y-73685000D01*
X90968601Y-73583739D01*
X91448141Y-73385107D01*
X91879715Y-73096738D01*
X92246738Y-72729715D01*
X92535107Y-72298141D01*
X92733739Y-71818601D01*
X92835000Y-71309525D01*
X92835000Y-70893891D01*
X94115000Y-70893891D01*
X94115000Y-71206109D01*
X94175911Y-71512327D01*
X94295391Y-71800779D01*
X94468850Y-72060379D01*
X94689621Y-72281150D01*
X94949221Y-72454609D01*
X95237673Y-72574089D01*
X95543891Y-72635000D01*
X95856109Y-72635000D01*
X96162327Y-72574089D01*
X96450779Y-72454609D01*
X96710379Y-72281150D01*
X96931150Y-72060379D01*
X97104609Y-71800779D01*
X97224089Y-71512327D01*
X97285000Y-71206109D01*
X97285000Y-70893891D01*
X102165000Y-70893891D01*
X102165000Y-71206109D01*
X102225911Y-71512327D01*
X102345391Y-71800779D01*
X102518850Y-72060379D01*
X102739621Y-72281150D01*
X102999221Y-72454609D01*
X103287673Y-72574089D01*
X103593891Y-72635000D01*
X103906109Y-72635000D01*
X104212327Y-72574089D01*
X104500779Y-72454609D01*
X104760379Y-72281150D01*
X104981150Y-72060379D01*
X105154609Y-71800779D01*
X105274089Y-71512327D01*
X105335000Y-71206109D01*
X105335000Y-70893891D01*
X105314430Y-70790475D01*
X106615000Y-70790475D01*
X106615000Y-71309525D01*
X106716261Y-71818601D01*
X106914893Y-72298141D01*
X107203262Y-72729715D01*
X107570285Y-73096738D01*
X108001859Y-73385107D01*
X108481399Y-73583739D01*
X108990475Y-73685000D01*
X109509525Y-73685000D01*
X110018601Y-73583739D01*
X110498141Y-73385107D01*
X110929715Y-73096738D01*
X111296738Y-72729715D01*
X111585107Y-72298141D01*
X111783739Y-71818601D01*
X111885000Y-71309525D01*
X111885000Y-70893891D01*
X113165000Y-70893891D01*
X113165000Y-71206109D01*
X113225911Y-71512327D01*
X113345391Y-71800779D01*
X113518850Y-72060379D01*
X113739621Y-72281150D01*
X113999221Y-72454609D01*
X114287673Y-72574089D01*
X114593891Y-72635000D01*
X114906109Y-72635000D01*
X115212327Y-72574089D01*
X115500779Y-72454609D01*
X115760379Y-72281150D01*
X115981150Y-72060379D01*
X116154609Y-71800779D01*
X116274089Y-71512327D01*
X116335000Y-71206109D01*
X116335000Y-70893891D01*
X121215000Y-70893891D01*
X121215000Y-71206109D01*
X121275911Y-71512327D01*
X121395391Y-71800779D01*
X121568850Y-72060379D01*
X121789621Y-72281150D01*
X122049221Y-72454609D01*
X122337673Y-72574089D01*
X122643891Y-72635000D01*
X122956109Y-72635000D01*
X123262327Y-72574089D01*
X123550779Y-72454609D01*
X123810379Y-72281150D01*
X124031150Y-72060379D01*
X124204609Y-71800779D01*
X124324089Y-71512327D01*
X124385000Y-71206109D01*
X124385000Y-70893891D01*
X124364430Y-70790475D01*
X125665000Y-70790475D01*
X125665000Y-71309525D01*
X125766261Y-71818601D01*
X125964893Y-72298141D01*
X126253262Y-72729715D01*
X126620285Y-73096738D01*
X127051859Y-73385107D01*
X127531399Y-73583739D01*
X128040475Y-73685000D01*
X128559525Y-73685000D01*
X129068601Y-73583739D01*
X129548141Y-73385107D01*
X129979715Y-73096738D01*
X130346738Y-72729715D01*
X130635107Y-72298141D01*
X130833739Y-71818601D01*
X130935000Y-71309525D01*
X130935000Y-70893891D01*
X132215000Y-70893891D01*
X132215000Y-71206109D01*
X132275911Y-71512327D01*
X132395391Y-71800779D01*
X132568850Y-72060379D01*
X132789621Y-72281150D01*
X133049221Y-72454609D01*
X133337673Y-72574089D01*
X133643891Y-72635000D01*
X133956109Y-72635000D01*
X134262327Y-72574089D01*
X134550779Y-72454609D01*
X134810379Y-72281150D01*
X135031150Y-72060379D01*
X135204609Y-71800779D01*
X135324089Y-71512327D01*
X135385000Y-71206109D01*
X135385000Y-70893891D01*
X135324089Y-70587673D01*
X135204609Y-70299221D01*
X135031150Y-70039621D01*
X134810379Y-69818850D01*
X134550779Y-69645391D01*
X134262327Y-69525911D01*
X133956109Y-69465000D01*
X133643891Y-69465000D01*
X133337673Y-69525911D01*
X133049221Y-69645391D01*
X132789621Y-69818850D01*
X132568850Y-70039621D01*
X132395391Y-70299221D01*
X132275911Y-70587673D01*
X132215000Y-70893891D01*
X130935000Y-70893891D01*
X130935000Y-70790475D01*
X130833739Y-70281399D01*
X130635107Y-69801859D01*
X130346738Y-69370285D01*
X129979715Y-69003262D01*
X129548141Y-68714893D01*
X129068601Y-68516261D01*
X128559525Y-68415000D01*
X128040475Y-68415000D01*
X127531399Y-68516261D01*
X127051859Y-68714893D01*
X126620285Y-69003262D01*
X126253262Y-69370285D01*
X125964893Y-69801859D01*
X125766261Y-70281399D01*
X125665000Y-70790475D01*
X124364430Y-70790475D01*
X124324089Y-70587673D01*
X124204609Y-70299221D01*
X124097468Y-70138873D01*
X124159678Y-70145000D01*
X124820322Y-70145000D01*
X125060516Y-70121343D01*
X125368715Y-70027852D01*
X125652752Y-69876031D01*
X125901714Y-69671714D01*
X126106031Y-69422752D01*
X126257852Y-69138715D01*
X126351343Y-68830516D01*
X126382911Y-68510000D01*
X126351343Y-68189484D01*
X126257852Y-67881285D01*
X126106031Y-67597248D01*
X125901714Y-67348286D01*
X125652752Y-67143969D01*
X125368715Y-66992148D01*
X125060516Y-66898657D01*
X124820322Y-66875000D01*
X124159678Y-66875000D01*
X123919484Y-66898657D01*
X123611285Y-66992148D01*
X123327248Y-67143969D01*
X123078286Y-67348286D01*
X122873969Y-67597248D01*
X122722148Y-67881285D01*
X122628657Y-68189484D01*
X122597089Y-68510000D01*
X122628657Y-68830516D01*
X122722148Y-69138715D01*
X122873969Y-69422752D01*
X122908641Y-69465000D01*
X122643891Y-69465000D01*
X122337673Y-69525911D01*
X122049221Y-69645391D01*
X121789621Y-69818850D01*
X121568850Y-70039621D01*
X121395391Y-70299221D01*
X121275911Y-70587673D01*
X121215000Y-70893891D01*
X116335000Y-70893891D01*
X116274089Y-70587673D01*
X116154609Y-70299221D01*
X115981150Y-70039621D01*
X115760379Y-69818850D01*
X115500779Y-69645391D01*
X115212327Y-69525911D01*
X114906109Y-69465000D01*
X114593891Y-69465000D01*
X114287673Y-69525911D01*
X113999221Y-69645391D01*
X113739621Y-69818850D01*
X113518850Y-70039621D01*
X113345391Y-70299221D01*
X113225911Y-70587673D01*
X113165000Y-70893891D01*
X111885000Y-70893891D01*
X111885000Y-70790475D01*
X111783739Y-70281399D01*
X111585107Y-69801859D01*
X111296738Y-69370285D01*
X110929715Y-69003262D01*
X110498141Y-68714893D01*
X110018601Y-68516261D01*
X109509525Y-68415000D01*
X108990475Y-68415000D01*
X108481399Y-68516261D01*
X108001859Y-68714893D01*
X107570285Y-69003262D01*
X107203262Y-69370285D01*
X106914893Y-69801859D01*
X106716261Y-70281399D01*
X106615000Y-70790475D01*
X105314430Y-70790475D01*
X105274089Y-70587673D01*
X105154609Y-70299221D01*
X105047468Y-70138873D01*
X105109678Y-70145000D01*
X105770322Y-70145000D01*
X106010516Y-70121343D01*
X106318715Y-70027852D01*
X106602752Y-69876031D01*
X106851714Y-69671714D01*
X107056031Y-69422752D01*
X107207852Y-69138715D01*
X107301343Y-68830516D01*
X107332911Y-68510000D01*
X107301343Y-68189484D01*
X107207852Y-67881285D01*
X107056031Y-67597248D01*
X106851714Y-67348286D01*
X106602752Y-67143969D01*
X106318715Y-66992148D01*
X106010516Y-66898657D01*
X105770322Y-66875000D01*
X105109678Y-66875000D01*
X104869484Y-66898657D01*
X104561285Y-66992148D01*
X104277248Y-67143969D01*
X104028286Y-67348286D01*
X103823969Y-67597248D01*
X103672148Y-67881285D01*
X103578657Y-68189484D01*
X103547089Y-68510000D01*
X103578657Y-68830516D01*
X103672148Y-69138715D01*
X103823969Y-69422752D01*
X103858641Y-69465000D01*
X103593891Y-69465000D01*
X103287673Y-69525911D01*
X102999221Y-69645391D01*
X102739621Y-69818850D01*
X102518850Y-70039621D01*
X102345391Y-70299221D01*
X102225911Y-70587673D01*
X102165000Y-70893891D01*
X97285000Y-70893891D01*
X97224089Y-70587673D01*
X97104609Y-70299221D01*
X96931150Y-70039621D01*
X96710379Y-69818850D01*
X96450779Y-69645391D01*
X96162327Y-69525911D01*
X95856109Y-69465000D01*
X95543891Y-69465000D01*
X95237673Y-69525911D01*
X94949221Y-69645391D01*
X94689621Y-69818850D01*
X94468850Y-70039621D01*
X94295391Y-70299221D01*
X94175911Y-70587673D01*
X94115000Y-70893891D01*
X92835000Y-70893891D01*
X92835000Y-70790475D01*
X92733739Y-70281399D01*
X92535107Y-69801859D01*
X92246738Y-69370285D01*
X91879715Y-69003262D01*
X91448141Y-68714893D01*
X90968601Y-68516261D01*
X90459525Y-68415000D01*
X89940475Y-68415000D01*
X89431399Y-68516261D01*
X88951859Y-68714893D01*
X88520285Y-69003262D01*
X88153262Y-69370285D01*
X87864893Y-69801859D01*
X87666261Y-70281399D01*
X87565000Y-70790475D01*
X86264430Y-70790475D01*
X86224089Y-70587673D01*
X86104609Y-70299221D01*
X85997468Y-70138873D01*
X86059678Y-70145000D01*
X86720322Y-70145000D01*
X86960516Y-70121343D01*
X87268715Y-70027852D01*
X87552752Y-69876031D01*
X87801714Y-69671714D01*
X88006031Y-69422752D01*
X88157852Y-69138715D01*
X88251343Y-68830516D01*
X88282911Y-68510000D01*
X88251343Y-68189484D01*
X88157852Y-67881285D01*
X88006031Y-67597248D01*
X87801714Y-67348286D01*
X87552752Y-67143969D01*
X87268715Y-66992148D01*
X86960516Y-66898657D01*
X86720322Y-66875000D01*
X86059678Y-66875000D01*
X85819484Y-66898657D01*
X85511285Y-66992148D01*
X85227248Y-67143969D01*
X84978286Y-67348286D01*
X84773969Y-67597248D01*
X84622148Y-67881285D01*
X84528657Y-68189484D01*
X84497089Y-68510000D01*
X84528657Y-68830516D01*
X84622148Y-69138715D01*
X84773969Y-69422752D01*
X84808641Y-69465000D01*
X84543891Y-69465000D01*
X84237673Y-69525911D01*
X83949221Y-69645391D01*
X83689621Y-69818850D01*
X83468850Y-70039621D01*
X83295391Y-70299221D01*
X83175911Y-70587673D01*
X83115000Y-70893891D01*
X78175055Y-70893891D01*
X78124089Y-70637673D01*
X78004609Y-70349221D01*
X77831150Y-70089621D01*
X77610379Y-69868850D01*
X77350779Y-69695391D01*
X77062327Y-69575911D01*
X76756109Y-69515000D01*
X76443891Y-69515000D01*
X76137673Y-69575911D01*
X75849221Y-69695391D01*
X75589621Y-69868850D01*
X75368850Y-70089621D01*
X75195391Y-70349221D01*
X75075911Y-70637673D01*
X75015000Y-70943891D01*
X73735000Y-70943891D01*
X73735000Y-70840475D01*
X73633739Y-70331399D01*
X73435107Y-69851859D01*
X73146738Y-69420285D01*
X72779715Y-69053262D01*
X72348141Y-68764893D01*
X71868601Y-68566261D01*
X71359525Y-68465000D01*
X70840475Y-68465000D01*
X70331399Y-68566261D01*
X69851859Y-68764893D01*
X69420285Y-69053262D01*
X69053262Y-69420285D01*
X68764893Y-69851859D01*
X68566261Y-70331399D01*
X68465000Y-70840475D01*
X67164430Y-70840475D01*
X67124089Y-70637673D01*
X67004609Y-70349221D01*
X66897468Y-70188873D01*
X66959678Y-70195000D01*
X67620322Y-70195000D01*
X67860516Y-70171343D01*
X68168715Y-70077852D01*
X68452752Y-69926031D01*
X68701714Y-69721714D01*
X68906031Y-69472752D01*
X69057852Y-69188715D01*
X69151343Y-68880516D01*
X69182911Y-68560000D01*
X69151343Y-68239484D01*
X69057852Y-67931285D01*
X68906031Y-67647248D01*
X68701714Y-67398286D01*
X68452752Y-67193969D01*
X68168715Y-67042148D01*
X67860516Y-66948657D01*
X67620322Y-66925000D01*
X66959678Y-66925000D01*
X66719484Y-66948657D01*
X66411285Y-67042148D01*
X66127248Y-67193969D01*
X65878286Y-67398286D01*
X65673969Y-67647248D01*
X65522148Y-67931285D01*
X65428657Y-68239484D01*
X65397089Y-68560000D01*
X65428657Y-68880516D01*
X65522148Y-69188715D01*
X65673969Y-69472752D01*
X65708641Y-69515000D01*
X65443891Y-69515000D01*
X65137673Y-69575911D01*
X64849221Y-69695391D01*
X64589621Y-69868850D01*
X64368850Y-70089621D01*
X64195391Y-70349221D01*
X64075911Y-70637673D01*
X64015000Y-70943891D01*
X58568946Y-70943891D01*
X58501935Y-70876880D01*
X58273127Y-70723995D01*
X58195885Y-70692000D01*
X58273127Y-70660005D01*
X58501935Y-70507120D01*
X58696520Y-70312535D01*
X58849405Y-70083727D01*
X58954714Y-69829490D01*
X59008400Y-69559592D01*
X59008400Y-69284408D01*
X58954714Y-69014510D01*
X58849405Y-68760273D01*
X58696520Y-68531465D01*
X58501935Y-68336880D01*
X58273127Y-68183995D01*
X58195885Y-68152000D01*
X58273127Y-68120005D01*
X58501935Y-67967120D01*
X58696520Y-67772535D01*
X58849405Y-67543727D01*
X58954714Y-67289490D01*
X59008400Y-67019592D01*
X59008400Y-66744408D01*
X58954714Y-66474510D01*
X58924031Y-66400434D01*
X71799876Y-66400434D01*
X71824256Y-66522398D01*
X71952354Y-66818206D01*
X72135700Y-67083340D01*
X72367248Y-67307610D01*
X72638100Y-67482398D01*
X72937847Y-67600987D01*
X73254970Y-67658819D01*
X73513000Y-67501016D01*
X73513000Y-66147000D01*
X73767000Y-66147000D01*
X73767000Y-67501016D01*
X74025030Y-67658819D01*
X74342153Y-67600987D01*
X74641900Y-67482398D01*
X74912752Y-67307610D01*
X75144300Y-67083340D01*
X75327646Y-66818206D01*
X75455744Y-66522398D01*
X75480124Y-66400434D01*
X75456579Y-66350434D01*
X90899876Y-66350434D01*
X90924256Y-66472398D01*
X91052354Y-66768206D01*
X91235700Y-67033340D01*
X91467248Y-67257610D01*
X91738100Y-67432398D01*
X92037847Y-67550987D01*
X92354970Y-67608819D01*
X92613000Y-67451016D01*
X92613000Y-66097000D01*
X92867000Y-66097000D01*
X92867000Y-67451016D01*
X93125030Y-67608819D01*
X93442153Y-67550987D01*
X93741900Y-67432398D01*
X94012752Y-67257610D01*
X94244300Y-67033340D01*
X94427646Y-66768206D01*
X94555744Y-66472398D01*
X94580124Y-66350434D01*
X109949876Y-66350434D01*
X109974256Y-66472398D01*
X110102354Y-66768206D01*
X110285700Y-67033340D01*
X110517248Y-67257610D01*
X110788100Y-67432398D01*
X111087847Y-67550987D01*
X111404970Y-67608819D01*
X111663000Y-67451016D01*
X111663000Y-66097000D01*
X111917000Y-66097000D01*
X111917000Y-67451016D01*
X112175030Y-67608819D01*
X112492153Y-67550987D01*
X112791900Y-67432398D01*
X113062752Y-67257610D01*
X113294300Y-67033340D01*
X113477646Y-66768206D01*
X113605744Y-66472398D01*
X113630124Y-66350434D01*
X128999876Y-66350434D01*
X129024256Y-66472398D01*
X129152354Y-66768206D01*
X129335700Y-67033340D01*
X129567248Y-67257610D01*
X129838100Y-67432398D01*
X130137847Y-67550987D01*
X130454970Y-67608819D01*
X130713000Y-67451016D01*
X130713000Y-66097000D01*
X130967000Y-66097000D01*
X130967000Y-67451016D01*
X131225030Y-67608819D01*
X131542153Y-67550987D01*
X131841900Y-67432398D01*
X132112752Y-67257610D01*
X132344300Y-67033340D01*
X132527646Y-66768206D01*
X132655744Y-66472398D01*
X132680124Y-66350434D01*
X132560777Y-66097000D01*
X130967000Y-66097000D01*
X130713000Y-66097000D01*
X129119223Y-66097000D01*
X128999876Y-66350434D01*
X113630124Y-66350434D01*
X113510777Y-66097000D01*
X111917000Y-66097000D01*
X111663000Y-66097000D01*
X110069223Y-66097000D01*
X109949876Y-66350434D01*
X94580124Y-66350434D01*
X94460777Y-66097000D01*
X92867000Y-66097000D01*
X92613000Y-66097000D01*
X91019223Y-66097000D01*
X90899876Y-66350434D01*
X75456579Y-66350434D01*
X75360777Y-66147000D01*
X73767000Y-66147000D01*
X73513000Y-66147000D01*
X71919223Y-66147000D01*
X71799876Y-66400434D01*
X58924031Y-66400434D01*
X58849405Y-66220273D01*
X58696520Y-65991465D01*
X58501935Y-65796880D01*
X58273127Y-65643995D01*
X58262435Y-65639566D01*
X71799876Y-65639566D01*
X71919223Y-65893000D01*
X73513000Y-65893000D01*
X73513000Y-64538984D01*
X73767000Y-64538984D01*
X73767000Y-65893000D01*
X75360777Y-65893000D01*
X75480124Y-65639566D01*
X75470130Y-65589566D01*
X90899876Y-65589566D01*
X91019223Y-65843000D01*
X92613000Y-65843000D01*
X92613000Y-64488984D01*
X92867000Y-64488984D01*
X92867000Y-65843000D01*
X94460777Y-65843000D01*
X94580124Y-65589566D01*
X109949876Y-65589566D01*
X110069223Y-65843000D01*
X111663000Y-65843000D01*
X111663000Y-64488984D01*
X111917000Y-64488984D01*
X111917000Y-65843000D01*
X113510777Y-65843000D01*
X113630124Y-65589566D01*
X128999876Y-65589566D01*
X129119223Y-65843000D01*
X130713000Y-65843000D01*
X130713000Y-64488984D01*
X130967000Y-64488984D01*
X130967000Y-65843000D01*
X132560777Y-65843000D01*
X132680124Y-65589566D01*
X132655744Y-65467602D01*
X132527646Y-65171794D01*
X132344300Y-64906660D01*
X132112752Y-64682390D01*
X131841900Y-64507602D01*
X131542153Y-64389013D01*
X131225030Y-64331181D01*
X130967000Y-64488984D01*
X130713000Y-64488984D01*
X130454970Y-64331181D01*
X130137847Y-64389013D01*
X129838100Y-64507602D01*
X129567248Y-64682390D01*
X129335700Y-64906660D01*
X129152354Y-65171794D01*
X129024256Y-65467602D01*
X128999876Y-65589566D01*
X113630124Y-65589566D01*
X113605744Y-65467602D01*
X113477646Y-65171794D01*
X113294300Y-64906660D01*
X113062752Y-64682390D01*
X112791900Y-64507602D01*
X112492153Y-64389013D01*
X112175030Y-64331181D01*
X111917000Y-64488984D01*
X111663000Y-64488984D01*
X111404970Y-64331181D01*
X111087847Y-64389013D01*
X110788100Y-64507602D01*
X110517248Y-64682390D01*
X110285700Y-64906660D01*
X110102354Y-65171794D01*
X109974256Y-65467602D01*
X109949876Y-65589566D01*
X94580124Y-65589566D01*
X94555744Y-65467602D01*
X94427646Y-65171794D01*
X94244300Y-64906660D01*
X94012752Y-64682390D01*
X93741900Y-64507602D01*
X93442153Y-64389013D01*
X93125030Y-64331181D01*
X92867000Y-64488984D01*
X92613000Y-64488984D01*
X92354970Y-64331181D01*
X92037847Y-64389013D01*
X91738100Y-64507602D01*
X91467248Y-64682390D01*
X91235700Y-64906660D01*
X91052354Y-65171794D01*
X90924256Y-65467602D01*
X90899876Y-65589566D01*
X75470130Y-65589566D01*
X75455744Y-65517602D01*
X75327646Y-65221794D01*
X75144300Y-64956660D01*
X74912752Y-64732390D01*
X74641900Y-64557602D01*
X74342153Y-64439013D01*
X74025030Y-64381181D01*
X73767000Y-64538984D01*
X73513000Y-64538984D01*
X73254970Y-64381181D01*
X72937847Y-64439013D01*
X72638100Y-64557602D01*
X72367248Y-64732390D01*
X72135700Y-64956660D01*
X71952354Y-65221794D01*
X71824256Y-65517602D01*
X71799876Y-65639566D01*
X58262435Y-65639566D01*
X58201457Y-65614308D01*
X58214423Y-65609636D01*
X58330380Y-65547656D01*
X58397360Y-65307565D01*
X57611400Y-64521605D01*
X56825440Y-65307565D01*
X56892420Y-65547656D01*
X57028160Y-65611485D01*
X56949673Y-65643995D01*
X56720865Y-65796880D01*
X56526280Y-65991465D01*
X56373395Y-66220273D01*
X56268086Y-66474510D01*
X56214400Y-66744408D01*
X43788400Y-66744408D01*
X43734714Y-66474510D01*
X43629405Y-66220273D01*
X43476520Y-65991465D01*
X43281935Y-65796880D01*
X43053127Y-65643995D01*
X42975885Y-65612000D01*
X43053127Y-65580005D01*
X43281935Y-65427120D01*
X43476520Y-65232535D01*
X43629405Y-65003727D01*
X43734714Y-64749490D01*
X43788400Y-64479592D01*
X43788400Y-64414017D01*
X56209490Y-64414017D01*
X56250478Y-64686133D01*
X56343764Y-64945023D01*
X56405744Y-65060980D01*
X56645835Y-65127960D01*
X57431795Y-64342000D01*
X57791005Y-64342000D01*
X58576965Y-65127960D01*
X58817056Y-65060980D01*
X58934156Y-64811952D01*
X59000423Y-64544865D01*
X59013310Y-64269983D01*
X58972322Y-63997867D01*
X58879036Y-63738977D01*
X58817056Y-63623020D01*
X58576965Y-63556040D01*
X57791005Y-64342000D01*
X57431795Y-64342000D01*
X56645835Y-63556040D01*
X56405744Y-63623020D01*
X56288644Y-63872048D01*
X56222377Y-64139135D01*
X56209490Y-64414017D01*
X43788400Y-64414017D01*
X43788400Y-64204408D01*
X43734714Y-63934510D01*
X43629405Y-63680273D01*
X43476520Y-63451465D01*
X43281935Y-63256880D01*
X43053127Y-63103995D01*
X42975885Y-63072000D01*
X43053127Y-63040005D01*
X43281935Y-62887120D01*
X43401490Y-62767565D01*
X56825440Y-62767565D01*
X56892420Y-63007656D01*
X57023044Y-63069079D01*
X57008377Y-63074364D01*
X56892420Y-63136344D01*
X56825440Y-63376435D01*
X57611400Y-64162395D01*
X58397360Y-63376435D01*
X58330380Y-63136344D01*
X58199756Y-63074921D01*
X58214423Y-63069636D01*
X58330380Y-63007656D01*
X58397360Y-62767565D01*
X57611400Y-61981605D01*
X56825440Y-62767565D01*
X43401490Y-62767565D01*
X43476520Y-62692535D01*
X43629405Y-62463727D01*
X43734714Y-62209490D01*
X43788400Y-61939592D01*
X43788400Y-61874017D01*
X56209490Y-61874017D01*
X56250478Y-62146133D01*
X56343764Y-62405023D01*
X56405744Y-62520980D01*
X56645835Y-62587960D01*
X57431795Y-61802000D01*
X57791005Y-61802000D01*
X58576965Y-62587960D01*
X58817056Y-62520980D01*
X58934156Y-62271952D01*
X59000423Y-62004865D01*
X59013310Y-61729983D01*
X58972322Y-61457867D01*
X58879036Y-61198977D01*
X58817056Y-61083020D01*
X58576965Y-61016040D01*
X57791005Y-61802000D01*
X57431795Y-61802000D01*
X56645835Y-61016040D01*
X56405744Y-61083020D01*
X56288644Y-61332048D01*
X56222377Y-61599135D01*
X56209490Y-61874017D01*
X43788400Y-61874017D01*
X43788400Y-61664408D01*
X43734714Y-61394510D01*
X43629405Y-61140273D01*
X43476520Y-60911465D01*
X43281935Y-60716880D01*
X43053127Y-60563995D01*
X42981457Y-60534308D01*
X42994423Y-60529636D01*
X43110380Y-60467656D01*
X43177360Y-60227565D01*
X42391400Y-59441605D01*
X41605440Y-60227565D01*
X41672420Y-60467656D01*
X41808160Y-60531485D01*
X41729673Y-60563995D01*
X41500865Y-60716880D01*
X41306280Y-60911465D01*
X41153395Y-61140273D01*
X41048086Y-61394510D01*
X40994400Y-61664408D01*
X40660000Y-61664408D01*
X40660000Y-59334017D01*
X40989490Y-59334017D01*
X41030478Y-59606133D01*
X41123764Y-59865023D01*
X41185744Y-59980980D01*
X41425835Y-60047960D01*
X42211795Y-59262000D01*
X42571005Y-59262000D01*
X43356965Y-60047960D01*
X43597056Y-59980980D01*
X43714156Y-59731952D01*
X43780423Y-59464865D01*
X43793310Y-59189983D01*
X43752322Y-58917867D01*
X43659036Y-58658977D01*
X43597056Y-58543020D01*
X43356965Y-58476040D01*
X42571005Y-59262000D01*
X42211795Y-59262000D01*
X41425835Y-58476040D01*
X41185744Y-58543020D01*
X41068644Y-58792048D01*
X41002377Y-59059135D01*
X40989490Y-59334017D01*
X40660000Y-59334017D01*
X40660000Y-56584408D01*
X40994400Y-56584408D01*
X40994400Y-56859592D01*
X41048086Y-57129490D01*
X41153395Y-57383727D01*
X41306280Y-57612535D01*
X41500865Y-57807120D01*
X41729673Y-57960005D01*
X41801343Y-57989692D01*
X41788377Y-57994364D01*
X41672420Y-58056344D01*
X41605440Y-58296435D01*
X42391400Y-59082395D01*
X43177360Y-58296435D01*
X43110380Y-58056344D01*
X42974640Y-57992515D01*
X43053127Y-57960005D01*
X43281935Y-57807120D01*
X43476520Y-57612535D01*
X43629405Y-57383727D01*
X43734714Y-57129490D01*
X43788400Y-56859592D01*
X43788400Y-56584408D01*
X56214400Y-56584408D01*
X56214400Y-56859592D01*
X56268086Y-57129490D01*
X56373395Y-57383727D01*
X56526280Y-57612535D01*
X56720865Y-57807120D01*
X56949673Y-57960005D01*
X57026915Y-57992000D01*
X56949673Y-58023995D01*
X56720865Y-58176880D01*
X56526280Y-58371465D01*
X56373395Y-58600273D01*
X56268086Y-58854510D01*
X56214400Y-59124408D01*
X56214400Y-59399592D01*
X56268086Y-59669490D01*
X56373395Y-59923727D01*
X56526280Y-60152535D01*
X56720865Y-60347120D01*
X56949673Y-60500005D01*
X57021343Y-60529692D01*
X57008377Y-60534364D01*
X56892420Y-60596344D01*
X56825440Y-60836435D01*
X57611400Y-61622395D01*
X58397360Y-60836435D01*
X58330380Y-60596344D01*
X58194640Y-60532515D01*
X58273127Y-60500005D01*
X58501935Y-60347120D01*
X58696520Y-60152535D01*
X58849405Y-59923727D01*
X58954714Y-59669490D01*
X59008400Y-59399592D01*
X59008400Y-59124408D01*
X58954714Y-58854510D01*
X58849405Y-58600273D01*
X58696520Y-58371465D01*
X58501935Y-58176880D01*
X58273127Y-58023995D01*
X58195885Y-57992000D01*
X58273127Y-57960005D01*
X58501935Y-57807120D01*
X58696520Y-57612535D01*
X58849405Y-57383727D01*
X58954714Y-57129490D01*
X59008400Y-56859592D01*
X59008400Y-56584408D01*
X58954714Y-56314510D01*
X58849405Y-56060273D01*
X58696520Y-55831465D01*
X58501935Y-55636880D01*
X58273127Y-55483995D01*
X58018890Y-55378686D01*
X57748992Y-55325000D01*
X57473808Y-55325000D01*
X57203910Y-55378686D01*
X56949673Y-55483995D01*
X56720865Y-55636880D01*
X56526280Y-55831465D01*
X56373395Y-56060273D01*
X56268086Y-56314510D01*
X56214400Y-56584408D01*
X43788400Y-56584408D01*
X43734714Y-56314510D01*
X43629405Y-56060273D01*
X43476520Y-55831465D01*
X43281935Y-55636880D01*
X43053127Y-55483995D01*
X42798890Y-55378686D01*
X42528992Y-55325000D01*
X42253808Y-55325000D01*
X41983910Y-55378686D01*
X41729673Y-55483995D01*
X41500865Y-55636880D01*
X41306280Y-55831465D01*
X41153395Y-56060273D01*
X41048086Y-56314510D01*
X40994400Y-56584408D01*
X40660000Y-56584408D01*
X40660000Y-52032279D01*
X40688625Y-51740341D01*
X40764035Y-51490571D01*
X40886522Y-51260208D01*
X41051422Y-51058020D01*
X41252450Y-50891714D01*
X41481954Y-50767622D01*
X41731195Y-50690469D01*
X42021088Y-50660000D01*
X137967721Y-50660000D01*
X138259659Y-50688625D01*
X138259659Y-50688625D01*
G37*
X138259659Y-50688625D02*
X138509429Y-50764035D01*
X138739792Y-50886522D01*
X138941980Y-51051422D01*
X139108286Y-51252450D01*
X139232378Y-51481954D01*
X139309531Y-51731195D01*
X139340000Y-52021088D01*
X139340001Y-107967711D01*
X139311375Y-108259660D01*
X139235965Y-108509429D01*
X139113477Y-108739794D01*
X138948579Y-108941979D01*
X138747546Y-109108288D01*
X138518046Y-109232378D01*
X138268805Y-109309531D01*
X137978911Y-109340000D01*
X42032279Y-109340000D01*
X41740340Y-109311375D01*
X41490571Y-109235965D01*
X41260206Y-109113477D01*
X41058021Y-108948579D01*
X40891712Y-108747546D01*
X40767622Y-108518046D01*
X40690469Y-108268805D01*
X40660000Y-107978911D01*
X40660000Y-93538967D01*
X45015000Y-93538967D01*
X45015000Y-93861033D01*
X45077832Y-94176912D01*
X45201082Y-94474463D01*
X45380013Y-94742252D01*
X45607748Y-94969987D01*
X45875537Y-95148918D01*
X46173088Y-95272168D01*
X46488967Y-95335000D01*
X46811033Y-95335000D01*
X47126912Y-95272168D01*
X47424463Y-95148918D01*
X47692252Y-94969987D01*
X47826826Y-94835413D01*
X52194192Y-94835413D01*
X52289956Y-95099814D01*
X52579571Y-95240704D01*
X52891108Y-95322384D01*
X53212595Y-95341718D01*
X53531675Y-95297961D01*
X53836088Y-95192795D01*
X54010044Y-95099814D01*
X54105808Y-94835413D01*
X53150000Y-93879605D01*
X52194192Y-94835413D01*
X47826826Y-94835413D01*
X47919987Y-94742252D01*
X48098918Y-94474463D01*
X48222168Y-94176912D01*
X48285000Y-93861033D01*
X48285000Y-93762595D01*
X51508282Y-93762595D01*
X51552039Y-94081675D01*
X51657205Y-94386088D01*
X51750186Y-94560044D01*
X52014587Y-94655808D01*
X52970395Y-93700000D01*
X53329605Y-93700000D01*
X54285413Y-94655808D01*
X54549814Y-94560044D01*
X54690704Y-94270429D01*
X54772384Y-93958892D01*
X54791718Y-93637405D01*
X54747961Y-93318325D01*
X54642795Y-93013912D01*
X54549814Y-92839956D01*
X54285413Y-92744192D01*
X53329605Y-93700000D01*
X52970395Y-93700000D01*
X52014587Y-92744192D01*
X51750186Y-92839956D01*
X51609296Y-93129571D01*
X51527616Y-93441108D01*
X51508282Y-93762595D01*
X48285000Y-93762595D01*
X48285000Y-93538967D01*
X48222168Y-93223088D01*
X48098918Y-92925537D01*
X47919987Y-92657748D01*
X47826826Y-92564587D01*
X52194192Y-92564587D01*
X53150000Y-93520395D01*
X54105808Y-92564587D01*
X54010044Y-92300186D01*
X53720429Y-92159296D01*
X53408892Y-92077616D01*
X53087405Y-92058282D01*
X52768325Y-92102039D01*
X52463912Y-92207205D01*
X52289956Y-92300186D01*
X52194192Y-92564587D01*
X47826826Y-92564587D01*
X47692252Y-92430013D01*
X47424463Y-92251082D01*
X47126912Y-92127832D01*
X46811033Y-92065000D01*
X46488967Y-92065000D01*
X46173088Y-92127832D01*
X45875537Y-92251082D01*
X45607748Y-92430013D01*
X45380013Y-92657748D01*
X45201082Y-92925537D01*
X45077832Y-93223088D01*
X45015000Y-93538967D01*
X40660000Y-93538967D01*
X40660000Y-89943891D01*
X64065000Y-89943891D01*
X64065000Y-90256109D01*
X64125911Y-90562327D01*
X64245391Y-90850779D01*
X64418850Y-91110379D01*
X64639621Y-91331150D01*
X64899221Y-91504609D01*
X65187673Y-91624089D01*
X65493891Y-91685000D01*
X65806109Y-91685000D01*
X66112327Y-91624089D01*
X66400779Y-91504609D01*
X66660379Y-91331150D01*
X66881150Y-91110379D01*
X67054609Y-90850779D01*
X67174089Y-90562327D01*
X67235000Y-90256109D01*
X67235000Y-89943891D01*
X67214430Y-89840475D01*
X68515000Y-89840475D01*
X68515000Y-90359525D01*
X68616261Y-90868601D01*
X68814893Y-91348141D01*
X69103262Y-91779715D01*
X69470285Y-92146738D01*
X69901859Y-92435107D01*
X70381399Y-92633739D01*
X70890475Y-92735000D01*
X71409525Y-92735000D01*
X71918601Y-92633739D01*
X72398141Y-92435107D01*
X72829715Y-92146738D01*
X73196738Y-91779715D01*
X73485107Y-91348141D01*
X73683739Y-90868601D01*
X73785000Y-90359525D01*
X73785000Y-89943891D01*
X75065000Y-89943891D01*
X75065000Y-90256109D01*
X75125911Y-90562327D01*
X75245391Y-90850779D01*
X75418850Y-91110379D01*
X75639621Y-91331150D01*
X75899221Y-91504609D01*
X76187673Y-91624089D01*
X76493891Y-91685000D01*
X76806109Y-91685000D01*
X77112327Y-91624089D01*
X77400779Y-91504609D01*
X77660379Y-91331150D01*
X77881150Y-91110379D01*
X78054609Y-90850779D01*
X78174089Y-90562327D01*
X78235000Y-90256109D01*
X78235000Y-89943891D01*
X83115000Y-89943891D01*
X83115000Y-90256109D01*
X83175911Y-90562327D01*
X83295391Y-90850779D01*
X83468850Y-91110379D01*
X83689621Y-91331150D01*
X83949221Y-91504609D01*
X84237673Y-91624089D01*
X84543891Y-91685000D01*
X84856109Y-91685000D01*
X85162327Y-91624089D01*
X85450779Y-91504609D01*
X85710379Y-91331150D01*
X85931150Y-91110379D01*
X86104609Y-90850779D01*
X86224089Y-90562327D01*
X86285000Y-90256109D01*
X86285000Y-89943891D01*
X86264430Y-89840475D01*
X87565000Y-89840475D01*
X87565000Y-90359525D01*
X87666261Y-90868601D01*
X87864893Y-91348141D01*
X88153262Y-91779715D01*
X88520285Y-92146738D01*
X88951859Y-92435107D01*
X89431399Y-92633739D01*
X89940475Y-92735000D01*
X90459525Y-92735000D01*
X90968601Y-92633739D01*
X91448141Y-92435107D01*
X91879715Y-92146738D01*
X92246738Y-91779715D01*
X92535107Y-91348141D01*
X92733739Y-90868601D01*
X92835000Y-90359525D01*
X92835000Y-89943891D01*
X94115000Y-89943891D01*
X94115000Y-90256109D01*
X94175911Y-90562327D01*
X94295391Y-90850779D01*
X94468850Y-91110379D01*
X94689621Y-91331150D01*
X94949221Y-91504609D01*
X95237673Y-91624089D01*
X95543891Y-91685000D01*
X95856109Y-91685000D01*
X96162327Y-91624089D01*
X96450779Y-91504609D01*
X96710379Y-91331150D01*
X96931150Y-91110379D01*
X97104609Y-90850779D01*
X97224089Y-90562327D01*
X97285000Y-90256109D01*
X97285000Y-89943891D01*
X102165000Y-89943891D01*
X102165000Y-90256109D01*
X102225911Y-90562327D01*
X102345391Y-90850779D01*
X102518850Y-91110379D01*
X102739621Y-91331150D01*
X102999221Y-91504609D01*
X103287673Y-91624089D01*
X103593891Y-91685000D01*
X103906109Y-91685000D01*
X104212327Y-91624089D01*
X104500779Y-91504609D01*
X104760379Y-91331150D01*
X104981150Y-91110379D01*
X105154609Y-90850779D01*
X105274089Y-90562327D01*
X105335000Y-90256109D01*
X105335000Y-89943891D01*
X105314430Y-89840475D01*
X106615000Y-89840475D01*
X106615000Y-90359525D01*
X106716261Y-90868601D01*
X106914893Y-91348141D01*
X107203262Y-91779715D01*
X107570285Y-92146738D01*
X108001859Y-92435107D01*
X108481399Y-92633739D01*
X108990475Y-92735000D01*
X109509525Y-92735000D01*
X110018601Y-92633739D01*
X110498141Y-92435107D01*
X110929715Y-92146738D01*
X111296738Y-91779715D01*
X111585107Y-91348141D01*
X111783739Y-90868601D01*
X111885000Y-90359525D01*
X111885000Y-89943891D01*
X113165000Y-89943891D01*
X113165000Y-90256109D01*
X113225911Y-90562327D01*
X113345391Y-90850779D01*
X113518850Y-91110379D01*
X113739621Y-91331150D01*
X113999221Y-91504609D01*
X114287673Y-91624089D01*
X114593891Y-91685000D01*
X114906109Y-91685000D01*
X115212327Y-91624089D01*
X115500779Y-91504609D01*
X115760379Y-91331150D01*
X115981150Y-91110379D01*
X116154609Y-90850779D01*
X116274089Y-90562327D01*
X116335000Y-90256109D01*
X116335000Y-89943891D01*
X121215000Y-89943891D01*
X121215000Y-90256109D01*
X121275911Y-90562327D01*
X121395391Y-90850779D01*
X121568850Y-91110379D01*
X121789621Y-91331150D01*
X122049221Y-91504609D01*
X122337673Y-91624089D01*
X122643891Y-91685000D01*
X122956109Y-91685000D01*
X123262327Y-91624089D01*
X123550779Y-91504609D01*
X123810379Y-91331150D01*
X124031150Y-91110379D01*
X124204609Y-90850779D01*
X124324089Y-90562327D01*
X124385000Y-90256109D01*
X124385000Y-89943891D01*
X124364430Y-89840475D01*
X125665000Y-89840475D01*
X125665000Y-90359525D01*
X125766261Y-90868601D01*
X125964893Y-91348141D01*
X126253262Y-91779715D01*
X126620285Y-92146738D01*
X127051859Y-92435107D01*
X127531399Y-92633739D01*
X128040475Y-92735000D01*
X128559525Y-92735000D01*
X129068601Y-92633739D01*
X129548141Y-92435107D01*
X129979715Y-92146738D01*
X130346738Y-91779715D01*
X130635107Y-91348141D01*
X130833739Y-90868601D01*
X130935000Y-90359525D01*
X130935000Y-89943891D01*
X132215000Y-89943891D01*
X132215000Y-90256109D01*
X132275911Y-90562327D01*
X132395391Y-90850779D01*
X132568850Y-91110379D01*
X132789621Y-91331150D01*
X133049221Y-91504609D01*
X133337673Y-91624089D01*
X133643891Y-91685000D01*
X133956109Y-91685000D01*
X134262327Y-91624089D01*
X134550779Y-91504609D01*
X134810379Y-91331150D01*
X135031150Y-91110379D01*
X135204609Y-90850779D01*
X135324089Y-90562327D01*
X135385000Y-90256109D01*
X135385000Y-89943891D01*
X135324089Y-89637673D01*
X135204609Y-89349221D01*
X135031150Y-89089621D01*
X134810379Y-88868850D01*
X134550779Y-88695391D01*
X134262327Y-88575911D01*
X133956109Y-88515000D01*
X133643891Y-88515000D01*
X133337673Y-88575911D01*
X133049221Y-88695391D01*
X132789621Y-88868850D01*
X132568850Y-89089621D01*
X132395391Y-89349221D01*
X132275911Y-89637673D01*
X132215000Y-89943891D01*
X130935000Y-89943891D01*
X130935000Y-89840475D01*
X130833739Y-89331399D01*
X130635107Y-88851859D01*
X130346738Y-88420285D01*
X129979715Y-88053262D01*
X129548141Y-87764893D01*
X129068601Y-87566261D01*
X128559525Y-87465000D01*
X128040475Y-87465000D01*
X127531399Y-87566261D01*
X127051859Y-87764893D01*
X126620285Y-88053262D01*
X126253262Y-88420285D01*
X125964893Y-88851859D01*
X125766261Y-89331399D01*
X125665000Y-89840475D01*
X124364430Y-89840475D01*
X124324089Y-89637673D01*
X124204609Y-89349221D01*
X124097468Y-89188873D01*
X124159678Y-89195000D01*
X124820322Y-89195000D01*
X125060516Y-89171343D01*
X125368715Y-89077852D01*
X125652752Y-88926031D01*
X125901714Y-88721714D01*
X126106031Y-88472752D01*
X126257852Y-88188715D01*
X126351343Y-87880516D01*
X126382911Y-87560000D01*
X126351343Y-87239484D01*
X126257852Y-86931285D01*
X126106031Y-86647248D01*
X125901714Y-86398286D01*
X125652752Y-86193969D01*
X125368715Y-86042148D01*
X125060516Y-85948657D01*
X124820322Y-85925000D01*
X124159678Y-85925000D01*
X123919484Y-85948657D01*
X123611285Y-86042148D01*
X123327248Y-86193969D01*
X123078286Y-86398286D01*
X122873969Y-86647248D01*
X122722148Y-86931285D01*
X122628657Y-87239484D01*
X122597089Y-87560000D01*
X122628657Y-87880516D01*
X122722148Y-88188715D01*
X122873969Y-88472752D01*
X122908641Y-88515000D01*
X122643891Y-88515000D01*
X122337673Y-88575911D01*
X122049221Y-88695391D01*
X121789621Y-88868850D01*
X121568850Y-89089621D01*
X121395391Y-89349221D01*
X121275911Y-89637673D01*
X121215000Y-89943891D01*
X116335000Y-89943891D01*
X116274089Y-89637673D01*
X116154609Y-89349221D01*
X115981150Y-89089621D01*
X115760379Y-88868850D01*
X115500779Y-88695391D01*
X115212327Y-88575911D01*
X114906109Y-88515000D01*
X114593891Y-88515000D01*
X114287673Y-88575911D01*
X113999221Y-88695391D01*
X113739621Y-88868850D01*
X113518850Y-89089621D01*
X113345391Y-89349221D01*
X113225911Y-89637673D01*
X113165000Y-89943891D01*
X111885000Y-89943891D01*
X111885000Y-89840475D01*
X111783739Y-89331399D01*
X111585107Y-88851859D01*
X111296738Y-88420285D01*
X110929715Y-88053262D01*
X110498141Y-87764893D01*
X110018601Y-87566261D01*
X109509525Y-87465000D01*
X108990475Y-87465000D01*
X108481399Y-87566261D01*
X108001859Y-87764893D01*
X107570285Y-88053262D01*
X107203262Y-88420285D01*
X106914893Y-88851859D01*
X106716261Y-89331399D01*
X106615000Y-89840475D01*
X105314430Y-89840475D01*
X105274089Y-89637673D01*
X105154609Y-89349221D01*
X105047468Y-89188873D01*
X105109678Y-89195000D01*
X105770322Y-89195000D01*
X106010516Y-89171343D01*
X106318715Y-89077852D01*
X106602752Y-88926031D01*
X106851714Y-88721714D01*
X107056031Y-88472752D01*
X107207852Y-88188715D01*
X107301343Y-87880516D01*
X107332911Y-87560000D01*
X107301343Y-87239484D01*
X107207852Y-86931285D01*
X107056031Y-86647248D01*
X106851714Y-86398286D01*
X106602752Y-86193969D01*
X106318715Y-86042148D01*
X106010516Y-85948657D01*
X105770322Y-85925000D01*
X105109678Y-85925000D01*
X104869484Y-85948657D01*
X104561285Y-86042148D01*
X104277248Y-86193969D01*
X104028286Y-86398286D01*
X103823969Y-86647248D01*
X103672148Y-86931285D01*
X103578657Y-87239484D01*
X103547089Y-87560000D01*
X103578657Y-87880516D01*
X103672148Y-88188715D01*
X103823969Y-88472752D01*
X103858641Y-88515000D01*
X103593891Y-88515000D01*
X103287673Y-88575911D01*
X102999221Y-88695391D01*
X102739621Y-88868850D01*
X102518850Y-89089621D01*
X102345391Y-89349221D01*
X102225911Y-89637673D01*
X102165000Y-89943891D01*
X97285000Y-89943891D01*
X97224089Y-89637673D01*
X97104609Y-89349221D01*
X96931150Y-89089621D01*
X96710379Y-88868850D01*
X96450779Y-88695391D01*
X96162327Y-88575911D01*
X95856109Y-88515000D01*
X95543891Y-88515000D01*
X95237673Y-88575911D01*
X94949221Y-88695391D01*
X94689621Y-88868850D01*
X94468850Y-89089621D01*
X94295391Y-89349221D01*
X94175911Y-89637673D01*
X94115000Y-89943891D01*
X92835000Y-89943891D01*
X92835000Y-89840475D01*
X92733739Y-89331399D01*
X92535107Y-88851859D01*
X92246738Y-88420285D01*
X91879715Y-88053262D01*
X91448141Y-87764893D01*
X90968601Y-87566261D01*
X90459525Y-87465000D01*
X89940475Y-87465000D01*
X89431399Y-87566261D01*
X88951859Y-87764893D01*
X88520285Y-88053262D01*
X88153262Y-88420285D01*
X87864893Y-88851859D01*
X87666261Y-89331399D01*
X87565000Y-89840475D01*
X86264430Y-89840475D01*
X86224089Y-89637673D01*
X86104609Y-89349221D01*
X85997468Y-89188873D01*
X86059678Y-89195000D01*
X86720322Y-89195000D01*
X86960516Y-89171343D01*
X87268715Y-89077852D01*
X87552752Y-88926031D01*
X87801714Y-88721714D01*
X88006031Y-88472752D01*
X88157852Y-88188715D01*
X88251343Y-87880516D01*
X88282911Y-87560000D01*
X88251343Y-87239484D01*
X88157852Y-86931285D01*
X88006031Y-86647248D01*
X87801714Y-86398286D01*
X87552752Y-86193969D01*
X87268715Y-86042148D01*
X86960516Y-85948657D01*
X86720322Y-85925000D01*
X86059678Y-85925000D01*
X85819484Y-85948657D01*
X85511285Y-86042148D01*
X85227248Y-86193969D01*
X84978286Y-86398286D01*
X84773969Y-86647248D01*
X84622148Y-86931285D01*
X84528657Y-87239484D01*
X84497089Y-87560000D01*
X84528657Y-87880516D01*
X84622148Y-88188715D01*
X84773969Y-88472752D01*
X84808641Y-88515000D01*
X84543891Y-88515000D01*
X84237673Y-88575911D01*
X83949221Y-88695391D01*
X83689621Y-88868850D01*
X83468850Y-89089621D01*
X83295391Y-89349221D01*
X83175911Y-89637673D01*
X83115000Y-89943891D01*
X78235000Y-89943891D01*
X78174089Y-89637673D01*
X78054609Y-89349221D01*
X77881150Y-89089621D01*
X77660379Y-88868850D01*
X77400779Y-88695391D01*
X77112327Y-88575911D01*
X76806109Y-88515000D01*
X76493891Y-88515000D01*
X76187673Y-88575911D01*
X75899221Y-88695391D01*
X75639621Y-88868850D01*
X75418850Y-89089621D01*
X75245391Y-89349221D01*
X75125911Y-89637673D01*
X75065000Y-89943891D01*
X73785000Y-89943891D01*
X73785000Y-89840475D01*
X73683739Y-89331399D01*
X73485107Y-88851859D01*
X73196738Y-88420285D01*
X72829715Y-88053262D01*
X72398141Y-87764893D01*
X71918601Y-87566261D01*
X71409525Y-87465000D01*
X70890475Y-87465000D01*
X70381399Y-87566261D01*
X69901859Y-87764893D01*
X69470285Y-88053262D01*
X69103262Y-88420285D01*
X68814893Y-88851859D01*
X68616261Y-89331399D01*
X68515000Y-89840475D01*
X67214430Y-89840475D01*
X67174089Y-89637673D01*
X67054609Y-89349221D01*
X66947468Y-89188873D01*
X67009678Y-89195000D01*
X67670322Y-89195000D01*
X67910516Y-89171343D01*
X68218715Y-89077852D01*
X68502752Y-88926031D01*
X68751714Y-88721714D01*
X68956031Y-88472752D01*
X69107852Y-88188715D01*
X69201343Y-87880516D01*
X69232911Y-87560000D01*
X69201343Y-87239484D01*
X69107852Y-86931285D01*
X68956031Y-86647248D01*
X68751714Y-86398286D01*
X68502752Y-86193969D01*
X68218715Y-86042148D01*
X67910516Y-85948657D01*
X67670322Y-85925000D01*
X67009678Y-85925000D01*
X66769484Y-85948657D01*
X66461285Y-86042148D01*
X66177248Y-86193969D01*
X65928286Y-86398286D01*
X65723969Y-86647248D01*
X65572148Y-86931285D01*
X65478657Y-87239484D01*
X65447089Y-87560000D01*
X65478657Y-87880516D01*
X65572148Y-88188715D01*
X65723969Y-88472752D01*
X65758641Y-88515000D01*
X65493891Y-88515000D01*
X65187673Y-88575911D01*
X64899221Y-88695391D01*
X64639621Y-88868850D01*
X64418850Y-89089621D01*
X64245391Y-89349221D01*
X64125911Y-89637673D01*
X64065000Y-89943891D01*
X40660000Y-89943891D01*
X40660000Y-61664408D01*
X40994400Y-61664408D01*
X40994400Y-61939592D01*
X41048086Y-62209490D01*
X41153395Y-62463727D01*
X41306280Y-62692535D01*
X41500865Y-62887120D01*
X41729673Y-63040005D01*
X41806915Y-63072000D01*
X41729673Y-63103995D01*
X41500865Y-63256880D01*
X41306280Y-63451465D01*
X41153395Y-63680273D01*
X41048086Y-63934510D01*
X40994400Y-64204408D01*
X40994400Y-64479592D01*
X41048086Y-64749490D01*
X41153395Y-65003727D01*
X41306280Y-65232535D01*
X41500865Y-65427120D01*
X41729673Y-65580005D01*
X41806915Y-65612000D01*
X41729673Y-65643995D01*
X41500865Y-65796880D01*
X41306280Y-65991465D01*
X41153395Y-66220273D01*
X41048086Y-66474510D01*
X40994400Y-66744408D01*
X40994400Y-67019592D01*
X41048086Y-67289490D01*
X41153395Y-67543727D01*
X41306280Y-67772535D01*
X41500865Y-67967120D01*
X41729673Y-68120005D01*
X41806915Y-68152000D01*
X41729673Y-68183995D01*
X41500865Y-68336880D01*
X41306280Y-68531465D01*
X41153395Y-68760273D01*
X41048086Y-69014510D01*
X40994400Y-69284408D01*
X40994400Y-69559592D01*
X41048086Y-69829490D01*
X41153395Y-70083727D01*
X41306280Y-70312535D01*
X41500865Y-70507120D01*
X41729673Y-70660005D01*
X41806915Y-70692000D01*
X41729673Y-70723995D01*
X41500865Y-70876880D01*
X41306280Y-71071465D01*
X41153395Y-71300273D01*
X41048086Y-71554510D01*
X40994400Y-71824408D01*
X40994400Y-72099592D01*
X41048086Y-72369490D01*
X41153395Y-72623727D01*
X41306280Y-72852535D01*
X41500865Y-73047120D01*
X41729673Y-73200005D01*
X41806915Y-73232000D01*
X41729673Y-73263995D01*
X41500865Y-73416880D01*
X41306280Y-73611465D01*
X41153395Y-73840273D01*
X41048086Y-74094510D01*
X40994400Y-74364408D01*
X40994400Y-74639592D01*
X41048086Y-74909490D01*
X41153395Y-75163727D01*
X41306280Y-75392535D01*
X41500865Y-75587120D01*
X41729673Y-75740005D01*
X41806915Y-75772000D01*
X41729673Y-75803995D01*
X41500865Y-75956880D01*
X41306280Y-76151465D01*
X41153395Y-76380273D01*
X41048086Y-76634510D01*
X40994400Y-76904408D01*
X40994400Y-77179592D01*
X41048086Y-77449490D01*
X41153395Y-77703727D01*
X41306280Y-77932535D01*
X41500865Y-78127120D01*
X41729673Y-78280005D01*
X41806915Y-78312000D01*
X41729673Y-78343995D01*
X41500865Y-78496880D01*
X41306280Y-78691465D01*
X41153395Y-78920273D01*
X41048086Y-79174510D01*
X40994400Y-79444408D01*
X40994400Y-79719592D01*
X41048086Y-79989490D01*
X41153395Y-80243727D01*
X41306280Y-80472535D01*
X41500865Y-80667120D01*
X41729673Y-80820005D01*
X41806915Y-80852000D01*
X41729673Y-80883995D01*
X41500865Y-81036880D01*
X41306280Y-81231465D01*
X41153395Y-81460273D01*
X41048086Y-81714510D01*
X40994400Y-81984408D01*
X40994400Y-82259592D01*
X41048086Y-82529490D01*
X41153395Y-82783727D01*
X41306280Y-83012535D01*
X41500865Y-83207120D01*
X41729673Y-83360005D01*
X41806915Y-83392000D01*
X41729673Y-83423995D01*
X41500865Y-83576880D01*
X41306280Y-83771465D01*
X41153395Y-84000273D01*
X41048086Y-84254510D01*
X40994400Y-84524408D01*
X40994400Y-84799592D01*
X41048086Y-85069490D01*
X41153395Y-85323727D01*
X41306280Y-85552535D01*
X41500865Y-85747120D01*
X41729673Y-85900005D01*
X41983910Y-86005314D01*
X42253808Y-86059000D01*
X42528992Y-86059000D01*
X42798890Y-86005314D01*
X43053127Y-85900005D01*
X43281935Y-85747120D01*
X43476520Y-85552535D01*
X43629405Y-85323727D01*
X43734714Y-85069490D01*
X43788400Y-84799592D01*
X43788400Y-84524408D01*
X43734714Y-84254510D01*
X43629405Y-84000273D01*
X43476520Y-83771465D01*
X43281935Y-83576880D01*
X43053127Y-83423995D01*
X42975885Y-83392000D01*
X43053127Y-83360005D01*
X43281935Y-83207120D01*
X43476520Y-83012535D01*
X43629405Y-82783727D01*
X43734714Y-82529490D01*
X43788400Y-82259592D01*
X43788400Y-81984408D01*
X43734714Y-81714510D01*
X43629405Y-81460273D01*
X43476520Y-81231465D01*
X43281935Y-81036880D01*
X43053127Y-80883995D01*
X42975885Y-80852000D01*
X43053127Y-80820005D01*
X43281935Y-80667120D01*
X43476520Y-80472535D01*
X43629405Y-80243727D01*
X43734714Y-79989490D01*
X43788400Y-79719592D01*
X43788400Y-79444408D01*
X43734714Y-79174510D01*
X43629405Y-78920273D01*
X43476520Y-78691465D01*
X43281935Y-78496880D01*
X43053127Y-78343995D01*
X42975885Y-78312000D01*
X43053127Y-78280005D01*
X43281935Y-78127120D01*
X43476520Y-77932535D01*
X43629405Y-77703727D01*
X43734714Y-77449490D01*
X43788400Y-77179592D01*
X43788400Y-76904408D01*
X43734714Y-76634510D01*
X43629405Y-76380273D01*
X43476520Y-76151465D01*
X43281935Y-75956880D01*
X43053127Y-75803995D01*
X42975885Y-75772000D01*
X43053127Y-75740005D01*
X43281935Y-75587120D01*
X43476520Y-75392535D01*
X43629405Y-75163727D01*
X43734714Y-74909490D01*
X43788400Y-74639592D01*
X43788400Y-74364408D01*
X43734714Y-74094510D01*
X43629405Y-73840273D01*
X43476520Y-73611465D01*
X43281935Y-73416880D01*
X43053127Y-73263995D01*
X42975885Y-73232000D01*
X43053127Y-73200005D01*
X43281935Y-73047120D01*
X43476520Y-72852535D01*
X43629405Y-72623727D01*
X43734714Y-72369490D01*
X43788400Y-72099592D01*
X43788400Y-71824408D01*
X43734714Y-71554510D01*
X43629405Y-71300273D01*
X43476520Y-71071465D01*
X43281935Y-70876880D01*
X43053127Y-70723995D01*
X42975885Y-70692000D01*
X43053127Y-70660005D01*
X43281935Y-70507120D01*
X43476520Y-70312535D01*
X43629405Y-70083727D01*
X43734714Y-69829490D01*
X43788400Y-69559592D01*
X43788400Y-69284408D01*
X43734714Y-69014510D01*
X43629405Y-68760273D01*
X43476520Y-68531465D01*
X43281935Y-68336880D01*
X43053127Y-68183995D01*
X42975885Y-68152000D01*
X43053127Y-68120005D01*
X43281935Y-67967120D01*
X43476520Y-67772535D01*
X43629405Y-67543727D01*
X43734714Y-67289490D01*
X43788400Y-67019592D01*
X43788400Y-66744408D01*
X56214400Y-66744408D01*
X56214400Y-67019592D01*
X56268086Y-67289490D01*
X56373395Y-67543727D01*
X56526280Y-67772535D01*
X56720865Y-67967120D01*
X56949673Y-68120005D01*
X57026915Y-68152000D01*
X56949673Y-68183995D01*
X56720865Y-68336880D01*
X56526280Y-68531465D01*
X56373395Y-68760273D01*
X56268086Y-69014510D01*
X56214400Y-69284408D01*
X56214400Y-69559592D01*
X56268086Y-69829490D01*
X56373395Y-70083727D01*
X56526280Y-70312535D01*
X56720865Y-70507120D01*
X56949673Y-70660005D01*
X57026915Y-70692000D01*
X56949673Y-70723995D01*
X56720865Y-70876880D01*
X56526280Y-71071465D01*
X56373395Y-71300273D01*
X56268086Y-71554510D01*
X56214400Y-71824408D01*
X56214400Y-72099592D01*
X56268086Y-72369490D01*
X56373395Y-72623727D01*
X56526280Y-72852535D01*
X56720865Y-73047120D01*
X56949673Y-73200005D01*
X57026915Y-73232000D01*
X56949673Y-73263995D01*
X56720865Y-73416880D01*
X56526280Y-73611465D01*
X56373395Y-73840273D01*
X56268086Y-74094510D01*
X56214400Y-74364408D01*
X56214400Y-74639592D01*
X56268086Y-74909490D01*
X56373395Y-75163727D01*
X56526280Y-75392535D01*
X56720865Y-75587120D01*
X56949673Y-75740005D01*
X57026915Y-75772000D01*
X56949673Y-75803995D01*
X56720865Y-75956880D01*
X56526280Y-76151465D01*
X56373395Y-76380273D01*
X56268086Y-76634510D01*
X56214400Y-76904408D01*
X56214400Y-77179592D01*
X56268086Y-77449490D01*
X56373395Y-77703727D01*
X56526280Y-77932535D01*
X56720865Y-78127120D01*
X56949673Y-78280005D01*
X57026915Y-78312000D01*
X56949673Y-78343995D01*
X56720865Y-78496880D01*
X56526280Y-78691465D01*
X56373395Y-78920273D01*
X56268086Y-79174510D01*
X56214400Y-79444408D01*
X56214400Y-79719592D01*
X56268086Y-79989490D01*
X56373395Y-80243727D01*
X56526280Y-80472535D01*
X56720865Y-80667120D01*
X56949673Y-80820005D01*
X57026915Y-80852000D01*
X56949673Y-80883995D01*
X56720865Y-81036880D01*
X56526280Y-81231465D01*
X56373395Y-81460273D01*
X56268086Y-81714510D01*
X56214400Y-81984408D01*
X56214400Y-82259592D01*
X56268086Y-82529490D01*
X56373395Y-82783727D01*
X56526280Y-83012535D01*
X56720865Y-83207120D01*
X56949673Y-83360005D01*
X57026915Y-83392000D01*
X56949673Y-83423995D01*
X56720865Y-83576880D01*
X56526280Y-83771465D01*
X56373395Y-84000273D01*
X56268086Y-84254510D01*
X56214400Y-84524408D01*
X56214400Y-84799592D01*
X56268086Y-85069490D01*
X56373395Y-85323727D01*
X56526280Y-85552535D01*
X56720865Y-85747120D01*
X56949673Y-85900005D01*
X57203910Y-86005314D01*
X57473808Y-86059000D01*
X57748992Y-86059000D01*
X58018890Y-86005314D01*
X58273127Y-85900005D01*
X58501935Y-85747120D01*
X58696520Y-85552535D01*
X58798150Y-85400434D01*
X71849876Y-85400434D01*
X71874256Y-85522398D01*
X72002354Y-85818206D01*
X72185700Y-86083340D01*
X72417248Y-86307610D01*
X72688100Y-86482398D01*
X72987847Y-86600987D01*
X73304970Y-86658819D01*
X73563000Y-86501016D01*
X73563000Y-85147000D01*
X73817000Y-85147000D01*
X73817000Y-86501016D01*
X74075030Y-86658819D01*
X74392153Y-86600987D01*
X74691900Y-86482398D01*
X74962752Y-86307610D01*
X75194300Y-86083340D01*
X75377646Y-85818206D01*
X75505744Y-85522398D01*
X75530124Y-85400434D01*
X90899876Y-85400434D01*
X90924256Y-85522398D01*
X91052354Y-85818206D01*
X91235700Y-86083340D01*
X91467248Y-86307610D01*
X91738100Y-86482398D01*
X92037847Y-86600987D01*
X92354970Y-86658819D01*
X92613000Y-86501016D01*
X92613000Y-85147000D01*
X92867000Y-85147000D01*
X92867000Y-86501016D01*
X93125030Y-86658819D01*
X93442153Y-86600987D01*
X93741900Y-86482398D01*
X94012752Y-86307610D01*
X94244300Y-86083340D01*
X94427646Y-85818206D01*
X94555744Y-85522398D01*
X94580124Y-85400434D01*
X109949876Y-85400434D01*
X109974256Y-85522398D01*
X110102354Y-85818206D01*
X110285700Y-86083340D01*
X110517248Y-86307610D01*
X110788100Y-86482398D01*
X111087847Y-86600987D01*
X111404970Y-86658819D01*
X111663000Y-86501016D01*
X111663000Y-85147000D01*
X111917000Y-85147000D01*
X111917000Y-86501016D01*
X112175030Y-86658819D01*
X112492153Y-86600987D01*
X112791900Y-86482398D01*
X113062752Y-86307610D01*
X113294300Y-86083340D01*
X113477646Y-85818206D01*
X113605744Y-85522398D01*
X113630124Y-85400434D01*
X128999876Y-85400434D01*
X129024256Y-85522398D01*
X129152354Y-85818206D01*
X129335700Y-86083340D01*
X129567248Y-86307610D01*
X129838100Y-86482398D01*
X130137847Y-86600987D01*
X130454970Y-86658819D01*
X130713000Y-86501016D01*
X130713000Y-85147000D01*
X130967000Y-85147000D01*
X130967000Y-86501016D01*
X131225030Y-86658819D01*
X131542153Y-86600987D01*
X131841900Y-86482398D01*
X132112752Y-86307610D01*
X132344300Y-86083340D01*
X132527646Y-85818206D01*
X132655744Y-85522398D01*
X132680124Y-85400434D01*
X132560777Y-85147000D01*
X130967000Y-85147000D01*
X130713000Y-85147000D01*
X129119223Y-85147000D01*
X128999876Y-85400434D01*
X113630124Y-85400434D01*
X113510777Y-85147000D01*
X111917000Y-85147000D01*
X111663000Y-85147000D01*
X110069223Y-85147000D01*
X109949876Y-85400434D01*
X94580124Y-85400434D01*
X94460777Y-85147000D01*
X92867000Y-85147000D01*
X92613000Y-85147000D01*
X91019223Y-85147000D01*
X90899876Y-85400434D01*
X75530124Y-85400434D01*
X75410777Y-85147000D01*
X73817000Y-85147000D01*
X73563000Y-85147000D01*
X71969223Y-85147000D01*
X71849876Y-85400434D01*
X58798150Y-85400434D01*
X58849405Y-85323727D01*
X58954714Y-85069490D01*
X59008400Y-84799592D01*
X59008400Y-84639566D01*
X71849876Y-84639566D01*
X71969223Y-84893000D01*
X73563000Y-84893000D01*
X73563000Y-83538984D01*
X73817000Y-83538984D01*
X73817000Y-84893000D01*
X75410777Y-84893000D01*
X75530124Y-84639566D01*
X90899876Y-84639566D01*
X91019223Y-84893000D01*
X92613000Y-84893000D01*
X92613000Y-83538984D01*
X92867000Y-83538984D01*
X92867000Y-84893000D01*
X94460777Y-84893000D01*
X94580124Y-84639566D01*
X109949876Y-84639566D01*
X110069223Y-84893000D01*
X111663000Y-84893000D01*
X111663000Y-83538984D01*
X111917000Y-83538984D01*
X111917000Y-84893000D01*
X113510777Y-84893000D01*
X113630124Y-84639566D01*
X128999876Y-84639566D01*
X129119223Y-84893000D01*
X130713000Y-84893000D01*
X130713000Y-83538984D01*
X130967000Y-83538984D01*
X130967000Y-84893000D01*
X132560777Y-84893000D01*
X132680124Y-84639566D01*
X132655744Y-84517602D01*
X132527646Y-84221794D01*
X132344300Y-83956660D01*
X132112752Y-83732390D01*
X131841900Y-83557602D01*
X131542153Y-83439013D01*
X131225030Y-83381181D01*
X130967000Y-83538984D01*
X130713000Y-83538984D01*
X130454970Y-83381181D01*
X130137847Y-83439013D01*
X129838100Y-83557602D01*
X129567248Y-83732390D01*
X129335700Y-83956660D01*
X129152354Y-84221794D01*
X129024256Y-84517602D01*
X128999876Y-84639566D01*
X113630124Y-84639566D01*
X113605744Y-84517602D01*
X113477646Y-84221794D01*
X113294300Y-83956660D01*
X113062752Y-83732390D01*
X112791900Y-83557602D01*
X112492153Y-83439013D01*
X112175030Y-83381181D01*
X111917000Y-83538984D01*
X111663000Y-83538984D01*
X111404970Y-83381181D01*
X111087847Y-83439013D01*
X110788100Y-83557602D01*
X110517248Y-83732390D01*
X110285700Y-83956660D01*
X110102354Y-84221794D01*
X109974256Y-84517602D01*
X109949876Y-84639566D01*
X94580124Y-84639566D01*
X94555744Y-84517602D01*
X94427646Y-84221794D01*
X94244300Y-83956660D01*
X94012752Y-83732390D01*
X93741900Y-83557602D01*
X93442153Y-83439013D01*
X93125030Y-83381181D01*
X92867000Y-83538984D01*
X92613000Y-83538984D01*
X92354970Y-83381181D01*
X92037847Y-83439013D01*
X91738100Y-83557602D01*
X91467248Y-83732390D01*
X91235700Y-83956660D01*
X91052354Y-84221794D01*
X90924256Y-84517602D01*
X90899876Y-84639566D01*
X75530124Y-84639566D01*
X75505744Y-84517602D01*
X75377646Y-84221794D01*
X75194300Y-83956660D01*
X74962752Y-83732390D01*
X74691900Y-83557602D01*
X74392153Y-83439013D01*
X74075030Y-83381181D01*
X73817000Y-83538984D01*
X73563000Y-83538984D01*
X73304970Y-83381181D01*
X72987847Y-83439013D01*
X72688100Y-83557602D01*
X72417248Y-83732390D01*
X72185700Y-83956660D01*
X72002354Y-84221794D01*
X71874256Y-84517602D01*
X71849876Y-84639566D01*
X59008400Y-84639566D01*
X59008400Y-84524408D01*
X58954714Y-84254510D01*
X58849405Y-84000273D01*
X58696520Y-83771465D01*
X58501935Y-83576880D01*
X58273127Y-83423995D01*
X58195885Y-83392000D01*
X58273127Y-83360005D01*
X58501935Y-83207120D01*
X58696520Y-83012535D01*
X58849405Y-82783727D01*
X58954714Y-82529490D01*
X59008400Y-82259592D01*
X59008400Y-81984408D01*
X58954714Y-81714510D01*
X58849405Y-81460273D01*
X58696520Y-81231465D01*
X58501935Y-81036880D01*
X58273127Y-80883995D01*
X58195885Y-80852000D01*
X58273127Y-80820005D01*
X58501935Y-80667120D01*
X58696520Y-80472535D01*
X58849405Y-80243727D01*
X58954714Y-79989490D01*
X59008400Y-79719592D01*
X59008400Y-79444408D01*
X58954714Y-79174510D01*
X58849405Y-78920273D01*
X58696520Y-78691465D01*
X58501935Y-78496880D01*
X58273127Y-78343995D01*
X58195885Y-78312000D01*
X58273127Y-78280005D01*
X58501935Y-78127120D01*
X58696520Y-77932535D01*
X58849405Y-77703727D01*
X58954714Y-77449490D01*
X59008400Y-77179592D01*
X59008400Y-76904408D01*
X58954714Y-76634510D01*
X58849405Y-76380273D01*
X58696520Y-76151465D01*
X58501935Y-75956880D01*
X58273127Y-75803995D01*
X58195885Y-75772000D01*
X58273127Y-75740005D01*
X58501935Y-75587120D01*
X58696520Y-75392535D01*
X58849405Y-75163727D01*
X58954714Y-74909490D01*
X59008400Y-74639592D01*
X59008400Y-74364408D01*
X58954714Y-74094510D01*
X58849405Y-73840273D01*
X58696520Y-73611465D01*
X58501935Y-73416880D01*
X58273127Y-73263995D01*
X58195885Y-73232000D01*
X58273127Y-73200005D01*
X58501935Y-73047120D01*
X58696520Y-72852535D01*
X58849405Y-72623727D01*
X58954714Y-72369490D01*
X59008400Y-72099592D01*
X59008400Y-71824408D01*
X58954714Y-71554510D01*
X58849405Y-71300273D01*
X58696520Y-71071465D01*
X58568946Y-70943891D01*
X64015000Y-70943891D01*
X64015000Y-71256109D01*
X64075911Y-71562327D01*
X64195391Y-71850779D01*
X64368850Y-72110379D01*
X64589621Y-72331150D01*
X64849221Y-72504609D01*
X65137673Y-72624089D01*
X65443891Y-72685000D01*
X65756109Y-72685000D01*
X66062327Y-72624089D01*
X66350779Y-72504609D01*
X66610379Y-72331150D01*
X66831150Y-72110379D01*
X67004609Y-71850779D01*
X67124089Y-71562327D01*
X67185000Y-71256109D01*
X67185000Y-70943891D01*
X67164430Y-70840475D01*
X68465000Y-70840475D01*
X68465000Y-71359525D01*
X68566261Y-71868601D01*
X68764893Y-72348141D01*
X69053262Y-72779715D01*
X69420285Y-73146738D01*
X69851859Y-73435107D01*
X70331399Y-73633739D01*
X70840475Y-73735000D01*
X71359525Y-73735000D01*
X71868601Y-73633739D01*
X72348141Y-73435107D01*
X72779715Y-73146738D01*
X73146738Y-72779715D01*
X73435107Y-72348141D01*
X73633739Y-71868601D01*
X73735000Y-71359525D01*
X73735000Y-70943891D01*
X75015000Y-70943891D01*
X75015000Y-71256109D01*
X75075911Y-71562327D01*
X75195391Y-71850779D01*
X75368850Y-72110379D01*
X75589621Y-72331150D01*
X75849221Y-72504609D01*
X76137673Y-72624089D01*
X76443891Y-72685000D01*
X76756109Y-72685000D01*
X77062327Y-72624089D01*
X77350779Y-72504609D01*
X77610379Y-72331150D01*
X77831150Y-72110379D01*
X78004609Y-71850779D01*
X78124089Y-71562327D01*
X78185000Y-71256109D01*
X78185000Y-70943891D01*
X78175055Y-70893891D01*
X83115000Y-70893891D01*
X83115000Y-71206109D01*
X83175911Y-71512327D01*
X83295391Y-71800779D01*
X83468850Y-72060379D01*
X83689621Y-72281150D01*
X83949221Y-72454609D01*
X84237673Y-72574089D01*
X84543891Y-72635000D01*
X84856109Y-72635000D01*
X85162327Y-72574089D01*
X85450779Y-72454609D01*
X85710379Y-72281150D01*
X85931150Y-72060379D01*
X86104609Y-71800779D01*
X86224089Y-71512327D01*
X86285000Y-71206109D01*
X86285000Y-70893891D01*
X86264430Y-70790475D01*
X87565000Y-70790475D01*
X87565000Y-71309525D01*
X87666261Y-71818601D01*
X87864893Y-72298141D01*
X88153262Y-72729715D01*
X88520285Y-73096738D01*
X88951859Y-73385107D01*
X89431399Y-73583739D01*
X89940475Y-73685000D01*
X90459525Y-73685000D01*
X90968601Y-73583739D01*
X91448141Y-73385107D01*
X91879715Y-73096738D01*
X92246738Y-72729715D01*
X92535107Y-72298141D01*
X92733739Y-71818601D01*
X92835000Y-71309525D01*
X92835000Y-70893891D01*
X94115000Y-70893891D01*
X94115000Y-71206109D01*
X94175911Y-71512327D01*
X94295391Y-71800779D01*
X94468850Y-72060379D01*
X94689621Y-72281150D01*
X94949221Y-72454609D01*
X95237673Y-72574089D01*
X95543891Y-72635000D01*
X95856109Y-72635000D01*
X96162327Y-72574089D01*
X96450779Y-72454609D01*
X96710379Y-72281150D01*
X96931150Y-72060379D01*
X97104609Y-71800779D01*
X97224089Y-71512327D01*
X97285000Y-71206109D01*
X97285000Y-70893891D01*
X102165000Y-70893891D01*
X102165000Y-71206109D01*
X102225911Y-71512327D01*
X102345391Y-71800779D01*
X102518850Y-72060379D01*
X102739621Y-72281150D01*
X102999221Y-72454609D01*
X103287673Y-72574089D01*
X103593891Y-72635000D01*
X103906109Y-72635000D01*
X104212327Y-72574089D01*
X104500779Y-72454609D01*
X104760379Y-72281150D01*
X104981150Y-72060379D01*
X105154609Y-71800779D01*
X105274089Y-71512327D01*
X105335000Y-71206109D01*
X105335000Y-70893891D01*
X105314430Y-70790475D01*
X106615000Y-70790475D01*
X106615000Y-71309525D01*
X106716261Y-71818601D01*
X106914893Y-72298141D01*
X107203262Y-72729715D01*
X107570285Y-73096738D01*
X108001859Y-73385107D01*
X108481399Y-73583739D01*
X108990475Y-73685000D01*
X109509525Y-73685000D01*
X110018601Y-73583739D01*
X110498141Y-73385107D01*
X110929715Y-73096738D01*
X111296738Y-72729715D01*
X111585107Y-72298141D01*
X111783739Y-71818601D01*
X111885000Y-71309525D01*
X111885000Y-70893891D01*
X113165000Y-70893891D01*
X113165000Y-71206109D01*
X113225911Y-71512327D01*
X113345391Y-71800779D01*
X113518850Y-72060379D01*
X113739621Y-72281150D01*
X113999221Y-72454609D01*
X114287673Y-72574089D01*
X114593891Y-72635000D01*
X114906109Y-72635000D01*
X115212327Y-72574089D01*
X115500779Y-72454609D01*
X115760379Y-72281150D01*
X115981150Y-72060379D01*
X116154609Y-71800779D01*
X116274089Y-71512327D01*
X116335000Y-71206109D01*
X116335000Y-70893891D01*
X121215000Y-70893891D01*
X121215000Y-71206109D01*
X121275911Y-71512327D01*
X121395391Y-71800779D01*
X121568850Y-72060379D01*
X121789621Y-72281150D01*
X122049221Y-72454609D01*
X122337673Y-72574089D01*
X122643891Y-72635000D01*
X122956109Y-72635000D01*
X123262327Y-72574089D01*
X123550779Y-72454609D01*
X123810379Y-72281150D01*
X124031150Y-72060379D01*
X124204609Y-71800779D01*
X124324089Y-71512327D01*
X124385000Y-71206109D01*
X124385000Y-70893891D01*
X124364430Y-70790475D01*
X125665000Y-70790475D01*
X125665000Y-71309525D01*
X125766261Y-71818601D01*
X125964893Y-72298141D01*
X126253262Y-72729715D01*
X126620285Y-73096738D01*
X127051859Y-73385107D01*
X127531399Y-73583739D01*
X128040475Y-73685000D01*
X128559525Y-73685000D01*
X129068601Y-73583739D01*
X129548141Y-73385107D01*
X129979715Y-73096738D01*
X130346738Y-72729715D01*
X130635107Y-72298141D01*
X130833739Y-71818601D01*
X130935000Y-71309525D01*
X130935000Y-70893891D01*
X132215000Y-70893891D01*
X132215000Y-71206109D01*
X132275911Y-71512327D01*
X132395391Y-71800779D01*
X132568850Y-72060379D01*
X132789621Y-72281150D01*
X133049221Y-72454609D01*
X133337673Y-72574089D01*
X133643891Y-72635000D01*
X133956109Y-72635000D01*
X134262327Y-72574089D01*
X134550779Y-72454609D01*
X134810379Y-72281150D01*
X135031150Y-72060379D01*
X135204609Y-71800779D01*
X135324089Y-71512327D01*
X135385000Y-71206109D01*
X135385000Y-70893891D01*
X135324089Y-70587673D01*
X135204609Y-70299221D01*
X135031150Y-70039621D01*
X134810379Y-69818850D01*
X134550779Y-69645391D01*
X134262327Y-69525911D01*
X133956109Y-69465000D01*
X133643891Y-69465000D01*
X133337673Y-69525911D01*
X133049221Y-69645391D01*
X132789621Y-69818850D01*
X132568850Y-70039621D01*
X132395391Y-70299221D01*
X132275911Y-70587673D01*
X132215000Y-70893891D01*
X130935000Y-70893891D01*
X130935000Y-70790475D01*
X130833739Y-70281399D01*
X130635107Y-69801859D01*
X130346738Y-69370285D01*
X129979715Y-69003262D01*
X129548141Y-68714893D01*
X129068601Y-68516261D01*
X128559525Y-68415000D01*
X128040475Y-68415000D01*
X127531399Y-68516261D01*
X127051859Y-68714893D01*
X126620285Y-69003262D01*
X126253262Y-69370285D01*
X125964893Y-69801859D01*
X125766261Y-70281399D01*
X125665000Y-70790475D01*
X124364430Y-70790475D01*
X124324089Y-70587673D01*
X124204609Y-70299221D01*
X124097468Y-70138873D01*
X124159678Y-70145000D01*
X124820322Y-70145000D01*
X125060516Y-70121343D01*
X125368715Y-70027852D01*
X125652752Y-69876031D01*
X125901714Y-69671714D01*
X126106031Y-69422752D01*
X126257852Y-69138715D01*
X126351343Y-68830516D01*
X126382911Y-68510000D01*
X126351343Y-68189484D01*
X126257852Y-67881285D01*
X126106031Y-67597248D01*
X125901714Y-67348286D01*
X125652752Y-67143969D01*
X125368715Y-66992148D01*
X125060516Y-66898657D01*
X124820322Y-66875000D01*
X124159678Y-66875000D01*
X123919484Y-66898657D01*
X123611285Y-66992148D01*
X123327248Y-67143969D01*
X123078286Y-67348286D01*
X122873969Y-67597248D01*
X122722148Y-67881285D01*
X122628657Y-68189484D01*
X122597089Y-68510000D01*
X122628657Y-68830516D01*
X122722148Y-69138715D01*
X122873969Y-69422752D01*
X122908641Y-69465000D01*
X122643891Y-69465000D01*
X122337673Y-69525911D01*
X122049221Y-69645391D01*
X121789621Y-69818850D01*
X121568850Y-70039621D01*
X121395391Y-70299221D01*
X121275911Y-70587673D01*
X121215000Y-70893891D01*
X116335000Y-70893891D01*
X116274089Y-70587673D01*
X116154609Y-70299221D01*
X115981150Y-70039621D01*
X115760379Y-69818850D01*
X115500779Y-69645391D01*
X115212327Y-69525911D01*
X114906109Y-69465000D01*
X114593891Y-69465000D01*
X114287673Y-69525911D01*
X113999221Y-69645391D01*
X113739621Y-69818850D01*
X113518850Y-70039621D01*
X113345391Y-70299221D01*
X113225911Y-70587673D01*
X113165000Y-70893891D01*
X111885000Y-70893891D01*
X111885000Y-70790475D01*
X111783739Y-70281399D01*
X111585107Y-69801859D01*
X111296738Y-69370285D01*
X110929715Y-69003262D01*
X110498141Y-68714893D01*
X110018601Y-68516261D01*
X109509525Y-68415000D01*
X108990475Y-68415000D01*
X108481399Y-68516261D01*
X108001859Y-68714893D01*
X107570285Y-69003262D01*
X107203262Y-69370285D01*
X106914893Y-69801859D01*
X106716261Y-70281399D01*
X106615000Y-70790475D01*
X105314430Y-70790475D01*
X105274089Y-70587673D01*
X105154609Y-70299221D01*
X105047468Y-70138873D01*
X105109678Y-70145000D01*
X105770322Y-70145000D01*
X106010516Y-70121343D01*
X106318715Y-70027852D01*
X106602752Y-69876031D01*
X106851714Y-69671714D01*
X107056031Y-69422752D01*
X107207852Y-69138715D01*
X107301343Y-68830516D01*
X107332911Y-68510000D01*
X107301343Y-68189484D01*
X107207852Y-67881285D01*
X107056031Y-67597248D01*
X106851714Y-67348286D01*
X106602752Y-67143969D01*
X106318715Y-66992148D01*
X106010516Y-66898657D01*
X105770322Y-66875000D01*
X105109678Y-66875000D01*
X104869484Y-66898657D01*
X104561285Y-66992148D01*
X104277248Y-67143969D01*
X104028286Y-67348286D01*
X103823969Y-67597248D01*
X103672148Y-67881285D01*
X103578657Y-68189484D01*
X103547089Y-68510000D01*
X103578657Y-68830516D01*
X103672148Y-69138715D01*
X103823969Y-69422752D01*
X103858641Y-69465000D01*
X103593891Y-69465000D01*
X103287673Y-69525911D01*
X102999221Y-69645391D01*
X102739621Y-69818850D01*
X102518850Y-70039621D01*
X102345391Y-70299221D01*
X102225911Y-70587673D01*
X102165000Y-70893891D01*
X97285000Y-70893891D01*
X97224089Y-70587673D01*
X97104609Y-70299221D01*
X96931150Y-70039621D01*
X96710379Y-69818850D01*
X96450779Y-69645391D01*
X96162327Y-69525911D01*
X95856109Y-69465000D01*
X95543891Y-69465000D01*
X95237673Y-69525911D01*
X94949221Y-69645391D01*
X94689621Y-69818850D01*
X94468850Y-70039621D01*
X94295391Y-70299221D01*
X94175911Y-70587673D01*
X94115000Y-70893891D01*
X92835000Y-70893891D01*
X92835000Y-70790475D01*
X92733739Y-70281399D01*
X92535107Y-69801859D01*
X92246738Y-69370285D01*
X91879715Y-69003262D01*
X91448141Y-68714893D01*
X90968601Y-68516261D01*
X90459525Y-68415000D01*
X89940475Y-68415000D01*
X89431399Y-68516261D01*
X88951859Y-68714893D01*
X88520285Y-69003262D01*
X88153262Y-69370285D01*
X87864893Y-69801859D01*
X87666261Y-70281399D01*
X87565000Y-70790475D01*
X86264430Y-70790475D01*
X86224089Y-70587673D01*
X86104609Y-70299221D01*
X85997468Y-70138873D01*
X86059678Y-70145000D01*
X86720322Y-70145000D01*
X86960516Y-70121343D01*
X87268715Y-70027852D01*
X87552752Y-69876031D01*
X87801714Y-69671714D01*
X88006031Y-69422752D01*
X88157852Y-69138715D01*
X88251343Y-68830516D01*
X88282911Y-68510000D01*
X88251343Y-68189484D01*
X88157852Y-67881285D01*
X88006031Y-67597248D01*
X87801714Y-67348286D01*
X87552752Y-67143969D01*
X87268715Y-66992148D01*
X86960516Y-66898657D01*
X86720322Y-66875000D01*
X86059678Y-66875000D01*
X85819484Y-66898657D01*
X85511285Y-66992148D01*
X85227248Y-67143969D01*
X84978286Y-67348286D01*
X84773969Y-67597248D01*
X84622148Y-67881285D01*
X84528657Y-68189484D01*
X84497089Y-68510000D01*
X84528657Y-68830516D01*
X84622148Y-69138715D01*
X84773969Y-69422752D01*
X84808641Y-69465000D01*
X84543891Y-69465000D01*
X84237673Y-69525911D01*
X83949221Y-69645391D01*
X83689621Y-69818850D01*
X83468850Y-70039621D01*
X83295391Y-70299221D01*
X83175911Y-70587673D01*
X83115000Y-70893891D01*
X78175055Y-70893891D01*
X78124089Y-70637673D01*
X78004609Y-70349221D01*
X77831150Y-70089621D01*
X77610379Y-69868850D01*
X77350779Y-69695391D01*
X77062327Y-69575911D01*
X76756109Y-69515000D01*
X76443891Y-69515000D01*
X76137673Y-69575911D01*
X75849221Y-69695391D01*
X75589621Y-69868850D01*
X75368850Y-70089621D01*
X75195391Y-70349221D01*
X75075911Y-70637673D01*
X75015000Y-70943891D01*
X73735000Y-70943891D01*
X73735000Y-70840475D01*
X73633739Y-70331399D01*
X73435107Y-69851859D01*
X73146738Y-69420285D01*
X72779715Y-69053262D01*
X72348141Y-68764893D01*
X71868601Y-68566261D01*
X71359525Y-68465000D01*
X70840475Y-68465000D01*
X70331399Y-68566261D01*
X69851859Y-68764893D01*
X69420285Y-69053262D01*
X69053262Y-69420285D01*
X68764893Y-69851859D01*
X68566261Y-70331399D01*
X68465000Y-70840475D01*
X67164430Y-70840475D01*
X67124089Y-70637673D01*
X67004609Y-70349221D01*
X66897468Y-70188873D01*
X66959678Y-70195000D01*
X67620322Y-70195000D01*
X67860516Y-70171343D01*
X68168715Y-70077852D01*
X68452752Y-69926031D01*
X68701714Y-69721714D01*
X68906031Y-69472752D01*
X69057852Y-69188715D01*
X69151343Y-68880516D01*
X69182911Y-68560000D01*
X69151343Y-68239484D01*
X69057852Y-67931285D01*
X68906031Y-67647248D01*
X68701714Y-67398286D01*
X68452752Y-67193969D01*
X68168715Y-67042148D01*
X67860516Y-66948657D01*
X67620322Y-66925000D01*
X66959678Y-66925000D01*
X66719484Y-66948657D01*
X66411285Y-67042148D01*
X66127248Y-67193969D01*
X65878286Y-67398286D01*
X65673969Y-67647248D01*
X65522148Y-67931285D01*
X65428657Y-68239484D01*
X65397089Y-68560000D01*
X65428657Y-68880516D01*
X65522148Y-69188715D01*
X65673969Y-69472752D01*
X65708641Y-69515000D01*
X65443891Y-69515000D01*
X65137673Y-69575911D01*
X64849221Y-69695391D01*
X64589621Y-69868850D01*
X64368850Y-70089621D01*
X64195391Y-70349221D01*
X64075911Y-70637673D01*
X64015000Y-70943891D01*
X58568946Y-70943891D01*
X58501935Y-70876880D01*
X58273127Y-70723995D01*
X58195885Y-70692000D01*
X58273127Y-70660005D01*
X58501935Y-70507120D01*
X58696520Y-70312535D01*
X58849405Y-70083727D01*
X58954714Y-69829490D01*
X59008400Y-69559592D01*
X59008400Y-69284408D01*
X58954714Y-69014510D01*
X58849405Y-68760273D01*
X58696520Y-68531465D01*
X58501935Y-68336880D01*
X58273127Y-68183995D01*
X58195885Y-68152000D01*
X58273127Y-68120005D01*
X58501935Y-67967120D01*
X58696520Y-67772535D01*
X58849405Y-67543727D01*
X58954714Y-67289490D01*
X59008400Y-67019592D01*
X59008400Y-66744408D01*
X58954714Y-66474510D01*
X58924031Y-66400434D01*
X71799876Y-66400434D01*
X71824256Y-66522398D01*
X71952354Y-66818206D01*
X72135700Y-67083340D01*
X72367248Y-67307610D01*
X72638100Y-67482398D01*
X72937847Y-67600987D01*
X73254970Y-67658819D01*
X73513000Y-67501016D01*
X73513000Y-66147000D01*
X73767000Y-66147000D01*
X73767000Y-67501016D01*
X74025030Y-67658819D01*
X74342153Y-67600987D01*
X74641900Y-67482398D01*
X74912752Y-67307610D01*
X75144300Y-67083340D01*
X75327646Y-66818206D01*
X75455744Y-66522398D01*
X75480124Y-66400434D01*
X75456579Y-66350434D01*
X90899876Y-66350434D01*
X90924256Y-66472398D01*
X91052354Y-66768206D01*
X91235700Y-67033340D01*
X91467248Y-67257610D01*
X91738100Y-67432398D01*
X92037847Y-67550987D01*
X92354970Y-67608819D01*
X92613000Y-67451016D01*
X92613000Y-66097000D01*
X92867000Y-66097000D01*
X92867000Y-67451016D01*
X93125030Y-67608819D01*
X93442153Y-67550987D01*
X93741900Y-67432398D01*
X94012752Y-67257610D01*
X94244300Y-67033340D01*
X94427646Y-66768206D01*
X94555744Y-66472398D01*
X94580124Y-66350434D01*
X109949876Y-66350434D01*
X109974256Y-66472398D01*
X110102354Y-66768206D01*
X110285700Y-67033340D01*
X110517248Y-67257610D01*
X110788100Y-67432398D01*
X111087847Y-67550987D01*
X111404970Y-67608819D01*
X111663000Y-67451016D01*
X111663000Y-66097000D01*
X111917000Y-66097000D01*
X111917000Y-67451016D01*
X112175030Y-67608819D01*
X112492153Y-67550987D01*
X112791900Y-67432398D01*
X113062752Y-67257610D01*
X113294300Y-67033340D01*
X113477646Y-66768206D01*
X113605744Y-66472398D01*
X113630124Y-66350434D01*
X128999876Y-66350434D01*
X129024256Y-66472398D01*
X129152354Y-66768206D01*
X129335700Y-67033340D01*
X129567248Y-67257610D01*
X129838100Y-67432398D01*
X130137847Y-67550987D01*
X130454970Y-67608819D01*
X130713000Y-67451016D01*
X130713000Y-66097000D01*
X130967000Y-66097000D01*
X130967000Y-67451016D01*
X131225030Y-67608819D01*
X131542153Y-67550987D01*
X131841900Y-67432398D01*
X132112752Y-67257610D01*
X132344300Y-67033340D01*
X132527646Y-66768206D01*
X132655744Y-66472398D01*
X132680124Y-66350434D01*
X132560777Y-66097000D01*
X130967000Y-66097000D01*
X130713000Y-66097000D01*
X129119223Y-66097000D01*
X128999876Y-66350434D01*
X113630124Y-66350434D01*
X113510777Y-66097000D01*
X111917000Y-66097000D01*
X111663000Y-66097000D01*
X110069223Y-66097000D01*
X109949876Y-66350434D01*
X94580124Y-66350434D01*
X94460777Y-66097000D01*
X92867000Y-66097000D01*
X92613000Y-66097000D01*
X91019223Y-66097000D01*
X90899876Y-66350434D01*
X75456579Y-66350434D01*
X75360777Y-66147000D01*
X73767000Y-66147000D01*
X73513000Y-66147000D01*
X71919223Y-66147000D01*
X71799876Y-66400434D01*
X58924031Y-66400434D01*
X58849405Y-66220273D01*
X58696520Y-65991465D01*
X58501935Y-65796880D01*
X58273127Y-65643995D01*
X58262435Y-65639566D01*
X71799876Y-65639566D01*
X71919223Y-65893000D01*
X73513000Y-65893000D01*
X73513000Y-64538984D01*
X73767000Y-64538984D01*
X73767000Y-65893000D01*
X75360777Y-65893000D01*
X75480124Y-65639566D01*
X75470130Y-65589566D01*
X90899876Y-65589566D01*
X91019223Y-65843000D01*
X92613000Y-65843000D01*
X92613000Y-64488984D01*
X92867000Y-64488984D01*
X92867000Y-65843000D01*
X94460777Y-65843000D01*
X94580124Y-65589566D01*
X109949876Y-65589566D01*
X110069223Y-65843000D01*
X111663000Y-65843000D01*
X111663000Y-64488984D01*
X111917000Y-64488984D01*
X111917000Y-65843000D01*
X113510777Y-65843000D01*
X113630124Y-65589566D01*
X128999876Y-65589566D01*
X129119223Y-65843000D01*
X130713000Y-65843000D01*
X130713000Y-64488984D01*
X130967000Y-64488984D01*
X130967000Y-65843000D01*
X132560777Y-65843000D01*
X132680124Y-65589566D01*
X132655744Y-65467602D01*
X132527646Y-65171794D01*
X132344300Y-64906660D01*
X132112752Y-64682390D01*
X131841900Y-64507602D01*
X131542153Y-64389013D01*
X131225030Y-64331181D01*
X130967000Y-64488984D01*
X130713000Y-64488984D01*
X130454970Y-64331181D01*
X130137847Y-64389013D01*
X129838100Y-64507602D01*
X129567248Y-64682390D01*
X129335700Y-64906660D01*
X129152354Y-65171794D01*
X129024256Y-65467602D01*
X128999876Y-65589566D01*
X113630124Y-65589566D01*
X113605744Y-65467602D01*
X113477646Y-65171794D01*
X113294300Y-64906660D01*
X113062752Y-64682390D01*
X112791900Y-64507602D01*
X112492153Y-64389013D01*
X112175030Y-64331181D01*
X111917000Y-64488984D01*
X111663000Y-64488984D01*
X111404970Y-64331181D01*
X111087847Y-64389013D01*
X110788100Y-64507602D01*
X110517248Y-64682390D01*
X110285700Y-64906660D01*
X110102354Y-65171794D01*
X109974256Y-65467602D01*
X109949876Y-65589566D01*
X94580124Y-65589566D01*
X94555744Y-65467602D01*
X94427646Y-65171794D01*
X94244300Y-64906660D01*
X94012752Y-64682390D01*
X93741900Y-64507602D01*
X93442153Y-64389013D01*
X93125030Y-64331181D01*
X92867000Y-64488984D01*
X92613000Y-64488984D01*
X92354970Y-64331181D01*
X92037847Y-64389013D01*
X91738100Y-64507602D01*
X91467248Y-64682390D01*
X91235700Y-64906660D01*
X91052354Y-65171794D01*
X90924256Y-65467602D01*
X90899876Y-65589566D01*
X75470130Y-65589566D01*
X75455744Y-65517602D01*
X75327646Y-65221794D01*
X75144300Y-64956660D01*
X74912752Y-64732390D01*
X74641900Y-64557602D01*
X74342153Y-64439013D01*
X74025030Y-64381181D01*
X73767000Y-64538984D01*
X73513000Y-64538984D01*
X73254970Y-64381181D01*
X72937847Y-64439013D01*
X72638100Y-64557602D01*
X72367248Y-64732390D01*
X72135700Y-64956660D01*
X71952354Y-65221794D01*
X71824256Y-65517602D01*
X71799876Y-65639566D01*
X58262435Y-65639566D01*
X58201457Y-65614308D01*
X58214423Y-65609636D01*
X58330380Y-65547656D01*
X58397360Y-65307565D01*
X57611400Y-64521605D01*
X56825440Y-65307565D01*
X56892420Y-65547656D01*
X57028160Y-65611485D01*
X56949673Y-65643995D01*
X56720865Y-65796880D01*
X56526280Y-65991465D01*
X56373395Y-66220273D01*
X56268086Y-66474510D01*
X56214400Y-66744408D01*
X43788400Y-66744408D01*
X43734714Y-66474510D01*
X43629405Y-66220273D01*
X43476520Y-65991465D01*
X43281935Y-65796880D01*
X43053127Y-65643995D01*
X42975885Y-65612000D01*
X43053127Y-65580005D01*
X43281935Y-65427120D01*
X43476520Y-65232535D01*
X43629405Y-65003727D01*
X43734714Y-64749490D01*
X43788400Y-64479592D01*
X43788400Y-64414017D01*
X56209490Y-64414017D01*
X56250478Y-64686133D01*
X56343764Y-64945023D01*
X56405744Y-65060980D01*
X56645835Y-65127960D01*
X57431795Y-64342000D01*
X57791005Y-64342000D01*
X58576965Y-65127960D01*
X58817056Y-65060980D01*
X58934156Y-64811952D01*
X59000423Y-64544865D01*
X59013310Y-64269983D01*
X58972322Y-63997867D01*
X58879036Y-63738977D01*
X58817056Y-63623020D01*
X58576965Y-63556040D01*
X57791005Y-64342000D01*
X57431795Y-64342000D01*
X56645835Y-63556040D01*
X56405744Y-63623020D01*
X56288644Y-63872048D01*
X56222377Y-64139135D01*
X56209490Y-64414017D01*
X43788400Y-64414017D01*
X43788400Y-64204408D01*
X43734714Y-63934510D01*
X43629405Y-63680273D01*
X43476520Y-63451465D01*
X43281935Y-63256880D01*
X43053127Y-63103995D01*
X42975885Y-63072000D01*
X43053127Y-63040005D01*
X43281935Y-62887120D01*
X43401490Y-62767565D01*
X56825440Y-62767565D01*
X56892420Y-63007656D01*
X57023044Y-63069079D01*
X57008377Y-63074364D01*
X56892420Y-63136344D01*
X56825440Y-63376435D01*
X57611400Y-64162395D01*
X58397360Y-63376435D01*
X58330380Y-63136344D01*
X58199756Y-63074921D01*
X58214423Y-63069636D01*
X58330380Y-63007656D01*
X58397360Y-62767565D01*
X57611400Y-61981605D01*
X56825440Y-62767565D01*
X43401490Y-62767565D01*
X43476520Y-62692535D01*
X43629405Y-62463727D01*
X43734714Y-62209490D01*
X43788400Y-61939592D01*
X43788400Y-61874017D01*
X56209490Y-61874017D01*
X56250478Y-62146133D01*
X56343764Y-62405023D01*
X56405744Y-62520980D01*
X56645835Y-62587960D01*
X57431795Y-61802000D01*
X57791005Y-61802000D01*
X58576965Y-62587960D01*
X58817056Y-62520980D01*
X58934156Y-62271952D01*
X59000423Y-62004865D01*
X59013310Y-61729983D01*
X58972322Y-61457867D01*
X58879036Y-61198977D01*
X58817056Y-61083020D01*
X58576965Y-61016040D01*
X57791005Y-61802000D01*
X57431795Y-61802000D01*
X56645835Y-61016040D01*
X56405744Y-61083020D01*
X56288644Y-61332048D01*
X56222377Y-61599135D01*
X56209490Y-61874017D01*
X43788400Y-61874017D01*
X43788400Y-61664408D01*
X43734714Y-61394510D01*
X43629405Y-61140273D01*
X43476520Y-60911465D01*
X43281935Y-60716880D01*
X43053127Y-60563995D01*
X42981457Y-60534308D01*
X42994423Y-60529636D01*
X43110380Y-60467656D01*
X43177360Y-60227565D01*
X42391400Y-59441605D01*
X41605440Y-60227565D01*
X41672420Y-60467656D01*
X41808160Y-60531485D01*
X41729673Y-60563995D01*
X41500865Y-60716880D01*
X41306280Y-60911465D01*
X41153395Y-61140273D01*
X41048086Y-61394510D01*
X40994400Y-61664408D01*
X40660000Y-61664408D01*
X40660000Y-59334017D01*
X40989490Y-59334017D01*
X41030478Y-59606133D01*
X41123764Y-59865023D01*
X41185744Y-59980980D01*
X41425835Y-60047960D01*
X42211795Y-59262000D01*
X42571005Y-59262000D01*
X43356965Y-60047960D01*
X43597056Y-59980980D01*
X43714156Y-59731952D01*
X43780423Y-59464865D01*
X43793310Y-59189983D01*
X43752322Y-58917867D01*
X43659036Y-58658977D01*
X43597056Y-58543020D01*
X43356965Y-58476040D01*
X42571005Y-59262000D01*
X42211795Y-59262000D01*
X41425835Y-58476040D01*
X41185744Y-58543020D01*
X41068644Y-58792048D01*
X41002377Y-59059135D01*
X40989490Y-59334017D01*
X40660000Y-59334017D01*
X40660000Y-56584408D01*
X40994400Y-56584408D01*
X40994400Y-56859592D01*
X41048086Y-57129490D01*
X41153395Y-57383727D01*
X41306280Y-57612535D01*
X41500865Y-57807120D01*
X41729673Y-57960005D01*
X41801343Y-57989692D01*
X41788377Y-57994364D01*
X41672420Y-58056344D01*
X41605440Y-58296435D01*
X42391400Y-59082395D01*
X43177360Y-58296435D01*
X43110380Y-58056344D01*
X42974640Y-57992515D01*
X43053127Y-57960005D01*
X43281935Y-57807120D01*
X43476520Y-57612535D01*
X43629405Y-57383727D01*
X43734714Y-57129490D01*
X43788400Y-56859592D01*
X43788400Y-56584408D01*
X56214400Y-56584408D01*
X56214400Y-56859592D01*
X56268086Y-57129490D01*
X56373395Y-57383727D01*
X56526280Y-57612535D01*
X56720865Y-57807120D01*
X56949673Y-57960005D01*
X57026915Y-57992000D01*
X56949673Y-58023995D01*
X56720865Y-58176880D01*
X56526280Y-58371465D01*
X56373395Y-58600273D01*
X56268086Y-58854510D01*
X56214400Y-59124408D01*
X56214400Y-59399592D01*
X56268086Y-59669490D01*
X56373395Y-59923727D01*
X56526280Y-60152535D01*
X56720865Y-60347120D01*
X56949673Y-60500005D01*
X57021343Y-60529692D01*
X57008377Y-60534364D01*
X56892420Y-60596344D01*
X56825440Y-60836435D01*
X57611400Y-61622395D01*
X58397360Y-60836435D01*
X58330380Y-60596344D01*
X58194640Y-60532515D01*
X58273127Y-60500005D01*
X58501935Y-60347120D01*
X58696520Y-60152535D01*
X58849405Y-59923727D01*
X58954714Y-59669490D01*
X59008400Y-59399592D01*
X59008400Y-59124408D01*
X58954714Y-58854510D01*
X58849405Y-58600273D01*
X58696520Y-58371465D01*
X58501935Y-58176880D01*
X58273127Y-58023995D01*
X58195885Y-57992000D01*
X58273127Y-57960005D01*
X58501935Y-57807120D01*
X58696520Y-57612535D01*
X58849405Y-57383727D01*
X58954714Y-57129490D01*
X59008400Y-56859592D01*
X59008400Y-56584408D01*
X58954714Y-56314510D01*
X58849405Y-56060273D01*
X58696520Y-55831465D01*
X58501935Y-55636880D01*
X58273127Y-55483995D01*
X58018890Y-55378686D01*
X57748992Y-55325000D01*
X57473808Y-55325000D01*
X57203910Y-55378686D01*
X56949673Y-55483995D01*
X56720865Y-55636880D01*
X56526280Y-55831465D01*
X56373395Y-56060273D01*
X56268086Y-56314510D01*
X56214400Y-56584408D01*
X43788400Y-56584408D01*
X43734714Y-56314510D01*
X43629405Y-56060273D01*
X43476520Y-55831465D01*
X43281935Y-55636880D01*
X43053127Y-55483995D01*
X42798890Y-55378686D01*
X42528992Y-55325000D01*
X42253808Y-55325000D01*
X41983910Y-55378686D01*
X41729673Y-55483995D01*
X41500865Y-55636880D01*
X41306280Y-55831465D01*
X41153395Y-56060273D01*
X41048086Y-56314510D01*
X40994400Y-56584408D01*
X40660000Y-56584408D01*
X40660000Y-52032279D01*
X40688625Y-51740341D01*
X40764035Y-51490571D01*
X40886522Y-51260208D01*
X41051422Y-51058020D01*
X41252450Y-50891714D01*
X41481954Y-50767622D01*
X41731195Y-50690469D01*
X42021088Y-50660000D01*
X137967721Y-50660000D01*
X138259659Y-50688625D01*
M02*
