G04 #@! TF.GenerationSoftware,KiCad,Pcbnew,(5.1.0)-1*
G04 #@! TF.CreationDate,2019-04-21T21:02:20+09:00*
G04 #@! TF.ProjectId,meishikbd,6d656973-6869-46b6-9264-2e6b69636164,rev?*
G04 #@! TF.SameCoordinates,Original*
G04 #@! TF.FileFunction,Soldermask,Bot*
G04 #@! TF.FilePolarity,Negative*
%FSLAX46Y46*%
G04 Gerber Fmt 4.6, Leading zero omitted, Abs format (unit mm)*
G04 Created by KiCad (PCBNEW (5.1.0)-1) date 2019-04-21 21:02:20*
%MOMM*%
%LPD*%
G04 APERTURE LIST*
%ADD10C,0.100000*%
G04 APERTURE END LIST*
D10*
G36*
X53456564Y-92689389D02*
G01*
X53647833Y-92768615D01*
X53647835Y-92768616D01*
X53819973Y-92883635D01*
X53966365Y-93030027D01*
X54081385Y-93202167D01*
X54160611Y-93393436D01*
X54201000Y-93596484D01*
X54201000Y-93803516D01*
X54160611Y-94006564D01*
X54081385Y-94197833D01*
X54081384Y-94197835D01*
X53966365Y-94369973D01*
X53819973Y-94516365D01*
X53647835Y-94631384D01*
X53647834Y-94631385D01*
X53647833Y-94631385D01*
X53456564Y-94710611D01*
X53253516Y-94751000D01*
X53046484Y-94751000D01*
X52843436Y-94710611D01*
X52652167Y-94631385D01*
X52652166Y-94631385D01*
X52652165Y-94631384D01*
X52480027Y-94516365D01*
X52333635Y-94369973D01*
X52218616Y-94197835D01*
X52218615Y-94197833D01*
X52139389Y-94006564D01*
X52099000Y-93803516D01*
X52099000Y-93596484D01*
X52139389Y-93393436D01*
X52218615Y-93202167D01*
X52333635Y-93030027D01*
X52480027Y-92883635D01*
X52652165Y-92768616D01*
X52652167Y-92768615D01*
X52843436Y-92689389D01*
X53046484Y-92649000D01*
X53253516Y-92649000D01*
X53456564Y-92689389D01*
X53456564Y-92689389D01*
G37*
G36*
X46956564Y-92689389D02*
G01*
X47147833Y-92768615D01*
X47147835Y-92768616D01*
X47319973Y-92883635D01*
X47466365Y-93030027D01*
X47581385Y-93202167D01*
X47660611Y-93393436D01*
X47701000Y-93596484D01*
X47701000Y-93803516D01*
X47660611Y-94006564D01*
X47581385Y-94197833D01*
X47581384Y-94197835D01*
X47466365Y-94369973D01*
X47319973Y-94516365D01*
X47147835Y-94631384D01*
X47147834Y-94631385D01*
X47147833Y-94631385D01*
X46956564Y-94710611D01*
X46753516Y-94751000D01*
X46546484Y-94751000D01*
X46343436Y-94710611D01*
X46152167Y-94631385D01*
X46152166Y-94631385D01*
X46152165Y-94631384D01*
X45980027Y-94516365D01*
X45833635Y-94369973D01*
X45718616Y-94197835D01*
X45718615Y-94197833D01*
X45639389Y-94006564D01*
X45599000Y-93803516D01*
X45599000Y-93596484D01*
X45639389Y-93393436D01*
X45718615Y-93202167D01*
X45833635Y-93030027D01*
X45980027Y-92883635D01*
X46152165Y-92768616D01*
X46152167Y-92768615D01*
X46343436Y-92689389D01*
X46546484Y-92649000D01*
X46753516Y-92649000D01*
X46956564Y-92689389D01*
X46956564Y-92689389D01*
G37*
G36*
X90798254Y-88127818D02*
G01*
X91171511Y-88282426D01*
X91171513Y-88282427D01*
X91207937Y-88306765D01*
X91507436Y-88506884D01*
X91793116Y-88792564D01*
X92017574Y-89128489D01*
X92172182Y-89501746D01*
X92251000Y-89897993D01*
X92251000Y-90302007D01*
X92172182Y-90698254D01*
X92021293Y-91062532D01*
X92017573Y-91071513D01*
X91793116Y-91407436D01*
X91507436Y-91693116D01*
X91171513Y-91917573D01*
X91171512Y-91917574D01*
X91171511Y-91917574D01*
X90798254Y-92072182D01*
X90402007Y-92151000D01*
X89997993Y-92151000D01*
X89601746Y-92072182D01*
X89228489Y-91917574D01*
X89228488Y-91917574D01*
X89228487Y-91917573D01*
X88892564Y-91693116D01*
X88606884Y-91407436D01*
X88382427Y-91071513D01*
X88378707Y-91062532D01*
X88227818Y-90698254D01*
X88149000Y-90302007D01*
X88149000Y-89897993D01*
X88227818Y-89501746D01*
X88382426Y-89128489D01*
X88606884Y-88792564D01*
X88892564Y-88506884D01*
X89192063Y-88306765D01*
X89228487Y-88282427D01*
X89228489Y-88282426D01*
X89601746Y-88127818D01*
X89997993Y-88049000D01*
X90402007Y-88049000D01*
X90798254Y-88127818D01*
X90798254Y-88127818D01*
G37*
G36*
X128898254Y-88127818D02*
G01*
X129271511Y-88282426D01*
X129271513Y-88282427D01*
X129307937Y-88306765D01*
X129607436Y-88506884D01*
X129893116Y-88792564D01*
X130117574Y-89128489D01*
X130272182Y-89501746D01*
X130351000Y-89897993D01*
X130351000Y-90302007D01*
X130272182Y-90698254D01*
X130121293Y-91062532D01*
X130117573Y-91071513D01*
X129893116Y-91407436D01*
X129607436Y-91693116D01*
X129271513Y-91917573D01*
X129271512Y-91917574D01*
X129271511Y-91917574D01*
X128898254Y-92072182D01*
X128502007Y-92151000D01*
X128097993Y-92151000D01*
X127701746Y-92072182D01*
X127328489Y-91917574D01*
X127328488Y-91917574D01*
X127328487Y-91917573D01*
X126992564Y-91693116D01*
X126706884Y-91407436D01*
X126482427Y-91071513D01*
X126478707Y-91062532D01*
X126327818Y-90698254D01*
X126249000Y-90302007D01*
X126249000Y-89897993D01*
X126327818Y-89501746D01*
X126482426Y-89128489D01*
X126706884Y-88792564D01*
X126992564Y-88506884D01*
X127292063Y-88306765D01*
X127328487Y-88282427D01*
X127328489Y-88282426D01*
X127701746Y-88127818D01*
X128097993Y-88049000D01*
X128502007Y-88049000D01*
X128898254Y-88127818D01*
X128898254Y-88127818D01*
G37*
G36*
X109848254Y-88127818D02*
G01*
X110221511Y-88282426D01*
X110221513Y-88282427D01*
X110257937Y-88306765D01*
X110557436Y-88506884D01*
X110843116Y-88792564D01*
X111067574Y-89128489D01*
X111222182Y-89501746D01*
X111301000Y-89897993D01*
X111301000Y-90302007D01*
X111222182Y-90698254D01*
X111071293Y-91062532D01*
X111067573Y-91071513D01*
X110843116Y-91407436D01*
X110557436Y-91693116D01*
X110221513Y-91917573D01*
X110221512Y-91917574D01*
X110221511Y-91917574D01*
X109848254Y-92072182D01*
X109452007Y-92151000D01*
X109047993Y-92151000D01*
X108651746Y-92072182D01*
X108278489Y-91917574D01*
X108278488Y-91917574D01*
X108278487Y-91917573D01*
X107942564Y-91693116D01*
X107656884Y-91407436D01*
X107432427Y-91071513D01*
X107428707Y-91062532D01*
X107277818Y-90698254D01*
X107199000Y-90302007D01*
X107199000Y-89897993D01*
X107277818Y-89501746D01*
X107432426Y-89128489D01*
X107656884Y-88792564D01*
X107942564Y-88506884D01*
X108242063Y-88306765D01*
X108278487Y-88282427D01*
X108278489Y-88282426D01*
X108651746Y-88127818D01*
X109047993Y-88049000D01*
X109452007Y-88049000D01*
X109848254Y-88127818D01*
X109848254Y-88127818D01*
G37*
G36*
X71748254Y-88127818D02*
G01*
X72121511Y-88282426D01*
X72121513Y-88282427D01*
X72157937Y-88306765D01*
X72457436Y-88506884D01*
X72743116Y-88792564D01*
X72967574Y-89128489D01*
X73122182Y-89501746D01*
X73201000Y-89897993D01*
X73201000Y-90302007D01*
X73122182Y-90698254D01*
X72971293Y-91062532D01*
X72967573Y-91071513D01*
X72743116Y-91407436D01*
X72457436Y-91693116D01*
X72121513Y-91917573D01*
X72121512Y-91917574D01*
X72121511Y-91917574D01*
X71748254Y-92072182D01*
X71352007Y-92151000D01*
X70947993Y-92151000D01*
X70551746Y-92072182D01*
X70178489Y-91917574D01*
X70178488Y-91917574D01*
X70178487Y-91917573D01*
X69842564Y-91693116D01*
X69556884Y-91407436D01*
X69332427Y-91071513D01*
X69328707Y-91062532D01*
X69177818Y-90698254D01*
X69099000Y-90302007D01*
X69099000Y-89897993D01*
X69177818Y-89501746D01*
X69332426Y-89128489D01*
X69556884Y-88792564D01*
X69842564Y-88506884D01*
X70142063Y-88306765D01*
X70178487Y-88282427D01*
X70178489Y-88282426D01*
X70551746Y-88127818D01*
X70947993Y-88049000D01*
X71352007Y-88049000D01*
X71748254Y-88127818D01*
X71748254Y-88127818D01*
G37*
G36*
X84895285Y-89118234D02*
G01*
X84991981Y-89137468D01*
X85174151Y-89212926D01*
X85338100Y-89322473D01*
X85477527Y-89461900D01*
X85587074Y-89625849D01*
X85662532Y-89808019D01*
X85701000Y-90001410D01*
X85701000Y-90198590D01*
X85662532Y-90391981D01*
X85587074Y-90574151D01*
X85477527Y-90738100D01*
X85338100Y-90877527D01*
X85174151Y-90987074D01*
X84991981Y-91062532D01*
X84798591Y-91101000D01*
X84601409Y-91101000D01*
X84504715Y-91081766D01*
X84408019Y-91062532D01*
X84225849Y-90987074D01*
X84061900Y-90877527D01*
X83922473Y-90738100D01*
X83812926Y-90574151D01*
X83737468Y-90391981D01*
X83699000Y-90198590D01*
X83699000Y-90001410D01*
X83737468Y-89808019D01*
X83812926Y-89625849D01*
X83922473Y-89461900D01*
X84061900Y-89322473D01*
X84225849Y-89212926D01*
X84408019Y-89137468D01*
X84504715Y-89118234D01*
X84601409Y-89099000D01*
X84798591Y-89099000D01*
X84895285Y-89118234D01*
X84895285Y-89118234D01*
G37*
G36*
X133995285Y-89118234D02*
G01*
X134091981Y-89137468D01*
X134274151Y-89212926D01*
X134438100Y-89322473D01*
X134577527Y-89461900D01*
X134687074Y-89625849D01*
X134762532Y-89808019D01*
X134801000Y-90001410D01*
X134801000Y-90198590D01*
X134762532Y-90391981D01*
X134687074Y-90574151D01*
X134577527Y-90738100D01*
X134438100Y-90877527D01*
X134274151Y-90987074D01*
X134091981Y-91062532D01*
X133898591Y-91101000D01*
X133701409Y-91101000D01*
X133604715Y-91081766D01*
X133508019Y-91062532D01*
X133325849Y-90987074D01*
X133161900Y-90877527D01*
X133022473Y-90738100D01*
X132912926Y-90574151D01*
X132837468Y-90391981D01*
X132799000Y-90198590D01*
X132799000Y-90001410D01*
X132837468Y-89808019D01*
X132912926Y-89625849D01*
X133022473Y-89461900D01*
X133161900Y-89322473D01*
X133325849Y-89212926D01*
X133508019Y-89137468D01*
X133604715Y-89118234D01*
X133701409Y-89099000D01*
X133898591Y-89099000D01*
X133995285Y-89118234D01*
X133995285Y-89118234D01*
G37*
G36*
X122995285Y-89118234D02*
G01*
X123091981Y-89137468D01*
X123274151Y-89212926D01*
X123438100Y-89322473D01*
X123577527Y-89461900D01*
X123687074Y-89625849D01*
X123762532Y-89808019D01*
X123801000Y-90001410D01*
X123801000Y-90198590D01*
X123762532Y-90391981D01*
X123687074Y-90574151D01*
X123577527Y-90738100D01*
X123438100Y-90877527D01*
X123274151Y-90987074D01*
X123091981Y-91062532D01*
X122898591Y-91101000D01*
X122701409Y-91101000D01*
X122604715Y-91081766D01*
X122508019Y-91062532D01*
X122325849Y-90987074D01*
X122161900Y-90877527D01*
X122022473Y-90738100D01*
X121912926Y-90574151D01*
X121837468Y-90391981D01*
X121799000Y-90198590D01*
X121799000Y-90001410D01*
X121837468Y-89808019D01*
X121912926Y-89625849D01*
X122022473Y-89461900D01*
X122161900Y-89322473D01*
X122325849Y-89212926D01*
X122508019Y-89137468D01*
X122604715Y-89118234D01*
X122701409Y-89099000D01*
X122898591Y-89099000D01*
X122995285Y-89118234D01*
X122995285Y-89118234D01*
G37*
G36*
X103945285Y-89118234D02*
G01*
X104041981Y-89137468D01*
X104224151Y-89212926D01*
X104388100Y-89322473D01*
X104527527Y-89461900D01*
X104637074Y-89625849D01*
X104712532Y-89808019D01*
X104751000Y-90001410D01*
X104751000Y-90198590D01*
X104712532Y-90391981D01*
X104637074Y-90574151D01*
X104527527Y-90738100D01*
X104388100Y-90877527D01*
X104224151Y-90987074D01*
X104041981Y-91062532D01*
X103848591Y-91101000D01*
X103651409Y-91101000D01*
X103554715Y-91081766D01*
X103458019Y-91062532D01*
X103275849Y-90987074D01*
X103111900Y-90877527D01*
X102972473Y-90738100D01*
X102862926Y-90574151D01*
X102787468Y-90391981D01*
X102749000Y-90198590D01*
X102749000Y-90001410D01*
X102787468Y-89808019D01*
X102862926Y-89625849D01*
X102972473Y-89461900D01*
X103111900Y-89322473D01*
X103275849Y-89212926D01*
X103458019Y-89137468D01*
X103554715Y-89118234D01*
X103651409Y-89099000D01*
X103848591Y-89099000D01*
X103945285Y-89118234D01*
X103945285Y-89118234D01*
G37*
G36*
X114945285Y-89118234D02*
G01*
X115041981Y-89137468D01*
X115224151Y-89212926D01*
X115388100Y-89322473D01*
X115527527Y-89461900D01*
X115637074Y-89625849D01*
X115712532Y-89808019D01*
X115751000Y-90001410D01*
X115751000Y-90198590D01*
X115712532Y-90391981D01*
X115637074Y-90574151D01*
X115527527Y-90738100D01*
X115388100Y-90877527D01*
X115224151Y-90987074D01*
X115041981Y-91062532D01*
X114848591Y-91101000D01*
X114651409Y-91101000D01*
X114554715Y-91081766D01*
X114458019Y-91062532D01*
X114275849Y-90987074D01*
X114111900Y-90877527D01*
X113972473Y-90738100D01*
X113862926Y-90574151D01*
X113787468Y-90391981D01*
X113749000Y-90198590D01*
X113749000Y-90001410D01*
X113787468Y-89808019D01*
X113862926Y-89625849D01*
X113972473Y-89461900D01*
X114111900Y-89322473D01*
X114275849Y-89212926D01*
X114458019Y-89137468D01*
X114554715Y-89118234D01*
X114651409Y-89099000D01*
X114848591Y-89099000D01*
X114945285Y-89118234D01*
X114945285Y-89118234D01*
G37*
G36*
X95895285Y-89118234D02*
G01*
X95991981Y-89137468D01*
X96174151Y-89212926D01*
X96338100Y-89322473D01*
X96477527Y-89461900D01*
X96587074Y-89625849D01*
X96662532Y-89808019D01*
X96701000Y-90001410D01*
X96701000Y-90198590D01*
X96662532Y-90391981D01*
X96587074Y-90574151D01*
X96477527Y-90738100D01*
X96338100Y-90877527D01*
X96174151Y-90987074D01*
X95991981Y-91062532D01*
X95798591Y-91101000D01*
X95601409Y-91101000D01*
X95504715Y-91081766D01*
X95408019Y-91062532D01*
X95225849Y-90987074D01*
X95061900Y-90877527D01*
X94922473Y-90738100D01*
X94812926Y-90574151D01*
X94737468Y-90391981D01*
X94699000Y-90198590D01*
X94699000Y-90001410D01*
X94737468Y-89808019D01*
X94812926Y-89625849D01*
X94922473Y-89461900D01*
X95061900Y-89322473D01*
X95225849Y-89212926D01*
X95408019Y-89137468D01*
X95504715Y-89118234D01*
X95601409Y-89099000D01*
X95798591Y-89099000D01*
X95895285Y-89118234D01*
X95895285Y-89118234D01*
G37*
G36*
X65845285Y-89118234D02*
G01*
X65941981Y-89137468D01*
X66124151Y-89212926D01*
X66288100Y-89322473D01*
X66427527Y-89461900D01*
X66537074Y-89625849D01*
X66612532Y-89808019D01*
X66651000Y-90001410D01*
X66651000Y-90198590D01*
X66612532Y-90391981D01*
X66537074Y-90574151D01*
X66427527Y-90738100D01*
X66288100Y-90877527D01*
X66124151Y-90987074D01*
X65941981Y-91062532D01*
X65845285Y-91081766D01*
X65748591Y-91101000D01*
X65551409Y-91101000D01*
X65454715Y-91081766D01*
X65358019Y-91062532D01*
X65175849Y-90987074D01*
X65011900Y-90877527D01*
X64872473Y-90738100D01*
X64762926Y-90574151D01*
X64687468Y-90391981D01*
X64649000Y-90198590D01*
X64649000Y-90001410D01*
X64687468Y-89808019D01*
X64762926Y-89625849D01*
X64872473Y-89461900D01*
X65011900Y-89322473D01*
X65175849Y-89212926D01*
X65358019Y-89137468D01*
X65454715Y-89118234D01*
X65551409Y-89099000D01*
X65748591Y-89099000D01*
X65845285Y-89118234D01*
X65845285Y-89118234D01*
G37*
G36*
X76845285Y-89118234D02*
G01*
X76941981Y-89137468D01*
X77124151Y-89212926D01*
X77288100Y-89322473D01*
X77427527Y-89461900D01*
X77537074Y-89625849D01*
X77612532Y-89808019D01*
X77651000Y-90001410D01*
X77651000Y-90198590D01*
X77612532Y-90391981D01*
X77537074Y-90574151D01*
X77427527Y-90738100D01*
X77288100Y-90877527D01*
X77124151Y-90987074D01*
X76941981Y-91062532D01*
X76845285Y-91081766D01*
X76748591Y-91101000D01*
X76551409Y-91101000D01*
X76454715Y-91081766D01*
X76358019Y-91062532D01*
X76175849Y-90987074D01*
X76011900Y-90877527D01*
X75872473Y-90738100D01*
X75762926Y-90574151D01*
X75687468Y-90391981D01*
X75649000Y-90198590D01*
X75649000Y-90001410D01*
X75687468Y-89808019D01*
X75762926Y-89625849D01*
X75872473Y-89461900D01*
X76011900Y-89322473D01*
X76175849Y-89212926D01*
X76358019Y-89137468D01*
X76454715Y-89118234D01*
X76551409Y-89099000D01*
X76748591Y-89099000D01*
X76845285Y-89118234D01*
X76845285Y-89118234D01*
G37*
G36*
X124843097Y-86514069D02*
G01*
X124946032Y-86524207D01*
X125144146Y-86584305D01*
X125144149Y-86584306D01*
X125240975Y-86636061D01*
X125326729Y-86681897D01*
X125486765Y-86813235D01*
X125618103Y-86973271D01*
X125663939Y-87059025D01*
X125715694Y-87155851D01*
X125715695Y-87155854D01*
X125775793Y-87353968D01*
X125796085Y-87560000D01*
X125775793Y-87766032D01*
X125715695Y-87964146D01*
X125715694Y-87964149D01*
X125670340Y-88049000D01*
X125618103Y-88146729D01*
X125486765Y-88306765D01*
X125326729Y-88438103D01*
X125240975Y-88483939D01*
X125144149Y-88535694D01*
X125144146Y-88535695D01*
X124946032Y-88595793D01*
X124843097Y-88605931D01*
X124791631Y-88611000D01*
X124188369Y-88611000D01*
X124136903Y-88605931D01*
X124033968Y-88595793D01*
X123835854Y-88535695D01*
X123835851Y-88535694D01*
X123739025Y-88483939D01*
X123653271Y-88438103D01*
X123493235Y-88306765D01*
X123361897Y-88146729D01*
X123309660Y-88049000D01*
X123264306Y-87964149D01*
X123264305Y-87964146D01*
X123204207Y-87766032D01*
X123183915Y-87560000D01*
X123204207Y-87353968D01*
X123264305Y-87155854D01*
X123264306Y-87155851D01*
X123316061Y-87059025D01*
X123361897Y-86973271D01*
X123493235Y-86813235D01*
X123653271Y-86681897D01*
X123739025Y-86636061D01*
X123835851Y-86584306D01*
X123835854Y-86584305D01*
X124033968Y-86524207D01*
X124136903Y-86514069D01*
X124188369Y-86509000D01*
X124791631Y-86509000D01*
X124843097Y-86514069D01*
X124843097Y-86514069D01*
G37*
G36*
X105793097Y-86514069D02*
G01*
X105896032Y-86524207D01*
X106094146Y-86584305D01*
X106094149Y-86584306D01*
X106190975Y-86636061D01*
X106276729Y-86681897D01*
X106436765Y-86813235D01*
X106568103Y-86973271D01*
X106613939Y-87059025D01*
X106665694Y-87155851D01*
X106665695Y-87155854D01*
X106725793Y-87353968D01*
X106746085Y-87560000D01*
X106725793Y-87766032D01*
X106665695Y-87964146D01*
X106665694Y-87964149D01*
X106620340Y-88049000D01*
X106568103Y-88146729D01*
X106436765Y-88306765D01*
X106276729Y-88438103D01*
X106190975Y-88483939D01*
X106094149Y-88535694D01*
X106094146Y-88535695D01*
X105896032Y-88595793D01*
X105793097Y-88605931D01*
X105741631Y-88611000D01*
X105138369Y-88611000D01*
X105086903Y-88605931D01*
X104983968Y-88595793D01*
X104785854Y-88535695D01*
X104785851Y-88535694D01*
X104689025Y-88483939D01*
X104603271Y-88438103D01*
X104443235Y-88306765D01*
X104311897Y-88146729D01*
X104259660Y-88049000D01*
X104214306Y-87964149D01*
X104214305Y-87964146D01*
X104154207Y-87766032D01*
X104133915Y-87560000D01*
X104154207Y-87353968D01*
X104214305Y-87155854D01*
X104214306Y-87155851D01*
X104266061Y-87059025D01*
X104311897Y-86973271D01*
X104443235Y-86813235D01*
X104603271Y-86681897D01*
X104689025Y-86636061D01*
X104785851Y-86584306D01*
X104785854Y-86584305D01*
X104983968Y-86524207D01*
X105086903Y-86514069D01*
X105138369Y-86509000D01*
X105741631Y-86509000D01*
X105793097Y-86514069D01*
X105793097Y-86514069D01*
G37*
G36*
X86743097Y-86514069D02*
G01*
X86846032Y-86524207D01*
X87044146Y-86584305D01*
X87044149Y-86584306D01*
X87140975Y-86636061D01*
X87226729Y-86681897D01*
X87386765Y-86813235D01*
X87518103Y-86973271D01*
X87563939Y-87059025D01*
X87615694Y-87155851D01*
X87615695Y-87155854D01*
X87675793Y-87353968D01*
X87696085Y-87560000D01*
X87675793Y-87766032D01*
X87615695Y-87964146D01*
X87615694Y-87964149D01*
X87570340Y-88049000D01*
X87518103Y-88146729D01*
X87386765Y-88306765D01*
X87226729Y-88438103D01*
X87140975Y-88483939D01*
X87044149Y-88535694D01*
X87044146Y-88535695D01*
X86846032Y-88595793D01*
X86743097Y-88605931D01*
X86691631Y-88611000D01*
X86088369Y-88611000D01*
X86036903Y-88605931D01*
X85933968Y-88595793D01*
X85735854Y-88535695D01*
X85735851Y-88535694D01*
X85639025Y-88483939D01*
X85553271Y-88438103D01*
X85393235Y-88306765D01*
X85261897Y-88146729D01*
X85209660Y-88049000D01*
X85164306Y-87964149D01*
X85164305Y-87964146D01*
X85104207Y-87766032D01*
X85083915Y-87560000D01*
X85104207Y-87353968D01*
X85164305Y-87155854D01*
X85164306Y-87155851D01*
X85216061Y-87059025D01*
X85261897Y-86973271D01*
X85393235Y-86813235D01*
X85553271Y-86681897D01*
X85639025Y-86636061D01*
X85735851Y-86584306D01*
X85735854Y-86584305D01*
X85933968Y-86524207D01*
X86036903Y-86514069D01*
X86088369Y-86509000D01*
X86691631Y-86509000D01*
X86743097Y-86514069D01*
X86743097Y-86514069D01*
G37*
G36*
X67693097Y-86514069D02*
G01*
X67796032Y-86524207D01*
X67994146Y-86584305D01*
X67994149Y-86584306D01*
X68090975Y-86636061D01*
X68176729Y-86681897D01*
X68336765Y-86813235D01*
X68468103Y-86973271D01*
X68513939Y-87059025D01*
X68565694Y-87155851D01*
X68565695Y-87155854D01*
X68625793Y-87353968D01*
X68646085Y-87560000D01*
X68625793Y-87766032D01*
X68565695Y-87964146D01*
X68565694Y-87964149D01*
X68520340Y-88049000D01*
X68468103Y-88146729D01*
X68336765Y-88306765D01*
X68176729Y-88438103D01*
X68090975Y-88483939D01*
X67994149Y-88535694D01*
X67994146Y-88535695D01*
X67796032Y-88595793D01*
X67693097Y-88605931D01*
X67641631Y-88611000D01*
X67038369Y-88611000D01*
X66986903Y-88605931D01*
X66883968Y-88595793D01*
X66685854Y-88535695D01*
X66685851Y-88535694D01*
X66589025Y-88483939D01*
X66503271Y-88438103D01*
X66343235Y-88306765D01*
X66211897Y-88146729D01*
X66159660Y-88049000D01*
X66114306Y-87964149D01*
X66114305Y-87964146D01*
X66054207Y-87766032D01*
X66033915Y-87560000D01*
X66054207Y-87353968D01*
X66114305Y-87155854D01*
X66114306Y-87155851D01*
X66166061Y-87059025D01*
X66211897Y-86973271D01*
X66343235Y-86813235D01*
X66503271Y-86681897D01*
X66589025Y-86636061D01*
X66685851Y-86584306D01*
X66685854Y-86584305D01*
X66883968Y-86524207D01*
X66986903Y-86514069D01*
X67038369Y-86509000D01*
X67641631Y-86509000D01*
X67693097Y-86514069D01*
X67693097Y-86514069D01*
G37*
G36*
X131193097Y-83974069D02*
G01*
X131296032Y-83984207D01*
X131494146Y-84044305D01*
X131494149Y-84044306D01*
X131590975Y-84096061D01*
X131676729Y-84141897D01*
X131836765Y-84273235D01*
X131968103Y-84433271D01*
X132013939Y-84519025D01*
X132065694Y-84615851D01*
X132065695Y-84615854D01*
X132125793Y-84813968D01*
X132146085Y-85020000D01*
X132125793Y-85226032D01*
X132105326Y-85293501D01*
X132065694Y-85424149D01*
X132038513Y-85475000D01*
X131968103Y-85606729D01*
X131836765Y-85766765D01*
X131676729Y-85898103D01*
X131590975Y-85943939D01*
X131494149Y-85995694D01*
X131494146Y-85995695D01*
X131296032Y-86055793D01*
X131193097Y-86065931D01*
X131141631Y-86071000D01*
X130538369Y-86071000D01*
X130486903Y-86065931D01*
X130383968Y-86055793D01*
X130185854Y-85995695D01*
X130185851Y-85995694D01*
X130089025Y-85943939D01*
X130003271Y-85898103D01*
X129843235Y-85766765D01*
X129711897Y-85606729D01*
X129641487Y-85475000D01*
X129614306Y-85424149D01*
X129574674Y-85293501D01*
X129554207Y-85226032D01*
X129533915Y-85020000D01*
X129554207Y-84813968D01*
X129614305Y-84615854D01*
X129614306Y-84615851D01*
X129666061Y-84519025D01*
X129711897Y-84433271D01*
X129843235Y-84273235D01*
X130003271Y-84141897D01*
X130089025Y-84096061D01*
X130185851Y-84044306D01*
X130185854Y-84044305D01*
X130383968Y-83984207D01*
X130486903Y-83974069D01*
X130538369Y-83969000D01*
X131141631Y-83969000D01*
X131193097Y-83974069D01*
X131193097Y-83974069D01*
G37*
G36*
X112143097Y-83974069D02*
G01*
X112246032Y-83984207D01*
X112444146Y-84044305D01*
X112444149Y-84044306D01*
X112540975Y-84096061D01*
X112626729Y-84141897D01*
X112786765Y-84273235D01*
X112918103Y-84433271D01*
X112963939Y-84519025D01*
X113015694Y-84615851D01*
X113015695Y-84615854D01*
X113075793Y-84813968D01*
X113096085Y-85020000D01*
X113075793Y-85226032D01*
X113055326Y-85293501D01*
X113015694Y-85424149D01*
X112988513Y-85475000D01*
X112918103Y-85606729D01*
X112786765Y-85766765D01*
X112626729Y-85898103D01*
X112540975Y-85943939D01*
X112444149Y-85995694D01*
X112444146Y-85995695D01*
X112246032Y-86055793D01*
X112143097Y-86065931D01*
X112091631Y-86071000D01*
X111488369Y-86071000D01*
X111436903Y-86065931D01*
X111333968Y-86055793D01*
X111135854Y-85995695D01*
X111135851Y-85995694D01*
X111039025Y-85943939D01*
X110953271Y-85898103D01*
X110793235Y-85766765D01*
X110661897Y-85606729D01*
X110591487Y-85475000D01*
X110564306Y-85424149D01*
X110524674Y-85293501D01*
X110504207Y-85226032D01*
X110483915Y-85020000D01*
X110504207Y-84813968D01*
X110564305Y-84615854D01*
X110564306Y-84615851D01*
X110616061Y-84519025D01*
X110661897Y-84433271D01*
X110793235Y-84273235D01*
X110953271Y-84141897D01*
X111039025Y-84096061D01*
X111135851Y-84044306D01*
X111135854Y-84044305D01*
X111333968Y-83984207D01*
X111436903Y-83974069D01*
X111488369Y-83969000D01*
X112091631Y-83969000D01*
X112143097Y-83974069D01*
X112143097Y-83974069D01*
G37*
G36*
X93093097Y-83974069D02*
G01*
X93196032Y-83984207D01*
X93394146Y-84044305D01*
X93394149Y-84044306D01*
X93490975Y-84096061D01*
X93576729Y-84141897D01*
X93736765Y-84273235D01*
X93868103Y-84433271D01*
X93913939Y-84519025D01*
X93965694Y-84615851D01*
X93965695Y-84615854D01*
X94025793Y-84813968D01*
X94046085Y-85020000D01*
X94025793Y-85226032D01*
X94005326Y-85293501D01*
X93965694Y-85424149D01*
X93938513Y-85475000D01*
X93868103Y-85606729D01*
X93736765Y-85766765D01*
X93576729Y-85898103D01*
X93490975Y-85943939D01*
X93394149Y-85995694D01*
X93394146Y-85995695D01*
X93196032Y-86055793D01*
X93093097Y-86065931D01*
X93041631Y-86071000D01*
X92438369Y-86071000D01*
X92386903Y-86065931D01*
X92283968Y-86055793D01*
X92085854Y-85995695D01*
X92085851Y-85995694D01*
X91989025Y-85943939D01*
X91903271Y-85898103D01*
X91743235Y-85766765D01*
X91611897Y-85606729D01*
X91541487Y-85475000D01*
X91514306Y-85424149D01*
X91474674Y-85293501D01*
X91454207Y-85226032D01*
X91433915Y-85020000D01*
X91454207Y-84813968D01*
X91514305Y-84615854D01*
X91514306Y-84615851D01*
X91566061Y-84519025D01*
X91611897Y-84433271D01*
X91743235Y-84273235D01*
X91903271Y-84141897D01*
X91989025Y-84096061D01*
X92085851Y-84044306D01*
X92085854Y-84044305D01*
X92283968Y-83984207D01*
X92386903Y-83974069D01*
X92438369Y-83969000D01*
X93041631Y-83969000D01*
X93093097Y-83974069D01*
X93093097Y-83974069D01*
G37*
G36*
X74043097Y-83974069D02*
G01*
X74146032Y-83984207D01*
X74344146Y-84044305D01*
X74344149Y-84044306D01*
X74440975Y-84096061D01*
X74526729Y-84141897D01*
X74686765Y-84273235D01*
X74818103Y-84433271D01*
X74863939Y-84519025D01*
X74915694Y-84615851D01*
X74915695Y-84615854D01*
X74975793Y-84813968D01*
X74996085Y-85020000D01*
X74975793Y-85226032D01*
X74955326Y-85293501D01*
X74915694Y-85424149D01*
X74888513Y-85475000D01*
X74818103Y-85606729D01*
X74686765Y-85766765D01*
X74526729Y-85898103D01*
X74440975Y-85943939D01*
X74344149Y-85995694D01*
X74344146Y-85995695D01*
X74146032Y-86055793D01*
X74043097Y-86065931D01*
X73991631Y-86071000D01*
X73388369Y-86071000D01*
X73336903Y-86065931D01*
X73233968Y-86055793D01*
X73035854Y-85995695D01*
X73035851Y-85995694D01*
X72939025Y-85943939D01*
X72853271Y-85898103D01*
X72693235Y-85766765D01*
X72561897Y-85606729D01*
X72491487Y-85475000D01*
X72464306Y-85424149D01*
X72424674Y-85293501D01*
X72404207Y-85226032D01*
X72383915Y-85020000D01*
X72404207Y-84813968D01*
X72464305Y-84615854D01*
X72464306Y-84615851D01*
X72516061Y-84519025D01*
X72561897Y-84433271D01*
X72693235Y-84273235D01*
X72853271Y-84141897D01*
X72939025Y-84096061D01*
X73035851Y-84044306D01*
X73035854Y-84044305D01*
X73233968Y-83984207D01*
X73336903Y-83974069D01*
X73388369Y-83969000D01*
X73991631Y-83969000D01*
X74043097Y-83974069D01*
X74043097Y-83974069D01*
G37*
G36*
X57848542Y-83880242D02*
G01*
X57996501Y-83941529D01*
X58129655Y-84030499D01*
X58242901Y-84143745D01*
X58331871Y-84276899D01*
X58393158Y-84424858D01*
X58424400Y-84581925D01*
X58424400Y-84742075D01*
X58393158Y-84899142D01*
X58331871Y-85047101D01*
X58242901Y-85180255D01*
X58129655Y-85293501D01*
X57996501Y-85382471D01*
X57848542Y-85443758D01*
X57691475Y-85475000D01*
X57531325Y-85475000D01*
X57374258Y-85443758D01*
X57226299Y-85382471D01*
X57093145Y-85293501D01*
X56979899Y-85180255D01*
X56890929Y-85047101D01*
X56829642Y-84899142D01*
X56798400Y-84742075D01*
X56798400Y-84581925D01*
X56829642Y-84424858D01*
X56890929Y-84276899D01*
X56979899Y-84143745D01*
X57093145Y-84030499D01*
X57226299Y-83941529D01*
X57374258Y-83880242D01*
X57531325Y-83849000D01*
X57691475Y-83849000D01*
X57848542Y-83880242D01*
X57848542Y-83880242D01*
G37*
G36*
X42628542Y-83880242D02*
G01*
X42776501Y-83941529D01*
X42909655Y-84030499D01*
X43022901Y-84143745D01*
X43111871Y-84276899D01*
X43173158Y-84424858D01*
X43204400Y-84581925D01*
X43204400Y-84742075D01*
X43173158Y-84899142D01*
X43111871Y-85047101D01*
X43022901Y-85180255D01*
X42909655Y-85293501D01*
X42776501Y-85382471D01*
X42628542Y-85443758D01*
X42471475Y-85475000D01*
X42311325Y-85475000D01*
X42154258Y-85443758D01*
X42006299Y-85382471D01*
X41873145Y-85293501D01*
X41759899Y-85180255D01*
X41670929Y-85047101D01*
X41609642Y-84899142D01*
X41578400Y-84742075D01*
X41578400Y-84581925D01*
X41609642Y-84424858D01*
X41670929Y-84276899D01*
X41759899Y-84143745D01*
X41873145Y-84030499D01*
X42006299Y-83941529D01*
X42154258Y-83880242D01*
X42311325Y-83849000D01*
X42471475Y-83849000D01*
X42628542Y-83880242D01*
X42628542Y-83880242D01*
G37*
G36*
X57848542Y-81340242D02*
G01*
X57996501Y-81401529D01*
X58129655Y-81490499D01*
X58242901Y-81603745D01*
X58331871Y-81736899D01*
X58393158Y-81884858D01*
X58424400Y-82041925D01*
X58424400Y-82202075D01*
X58393158Y-82359142D01*
X58331871Y-82507101D01*
X58242901Y-82640255D01*
X58129655Y-82753501D01*
X57996501Y-82842471D01*
X57848542Y-82903758D01*
X57691475Y-82935000D01*
X57531325Y-82935000D01*
X57374258Y-82903758D01*
X57226299Y-82842471D01*
X57093145Y-82753501D01*
X56979899Y-82640255D01*
X56890929Y-82507101D01*
X56829642Y-82359142D01*
X56798400Y-82202075D01*
X56798400Y-82041925D01*
X56829642Y-81884858D01*
X56890929Y-81736899D01*
X56979899Y-81603745D01*
X57093145Y-81490499D01*
X57226299Y-81401529D01*
X57374258Y-81340242D01*
X57531325Y-81309000D01*
X57691475Y-81309000D01*
X57848542Y-81340242D01*
X57848542Y-81340242D01*
G37*
G36*
X42628542Y-81340242D02*
G01*
X42776501Y-81401529D01*
X42909655Y-81490499D01*
X43022901Y-81603745D01*
X43111871Y-81736899D01*
X43173158Y-81884858D01*
X43204400Y-82041925D01*
X43204400Y-82202075D01*
X43173158Y-82359142D01*
X43111871Y-82507101D01*
X43022901Y-82640255D01*
X42909655Y-82753501D01*
X42776501Y-82842471D01*
X42628542Y-82903758D01*
X42471475Y-82935000D01*
X42311325Y-82935000D01*
X42154258Y-82903758D01*
X42006299Y-82842471D01*
X41873145Y-82753501D01*
X41759899Y-82640255D01*
X41670929Y-82507101D01*
X41609642Y-82359142D01*
X41578400Y-82202075D01*
X41578400Y-82041925D01*
X41609642Y-81884858D01*
X41670929Y-81736899D01*
X41759899Y-81603745D01*
X41873145Y-81490499D01*
X42006299Y-81401529D01*
X42154258Y-81340242D01*
X42311325Y-81309000D01*
X42471475Y-81309000D01*
X42628542Y-81340242D01*
X42628542Y-81340242D01*
G37*
G36*
X57848542Y-78800242D02*
G01*
X57996501Y-78861529D01*
X58129655Y-78950499D01*
X58242901Y-79063745D01*
X58331871Y-79196899D01*
X58393158Y-79344858D01*
X58424400Y-79501925D01*
X58424400Y-79662075D01*
X58393158Y-79819142D01*
X58331871Y-79967101D01*
X58242901Y-80100255D01*
X58129655Y-80213501D01*
X57996501Y-80302471D01*
X57848542Y-80363758D01*
X57691475Y-80395000D01*
X57531325Y-80395000D01*
X57374258Y-80363758D01*
X57226299Y-80302471D01*
X57093145Y-80213501D01*
X56979899Y-80100255D01*
X56890929Y-79967101D01*
X56829642Y-79819142D01*
X56798400Y-79662075D01*
X56798400Y-79501925D01*
X56829642Y-79344858D01*
X56890929Y-79196899D01*
X56979899Y-79063745D01*
X57093145Y-78950499D01*
X57226299Y-78861529D01*
X57374258Y-78800242D01*
X57531325Y-78769000D01*
X57691475Y-78769000D01*
X57848542Y-78800242D01*
X57848542Y-78800242D01*
G37*
G36*
X42628542Y-78800242D02*
G01*
X42776501Y-78861529D01*
X42909655Y-78950499D01*
X43022901Y-79063745D01*
X43111871Y-79196899D01*
X43173158Y-79344858D01*
X43204400Y-79501925D01*
X43204400Y-79662075D01*
X43173158Y-79819142D01*
X43111871Y-79967101D01*
X43022901Y-80100255D01*
X42909655Y-80213501D01*
X42776501Y-80302471D01*
X42628542Y-80363758D01*
X42471475Y-80395000D01*
X42311325Y-80395000D01*
X42154258Y-80363758D01*
X42006299Y-80302471D01*
X41873145Y-80213501D01*
X41759899Y-80100255D01*
X41670929Y-79967101D01*
X41609642Y-79819142D01*
X41578400Y-79662075D01*
X41578400Y-79501925D01*
X41609642Y-79344858D01*
X41670929Y-79196899D01*
X41759899Y-79063745D01*
X41873145Y-78950499D01*
X42006299Y-78861529D01*
X42154258Y-78800242D01*
X42311325Y-78769000D01*
X42471475Y-78769000D01*
X42628542Y-78800242D01*
X42628542Y-78800242D01*
G37*
G36*
X57848542Y-76260242D02*
G01*
X57996501Y-76321529D01*
X58129655Y-76410499D01*
X58242901Y-76523745D01*
X58331871Y-76656899D01*
X58393158Y-76804858D01*
X58424400Y-76961925D01*
X58424400Y-77122075D01*
X58393158Y-77279142D01*
X58331871Y-77427101D01*
X58242901Y-77560255D01*
X58129655Y-77673501D01*
X57996501Y-77762471D01*
X57848542Y-77823758D01*
X57691475Y-77855000D01*
X57531325Y-77855000D01*
X57374258Y-77823758D01*
X57226299Y-77762471D01*
X57093145Y-77673501D01*
X56979899Y-77560255D01*
X56890929Y-77427101D01*
X56829642Y-77279142D01*
X56798400Y-77122075D01*
X56798400Y-76961925D01*
X56829642Y-76804858D01*
X56890929Y-76656899D01*
X56979899Y-76523745D01*
X57093145Y-76410499D01*
X57226299Y-76321529D01*
X57374258Y-76260242D01*
X57531325Y-76229000D01*
X57691475Y-76229000D01*
X57848542Y-76260242D01*
X57848542Y-76260242D01*
G37*
G36*
X42628542Y-76260242D02*
G01*
X42776501Y-76321529D01*
X42909655Y-76410499D01*
X43022901Y-76523745D01*
X43111871Y-76656899D01*
X43173158Y-76804858D01*
X43204400Y-76961925D01*
X43204400Y-77122075D01*
X43173158Y-77279142D01*
X43111871Y-77427101D01*
X43022901Y-77560255D01*
X42909655Y-77673501D01*
X42776501Y-77762471D01*
X42628542Y-77823758D01*
X42471475Y-77855000D01*
X42311325Y-77855000D01*
X42154258Y-77823758D01*
X42006299Y-77762471D01*
X41873145Y-77673501D01*
X41759899Y-77560255D01*
X41670929Y-77427101D01*
X41609642Y-77279142D01*
X41578400Y-77122075D01*
X41578400Y-76961925D01*
X41609642Y-76804858D01*
X41670929Y-76656899D01*
X41759899Y-76523745D01*
X41873145Y-76410499D01*
X42006299Y-76321529D01*
X42154258Y-76260242D01*
X42311325Y-76229000D01*
X42471475Y-76229000D01*
X42628542Y-76260242D01*
X42628542Y-76260242D01*
G37*
G36*
X57848542Y-73720242D02*
G01*
X57996501Y-73781529D01*
X58129655Y-73870499D01*
X58242901Y-73983745D01*
X58331871Y-74116899D01*
X58393158Y-74264858D01*
X58424400Y-74421925D01*
X58424400Y-74582075D01*
X58393158Y-74739142D01*
X58331871Y-74887101D01*
X58242901Y-75020255D01*
X58129655Y-75133501D01*
X57996501Y-75222471D01*
X57848542Y-75283758D01*
X57691475Y-75315000D01*
X57531325Y-75315000D01*
X57374258Y-75283758D01*
X57226299Y-75222471D01*
X57093145Y-75133501D01*
X56979899Y-75020255D01*
X56890929Y-74887101D01*
X56829642Y-74739142D01*
X56798400Y-74582075D01*
X56798400Y-74421925D01*
X56829642Y-74264858D01*
X56890929Y-74116899D01*
X56979899Y-73983745D01*
X57093145Y-73870499D01*
X57226299Y-73781529D01*
X57374258Y-73720242D01*
X57531325Y-73689000D01*
X57691475Y-73689000D01*
X57848542Y-73720242D01*
X57848542Y-73720242D01*
G37*
G36*
X42628542Y-73720242D02*
G01*
X42776501Y-73781529D01*
X42909655Y-73870499D01*
X43022901Y-73983745D01*
X43111871Y-74116899D01*
X43173158Y-74264858D01*
X43204400Y-74421925D01*
X43204400Y-74582075D01*
X43173158Y-74739142D01*
X43111871Y-74887101D01*
X43022901Y-75020255D01*
X42909655Y-75133501D01*
X42776501Y-75222471D01*
X42628542Y-75283758D01*
X42471475Y-75315000D01*
X42311325Y-75315000D01*
X42154258Y-75283758D01*
X42006299Y-75222471D01*
X41873145Y-75133501D01*
X41759899Y-75020255D01*
X41670929Y-74887101D01*
X41609642Y-74739142D01*
X41578400Y-74582075D01*
X41578400Y-74421925D01*
X41609642Y-74264858D01*
X41670929Y-74116899D01*
X41759899Y-73983745D01*
X41873145Y-73870499D01*
X42006299Y-73781529D01*
X42154258Y-73720242D01*
X42311325Y-73689000D01*
X42471475Y-73689000D01*
X42628542Y-73720242D01*
X42628542Y-73720242D01*
G37*
G36*
X71698254Y-69127818D02*
G01*
X72071511Y-69282426D01*
X72071513Y-69282427D01*
X72407436Y-69506884D01*
X72693116Y-69792564D01*
X72867468Y-70053499D01*
X72917574Y-70128489D01*
X73072182Y-70501746D01*
X73151000Y-70897993D01*
X73151000Y-71302007D01*
X73072182Y-71698254D01*
X72938284Y-72021513D01*
X72917573Y-72071513D01*
X72693116Y-72407436D01*
X72407436Y-72693116D01*
X72071513Y-72917573D01*
X72071512Y-72917574D01*
X72071511Y-72917574D01*
X71698254Y-73072182D01*
X71302007Y-73151000D01*
X70897993Y-73151000D01*
X70501746Y-73072182D01*
X70128489Y-72917574D01*
X70128488Y-72917574D01*
X70128487Y-72917573D01*
X69792564Y-72693116D01*
X69506884Y-72407436D01*
X69282427Y-72071513D01*
X69261716Y-72021513D01*
X69127818Y-71698254D01*
X69049000Y-71302007D01*
X69049000Y-70897993D01*
X69127818Y-70501746D01*
X69282426Y-70128489D01*
X69332533Y-70053499D01*
X69506884Y-69792564D01*
X69792564Y-69506884D01*
X70128487Y-69282427D01*
X70128489Y-69282426D01*
X70501746Y-69127818D01*
X70897993Y-69049000D01*
X71302007Y-69049000D01*
X71698254Y-69127818D01*
X71698254Y-69127818D01*
G37*
G36*
X109848254Y-69077818D02*
G01*
X110221511Y-69232426D01*
X110221513Y-69232427D01*
X110557436Y-69456884D01*
X110843116Y-69742564D01*
X111050877Y-70053499D01*
X111067574Y-70078489D01*
X111222182Y-70451746D01*
X111301000Y-70847993D01*
X111301000Y-71252007D01*
X111222182Y-71648254D01*
X111081838Y-71987074D01*
X111067573Y-72021513D01*
X110843116Y-72357436D01*
X110557436Y-72643116D01*
X110221513Y-72867573D01*
X110221512Y-72867574D01*
X110221511Y-72867574D01*
X109848254Y-73022182D01*
X109452007Y-73101000D01*
X109047993Y-73101000D01*
X108651746Y-73022182D01*
X108278489Y-72867574D01*
X108278488Y-72867574D01*
X108278487Y-72867573D01*
X107942564Y-72643116D01*
X107656884Y-72357436D01*
X107432427Y-72021513D01*
X107418162Y-71987074D01*
X107277818Y-71648254D01*
X107199000Y-71252007D01*
X107199000Y-70847993D01*
X107277818Y-70451746D01*
X107432426Y-70078489D01*
X107449124Y-70053499D01*
X107656884Y-69742564D01*
X107942564Y-69456884D01*
X108278487Y-69232427D01*
X108278489Y-69232426D01*
X108651746Y-69077818D01*
X109047993Y-68999000D01*
X109452007Y-68999000D01*
X109848254Y-69077818D01*
X109848254Y-69077818D01*
G37*
G36*
X90798254Y-69077818D02*
G01*
X91171511Y-69232426D01*
X91171513Y-69232427D01*
X91507436Y-69456884D01*
X91793116Y-69742564D01*
X92000877Y-70053499D01*
X92017574Y-70078489D01*
X92172182Y-70451746D01*
X92251000Y-70847993D01*
X92251000Y-71252007D01*
X92172182Y-71648254D01*
X92031838Y-71987074D01*
X92017573Y-72021513D01*
X91793116Y-72357436D01*
X91507436Y-72643116D01*
X91171513Y-72867573D01*
X91171512Y-72867574D01*
X91171511Y-72867574D01*
X90798254Y-73022182D01*
X90402007Y-73101000D01*
X89997993Y-73101000D01*
X89601746Y-73022182D01*
X89228489Y-72867574D01*
X89228488Y-72867574D01*
X89228487Y-72867573D01*
X88892564Y-72643116D01*
X88606884Y-72357436D01*
X88382427Y-72021513D01*
X88368162Y-71987074D01*
X88227818Y-71648254D01*
X88149000Y-71252007D01*
X88149000Y-70847993D01*
X88227818Y-70451746D01*
X88382426Y-70078489D01*
X88399124Y-70053499D01*
X88606884Y-69742564D01*
X88892564Y-69456884D01*
X89228487Y-69232427D01*
X89228489Y-69232426D01*
X89601746Y-69077818D01*
X89997993Y-68999000D01*
X90402007Y-68999000D01*
X90798254Y-69077818D01*
X90798254Y-69077818D01*
G37*
G36*
X128898254Y-69077818D02*
G01*
X129271511Y-69232426D01*
X129271513Y-69232427D01*
X129607436Y-69456884D01*
X129893116Y-69742564D01*
X130100877Y-70053499D01*
X130117574Y-70078489D01*
X130272182Y-70451746D01*
X130351000Y-70847993D01*
X130351000Y-71252007D01*
X130272182Y-71648254D01*
X130131838Y-71987074D01*
X130117573Y-72021513D01*
X129893116Y-72357436D01*
X129607436Y-72643116D01*
X129271513Y-72867573D01*
X129271512Y-72867574D01*
X129271511Y-72867574D01*
X128898254Y-73022182D01*
X128502007Y-73101000D01*
X128097993Y-73101000D01*
X127701746Y-73022182D01*
X127328489Y-72867574D01*
X127328488Y-72867574D01*
X127328487Y-72867573D01*
X126992564Y-72643116D01*
X126706884Y-72357436D01*
X126482427Y-72021513D01*
X126468162Y-71987074D01*
X126327818Y-71648254D01*
X126249000Y-71252007D01*
X126249000Y-70847993D01*
X126327818Y-70451746D01*
X126482426Y-70078489D01*
X126499124Y-70053499D01*
X126706884Y-69742564D01*
X126992564Y-69456884D01*
X127328487Y-69232427D01*
X127328489Y-69232426D01*
X127701746Y-69077818D01*
X128097993Y-68999000D01*
X128502007Y-68999000D01*
X128898254Y-69077818D01*
X128898254Y-69077818D01*
G37*
G36*
X42628542Y-71180242D02*
G01*
X42776501Y-71241529D01*
X42909655Y-71330499D01*
X43022901Y-71443745D01*
X43111871Y-71576899D01*
X43173158Y-71724858D01*
X43204400Y-71881925D01*
X43204400Y-72042075D01*
X43173158Y-72199142D01*
X43111871Y-72347101D01*
X43022901Y-72480255D01*
X42909655Y-72593501D01*
X42776501Y-72682471D01*
X42628542Y-72743758D01*
X42471475Y-72775000D01*
X42311325Y-72775000D01*
X42154258Y-72743758D01*
X42006299Y-72682471D01*
X41873145Y-72593501D01*
X41759899Y-72480255D01*
X41670929Y-72347101D01*
X41609642Y-72199142D01*
X41578400Y-72042075D01*
X41578400Y-71881925D01*
X41609642Y-71724858D01*
X41670929Y-71576899D01*
X41759899Y-71443745D01*
X41873145Y-71330499D01*
X42006299Y-71241529D01*
X42154258Y-71180242D01*
X42311325Y-71149000D01*
X42471475Y-71149000D01*
X42628542Y-71180242D01*
X42628542Y-71180242D01*
G37*
G36*
X57848542Y-71180242D02*
G01*
X57996501Y-71241529D01*
X58129655Y-71330499D01*
X58242901Y-71443745D01*
X58331871Y-71576899D01*
X58393158Y-71724858D01*
X58424400Y-71881925D01*
X58424400Y-72042075D01*
X58393158Y-72199142D01*
X58331871Y-72347101D01*
X58242901Y-72480255D01*
X58129655Y-72593501D01*
X57996501Y-72682471D01*
X57848542Y-72743758D01*
X57691475Y-72775000D01*
X57531325Y-72775000D01*
X57374258Y-72743758D01*
X57226299Y-72682471D01*
X57093145Y-72593501D01*
X56979899Y-72480255D01*
X56890929Y-72347101D01*
X56829642Y-72199142D01*
X56798400Y-72042075D01*
X56798400Y-71881925D01*
X56829642Y-71724858D01*
X56890929Y-71576899D01*
X56979899Y-71443745D01*
X57093145Y-71330499D01*
X57226299Y-71241529D01*
X57374258Y-71180242D01*
X57531325Y-71149000D01*
X57691475Y-71149000D01*
X57848542Y-71180242D01*
X57848542Y-71180242D01*
G37*
G36*
X76795285Y-70118234D02*
G01*
X76891981Y-70137468D01*
X76953439Y-70162925D01*
X77052016Y-70203757D01*
X77074151Y-70212926D01*
X77238100Y-70322473D01*
X77377527Y-70461900D01*
X77487074Y-70625849D01*
X77562532Y-70808019D01*
X77601000Y-71001410D01*
X77601000Y-71198590D01*
X77562532Y-71391981D01*
X77487074Y-71574151D01*
X77377527Y-71738100D01*
X77238100Y-71877527D01*
X77074151Y-71987074D01*
X76891981Y-72062532D01*
X76698591Y-72101000D01*
X76501409Y-72101000D01*
X76308019Y-72062532D01*
X76125849Y-71987074D01*
X75961900Y-71877527D01*
X75822473Y-71738100D01*
X75712926Y-71574151D01*
X75637468Y-71391981D01*
X75599000Y-71198590D01*
X75599000Y-71001410D01*
X75637468Y-70808019D01*
X75712926Y-70625849D01*
X75822473Y-70461900D01*
X75961900Y-70322473D01*
X76125849Y-70212926D01*
X76147985Y-70203757D01*
X76246561Y-70162925D01*
X76308019Y-70137468D01*
X76404715Y-70118234D01*
X76501409Y-70099000D01*
X76698591Y-70099000D01*
X76795285Y-70118234D01*
X76795285Y-70118234D01*
G37*
G36*
X65795285Y-70118234D02*
G01*
X65891981Y-70137468D01*
X65953439Y-70162925D01*
X66052016Y-70203757D01*
X66074151Y-70212926D01*
X66238100Y-70322473D01*
X66377527Y-70461900D01*
X66487074Y-70625849D01*
X66562532Y-70808019D01*
X66601000Y-71001410D01*
X66601000Y-71198590D01*
X66562532Y-71391981D01*
X66487074Y-71574151D01*
X66377527Y-71738100D01*
X66238100Y-71877527D01*
X66074151Y-71987074D01*
X65891981Y-72062532D01*
X65698591Y-72101000D01*
X65501409Y-72101000D01*
X65308019Y-72062532D01*
X65125849Y-71987074D01*
X64961900Y-71877527D01*
X64822473Y-71738100D01*
X64712926Y-71574151D01*
X64637468Y-71391981D01*
X64599000Y-71198590D01*
X64599000Y-71001410D01*
X64637468Y-70808019D01*
X64712926Y-70625849D01*
X64822473Y-70461900D01*
X64961900Y-70322473D01*
X65125849Y-70212926D01*
X65147985Y-70203757D01*
X65246561Y-70162925D01*
X65308019Y-70137468D01*
X65404715Y-70118234D01*
X65501409Y-70099000D01*
X65698591Y-70099000D01*
X65795285Y-70118234D01*
X65795285Y-70118234D01*
G37*
G36*
X95991981Y-70087468D02*
G01*
X96174151Y-70162926D01*
X96338100Y-70272473D01*
X96477527Y-70411900D01*
X96537559Y-70501745D01*
X96587075Y-70575851D01*
X96662532Y-70758020D01*
X96701000Y-70951409D01*
X96701000Y-71148591D01*
X96694704Y-71180242D01*
X96662532Y-71341981D01*
X96587074Y-71524151D01*
X96477527Y-71688100D01*
X96338100Y-71827527D01*
X96174151Y-71937074D01*
X95991981Y-72012532D01*
X95895285Y-72031766D01*
X95798591Y-72051000D01*
X95601409Y-72051000D01*
X95504715Y-72031766D01*
X95408019Y-72012532D01*
X95225849Y-71937074D01*
X95061900Y-71827527D01*
X94922473Y-71688100D01*
X94812926Y-71524151D01*
X94737468Y-71341981D01*
X94705296Y-71180242D01*
X94699000Y-71148591D01*
X94699000Y-70951409D01*
X94737468Y-70758020D01*
X94812925Y-70575851D01*
X94862441Y-70501745D01*
X94922473Y-70411900D01*
X95061900Y-70272473D01*
X95225849Y-70162926D01*
X95408019Y-70087468D01*
X95601409Y-70049000D01*
X95798591Y-70049000D01*
X95991981Y-70087468D01*
X95991981Y-70087468D01*
G37*
G36*
X84991981Y-70087468D02*
G01*
X85174151Y-70162926D01*
X85338100Y-70272473D01*
X85477527Y-70411900D01*
X85537559Y-70501745D01*
X85587075Y-70575851D01*
X85662532Y-70758020D01*
X85701000Y-70951409D01*
X85701000Y-71148591D01*
X85694704Y-71180242D01*
X85662532Y-71341981D01*
X85587074Y-71524151D01*
X85477527Y-71688100D01*
X85338100Y-71827527D01*
X85174151Y-71937074D01*
X84991981Y-72012532D01*
X84895285Y-72031766D01*
X84798591Y-72051000D01*
X84601409Y-72051000D01*
X84504715Y-72031766D01*
X84408019Y-72012532D01*
X84225849Y-71937074D01*
X84061900Y-71827527D01*
X83922473Y-71688100D01*
X83812926Y-71524151D01*
X83737468Y-71341981D01*
X83705296Y-71180242D01*
X83699000Y-71148591D01*
X83699000Y-70951409D01*
X83737468Y-70758020D01*
X83812925Y-70575851D01*
X83862441Y-70501745D01*
X83922473Y-70411900D01*
X84061900Y-70272473D01*
X84225849Y-70162926D01*
X84408019Y-70087468D01*
X84601409Y-70049000D01*
X84798591Y-70049000D01*
X84991981Y-70087468D01*
X84991981Y-70087468D01*
G37*
G36*
X123091981Y-70087468D02*
G01*
X123274151Y-70162926D01*
X123438100Y-70272473D01*
X123577527Y-70411900D01*
X123637559Y-70501745D01*
X123687075Y-70575851D01*
X123762532Y-70758020D01*
X123801000Y-70951409D01*
X123801000Y-71148591D01*
X123794704Y-71180242D01*
X123762532Y-71341981D01*
X123687074Y-71524151D01*
X123577527Y-71688100D01*
X123438100Y-71827527D01*
X123274151Y-71937074D01*
X123091981Y-72012532D01*
X122995285Y-72031766D01*
X122898591Y-72051000D01*
X122701409Y-72051000D01*
X122604715Y-72031766D01*
X122508019Y-72012532D01*
X122325849Y-71937074D01*
X122161900Y-71827527D01*
X122022473Y-71688100D01*
X121912926Y-71524151D01*
X121837468Y-71341981D01*
X121805296Y-71180242D01*
X121799000Y-71148591D01*
X121799000Y-70951409D01*
X121837468Y-70758020D01*
X121912925Y-70575851D01*
X121962441Y-70501745D01*
X122022473Y-70411900D01*
X122161900Y-70272473D01*
X122325849Y-70162926D01*
X122508019Y-70087468D01*
X122701409Y-70049000D01*
X122898591Y-70049000D01*
X123091981Y-70087468D01*
X123091981Y-70087468D01*
G37*
G36*
X134091981Y-70087468D02*
G01*
X134274151Y-70162926D01*
X134438100Y-70272473D01*
X134577527Y-70411900D01*
X134637559Y-70501745D01*
X134687075Y-70575851D01*
X134762532Y-70758020D01*
X134801000Y-70951409D01*
X134801000Y-71148591D01*
X134794704Y-71180242D01*
X134762532Y-71341981D01*
X134687074Y-71524151D01*
X134577527Y-71688100D01*
X134438100Y-71827527D01*
X134274151Y-71937074D01*
X134091981Y-72012532D01*
X133995285Y-72031766D01*
X133898591Y-72051000D01*
X133701409Y-72051000D01*
X133604715Y-72031766D01*
X133508019Y-72012532D01*
X133325849Y-71937074D01*
X133161900Y-71827527D01*
X133022473Y-71688100D01*
X132912926Y-71524151D01*
X132837468Y-71341981D01*
X132805296Y-71180242D01*
X132799000Y-71148591D01*
X132799000Y-70951409D01*
X132837468Y-70758020D01*
X132912925Y-70575851D01*
X132962441Y-70501745D01*
X133022473Y-70411900D01*
X133161900Y-70272473D01*
X133325849Y-70162926D01*
X133508019Y-70087468D01*
X133701409Y-70049000D01*
X133898591Y-70049000D01*
X134091981Y-70087468D01*
X134091981Y-70087468D01*
G37*
G36*
X104041981Y-70087468D02*
G01*
X104224151Y-70162926D01*
X104388100Y-70272473D01*
X104527527Y-70411900D01*
X104587559Y-70501745D01*
X104637075Y-70575851D01*
X104712532Y-70758020D01*
X104751000Y-70951409D01*
X104751000Y-71148591D01*
X104744704Y-71180242D01*
X104712532Y-71341981D01*
X104637074Y-71524151D01*
X104527527Y-71688100D01*
X104388100Y-71827527D01*
X104224151Y-71937074D01*
X104041981Y-72012532D01*
X103945285Y-72031766D01*
X103848591Y-72051000D01*
X103651409Y-72051000D01*
X103554715Y-72031766D01*
X103458019Y-72012532D01*
X103275849Y-71937074D01*
X103111900Y-71827527D01*
X102972473Y-71688100D01*
X102862926Y-71524151D01*
X102787468Y-71341981D01*
X102755296Y-71180242D01*
X102749000Y-71148591D01*
X102749000Y-70951409D01*
X102787468Y-70758020D01*
X102862925Y-70575851D01*
X102912441Y-70501745D01*
X102972473Y-70411900D01*
X103111900Y-70272473D01*
X103275849Y-70162926D01*
X103458019Y-70087468D01*
X103651409Y-70049000D01*
X103848591Y-70049000D01*
X104041981Y-70087468D01*
X104041981Y-70087468D01*
G37*
G36*
X115041981Y-70087468D02*
G01*
X115224151Y-70162926D01*
X115388100Y-70272473D01*
X115527527Y-70411900D01*
X115587559Y-70501745D01*
X115637075Y-70575851D01*
X115712532Y-70758020D01*
X115751000Y-70951409D01*
X115751000Y-71148591D01*
X115744704Y-71180242D01*
X115712532Y-71341981D01*
X115637074Y-71524151D01*
X115527527Y-71688100D01*
X115388100Y-71827527D01*
X115224151Y-71937074D01*
X115041981Y-72012532D01*
X114945285Y-72031766D01*
X114848591Y-72051000D01*
X114651409Y-72051000D01*
X114554715Y-72031766D01*
X114458019Y-72012532D01*
X114275849Y-71937074D01*
X114111900Y-71827527D01*
X113972473Y-71688100D01*
X113862926Y-71524151D01*
X113787468Y-71341981D01*
X113755296Y-71180242D01*
X113749000Y-71148591D01*
X113749000Y-70951409D01*
X113787468Y-70758020D01*
X113862925Y-70575851D01*
X113912441Y-70501745D01*
X113972473Y-70411900D01*
X114111900Y-70272473D01*
X114275849Y-70162926D01*
X114458019Y-70087468D01*
X114651409Y-70049000D01*
X114848591Y-70049000D01*
X115041981Y-70087468D01*
X115041981Y-70087468D01*
G37*
G36*
X57848542Y-68640242D02*
G01*
X57996501Y-68701529D01*
X58129655Y-68790499D01*
X58242901Y-68903745D01*
X58331871Y-69036899D01*
X58393158Y-69184858D01*
X58424400Y-69341925D01*
X58424400Y-69502075D01*
X58393158Y-69659142D01*
X58331871Y-69807101D01*
X58242901Y-69940255D01*
X58129655Y-70053501D01*
X57996501Y-70142471D01*
X57848542Y-70203758D01*
X57691475Y-70235000D01*
X57531325Y-70235000D01*
X57374258Y-70203758D01*
X57226299Y-70142471D01*
X57093145Y-70053501D01*
X56979899Y-69940255D01*
X56890929Y-69807101D01*
X56829642Y-69659142D01*
X56798400Y-69502075D01*
X56798400Y-69341925D01*
X56829642Y-69184858D01*
X56890929Y-69036899D01*
X56979899Y-68903745D01*
X57093145Y-68790499D01*
X57226299Y-68701529D01*
X57374258Y-68640242D01*
X57531325Y-68609000D01*
X57691475Y-68609000D01*
X57848542Y-68640242D01*
X57848542Y-68640242D01*
G37*
G36*
X42628542Y-68640242D02*
G01*
X42776501Y-68701529D01*
X42909655Y-68790499D01*
X43022901Y-68903745D01*
X43111871Y-69036899D01*
X43173158Y-69184858D01*
X43204400Y-69341925D01*
X43204400Y-69502075D01*
X43173158Y-69659142D01*
X43111871Y-69807101D01*
X43022901Y-69940255D01*
X42909655Y-70053501D01*
X42776501Y-70142471D01*
X42628542Y-70203758D01*
X42471475Y-70235000D01*
X42311325Y-70235000D01*
X42154258Y-70203758D01*
X42006299Y-70142471D01*
X41873145Y-70053501D01*
X41759899Y-69940255D01*
X41670929Y-69807101D01*
X41609642Y-69659142D01*
X41578400Y-69502075D01*
X41578400Y-69341925D01*
X41609642Y-69184858D01*
X41670929Y-69036899D01*
X41759899Y-68903745D01*
X41873145Y-68790499D01*
X42006299Y-68701529D01*
X42154258Y-68640242D01*
X42311325Y-68609000D01*
X42471475Y-68609000D01*
X42628542Y-68640242D01*
X42628542Y-68640242D01*
G37*
G36*
X67637310Y-67513499D02*
G01*
X67746032Y-67524207D01*
X67944146Y-67584305D01*
X67944149Y-67584306D01*
X68033185Y-67631897D01*
X68126729Y-67681897D01*
X68286765Y-67813235D01*
X68418103Y-67973271D01*
X68463939Y-68059025D01*
X68515694Y-68155851D01*
X68515695Y-68155854D01*
X68575793Y-68353968D01*
X68596085Y-68560000D01*
X68575793Y-68766032D01*
X68515695Y-68964146D01*
X68515694Y-68964149D01*
X68470340Y-69049000D01*
X68418103Y-69146729D01*
X68286765Y-69306765D01*
X68126729Y-69438103D01*
X68040975Y-69483939D01*
X67944149Y-69535694D01*
X67944146Y-69535695D01*
X67746032Y-69595793D01*
X67643097Y-69605931D01*
X67591631Y-69611000D01*
X66988369Y-69611000D01*
X66936903Y-69605931D01*
X66833968Y-69595793D01*
X66635854Y-69535695D01*
X66635851Y-69535694D01*
X66539025Y-69483939D01*
X66453271Y-69438103D01*
X66293235Y-69306765D01*
X66161897Y-69146729D01*
X66109660Y-69049000D01*
X66064306Y-68964149D01*
X66064305Y-68964146D01*
X66004207Y-68766032D01*
X65983915Y-68560000D01*
X66004207Y-68353968D01*
X66064305Y-68155854D01*
X66064306Y-68155851D01*
X66116061Y-68059025D01*
X66161897Y-67973271D01*
X66293235Y-67813235D01*
X66453271Y-67681897D01*
X66546815Y-67631897D01*
X66635851Y-67584306D01*
X66635854Y-67584305D01*
X66833968Y-67524207D01*
X66942690Y-67513499D01*
X66988369Y-67509000D01*
X67591631Y-67509000D01*
X67637310Y-67513499D01*
X67637310Y-67513499D01*
G37*
G36*
X86743097Y-67464069D02*
G01*
X86846032Y-67474207D01*
X87044146Y-67534305D01*
X87044149Y-67534306D01*
X87137690Y-67584305D01*
X87226729Y-67631897D01*
X87386765Y-67763235D01*
X87518103Y-67923271D01*
X87544828Y-67973271D01*
X87615694Y-68105851D01*
X87615695Y-68105854D01*
X87675793Y-68303968D01*
X87696085Y-68510000D01*
X87675793Y-68716032D01*
X87618851Y-68903743D01*
X87615694Y-68914149D01*
X87588970Y-68964146D01*
X87518103Y-69096729D01*
X87386765Y-69256765D01*
X87226729Y-69388103D01*
X87140975Y-69433939D01*
X87044149Y-69485694D01*
X87044146Y-69485695D01*
X86846032Y-69545793D01*
X86743097Y-69555931D01*
X86691631Y-69561000D01*
X86088369Y-69561000D01*
X86036903Y-69555931D01*
X85933968Y-69545793D01*
X85735854Y-69485695D01*
X85735851Y-69485694D01*
X85639025Y-69433939D01*
X85553271Y-69388103D01*
X85393235Y-69256765D01*
X85261897Y-69096729D01*
X85191030Y-68964146D01*
X85164306Y-68914149D01*
X85161149Y-68903743D01*
X85104207Y-68716032D01*
X85083915Y-68510000D01*
X85104207Y-68303968D01*
X85164305Y-68105854D01*
X85164306Y-68105851D01*
X85235172Y-67973271D01*
X85261897Y-67923271D01*
X85393235Y-67763235D01*
X85553271Y-67631897D01*
X85642310Y-67584305D01*
X85735851Y-67534306D01*
X85735854Y-67534305D01*
X85933968Y-67474207D01*
X86036903Y-67464069D01*
X86088369Y-67459000D01*
X86691631Y-67459000D01*
X86743097Y-67464069D01*
X86743097Y-67464069D01*
G37*
G36*
X124843097Y-67464069D02*
G01*
X124946032Y-67474207D01*
X125144146Y-67534305D01*
X125144149Y-67534306D01*
X125237690Y-67584305D01*
X125326729Y-67631897D01*
X125486765Y-67763235D01*
X125618103Y-67923271D01*
X125644828Y-67973271D01*
X125715694Y-68105851D01*
X125715695Y-68105854D01*
X125775793Y-68303968D01*
X125796085Y-68510000D01*
X125775793Y-68716032D01*
X125718851Y-68903743D01*
X125715694Y-68914149D01*
X125688970Y-68964146D01*
X125618103Y-69096729D01*
X125486765Y-69256765D01*
X125326729Y-69388103D01*
X125240975Y-69433939D01*
X125144149Y-69485694D01*
X125144146Y-69485695D01*
X124946032Y-69545793D01*
X124843097Y-69555931D01*
X124791631Y-69561000D01*
X124188369Y-69561000D01*
X124136903Y-69555931D01*
X124033968Y-69545793D01*
X123835854Y-69485695D01*
X123835851Y-69485694D01*
X123739025Y-69433939D01*
X123653271Y-69388103D01*
X123493235Y-69256765D01*
X123361897Y-69096729D01*
X123291030Y-68964146D01*
X123264306Y-68914149D01*
X123261149Y-68903743D01*
X123204207Y-68716032D01*
X123183915Y-68510000D01*
X123204207Y-68303968D01*
X123264305Y-68105854D01*
X123264306Y-68105851D01*
X123335172Y-67973271D01*
X123361897Y-67923271D01*
X123493235Y-67763235D01*
X123653271Y-67631897D01*
X123742310Y-67584305D01*
X123835851Y-67534306D01*
X123835854Y-67534305D01*
X124033968Y-67474207D01*
X124136903Y-67464069D01*
X124188369Y-67459000D01*
X124791631Y-67459000D01*
X124843097Y-67464069D01*
X124843097Y-67464069D01*
G37*
G36*
X105793097Y-67464069D02*
G01*
X105896032Y-67474207D01*
X106094146Y-67534305D01*
X106094149Y-67534306D01*
X106187690Y-67584305D01*
X106276729Y-67631897D01*
X106436765Y-67763235D01*
X106568103Y-67923271D01*
X106594828Y-67973271D01*
X106665694Y-68105851D01*
X106665695Y-68105854D01*
X106725793Y-68303968D01*
X106746085Y-68510000D01*
X106725793Y-68716032D01*
X106668851Y-68903743D01*
X106665694Y-68914149D01*
X106638970Y-68964146D01*
X106568103Y-69096729D01*
X106436765Y-69256765D01*
X106276729Y-69388103D01*
X106190975Y-69433939D01*
X106094149Y-69485694D01*
X106094146Y-69485695D01*
X105896032Y-69545793D01*
X105793097Y-69555931D01*
X105741631Y-69561000D01*
X105138369Y-69561000D01*
X105086903Y-69555931D01*
X104983968Y-69545793D01*
X104785854Y-69485695D01*
X104785851Y-69485694D01*
X104689025Y-69433939D01*
X104603271Y-69388103D01*
X104443235Y-69256765D01*
X104311897Y-69096729D01*
X104241030Y-68964146D01*
X104214306Y-68914149D01*
X104211149Y-68903743D01*
X104154207Y-68716032D01*
X104133915Y-68510000D01*
X104154207Y-68303968D01*
X104214305Y-68105854D01*
X104214306Y-68105851D01*
X104285172Y-67973271D01*
X104311897Y-67923271D01*
X104443235Y-67763235D01*
X104603271Y-67631897D01*
X104692310Y-67584305D01*
X104785851Y-67534306D01*
X104785854Y-67534305D01*
X104983968Y-67474207D01*
X105086903Y-67464069D01*
X105138369Y-67459000D01*
X105741631Y-67459000D01*
X105793097Y-67464069D01*
X105793097Y-67464069D01*
G37*
G36*
X42628542Y-66100242D02*
G01*
X42776501Y-66161529D01*
X42909655Y-66250499D01*
X43022901Y-66363745D01*
X43111871Y-66496899D01*
X43173158Y-66644858D01*
X43204400Y-66801925D01*
X43204400Y-66962075D01*
X43173158Y-67119142D01*
X43111871Y-67267101D01*
X43022901Y-67400255D01*
X42909655Y-67513501D01*
X42776501Y-67602471D01*
X42628542Y-67663758D01*
X42471475Y-67695000D01*
X42311325Y-67695000D01*
X42154258Y-67663758D01*
X42006299Y-67602471D01*
X41873145Y-67513501D01*
X41759899Y-67400255D01*
X41670929Y-67267101D01*
X41609642Y-67119142D01*
X41578400Y-66962075D01*
X41578400Y-66801925D01*
X41609642Y-66644858D01*
X41670929Y-66496899D01*
X41759899Y-66363745D01*
X41873145Y-66250499D01*
X42006299Y-66161529D01*
X42154258Y-66100242D01*
X42311325Y-66069000D01*
X42471475Y-66069000D01*
X42628542Y-66100242D01*
X42628542Y-66100242D01*
G37*
G36*
X57848542Y-66100242D02*
G01*
X57996501Y-66161529D01*
X58129655Y-66250499D01*
X58242901Y-66363745D01*
X58331871Y-66496899D01*
X58393158Y-66644858D01*
X58424400Y-66801925D01*
X58424400Y-66962075D01*
X58393158Y-67119142D01*
X58331871Y-67267101D01*
X58242901Y-67400255D01*
X58129655Y-67513501D01*
X57996501Y-67602471D01*
X57848542Y-67663758D01*
X57691475Y-67695000D01*
X57531325Y-67695000D01*
X57374258Y-67663758D01*
X57226299Y-67602471D01*
X57093145Y-67513501D01*
X56979899Y-67400255D01*
X56890929Y-67267101D01*
X56829642Y-67119142D01*
X56798400Y-66962075D01*
X56798400Y-66801925D01*
X56829642Y-66644858D01*
X56890929Y-66496899D01*
X56979899Y-66363745D01*
X57093145Y-66250499D01*
X57226299Y-66161529D01*
X57374258Y-66100242D01*
X57531325Y-66069000D01*
X57691475Y-66069000D01*
X57848542Y-66100242D01*
X57848542Y-66100242D01*
G37*
G36*
X73987310Y-64973499D02*
G01*
X74096032Y-64984207D01*
X74294146Y-65044305D01*
X74294149Y-65044306D01*
X74383185Y-65091897D01*
X74476729Y-65141897D01*
X74636765Y-65273235D01*
X74768103Y-65433271D01*
X74813939Y-65519025D01*
X74865694Y-65615851D01*
X74865695Y-65615854D01*
X74925793Y-65813968D01*
X74946085Y-66020000D01*
X74925793Y-66226032D01*
X74865695Y-66424146D01*
X74865694Y-66424149D01*
X74813939Y-66520975D01*
X74768103Y-66606729D01*
X74636765Y-66766765D01*
X74476729Y-66898103D01*
X74390975Y-66943939D01*
X74294149Y-66995694D01*
X74294146Y-66995695D01*
X74096032Y-67055793D01*
X73993097Y-67065931D01*
X73941631Y-67071000D01*
X73338369Y-67071000D01*
X73286903Y-67065931D01*
X73183968Y-67055793D01*
X72985854Y-66995695D01*
X72985851Y-66995694D01*
X72889025Y-66943939D01*
X72803271Y-66898103D01*
X72643235Y-66766765D01*
X72511897Y-66606729D01*
X72466061Y-66520975D01*
X72414306Y-66424149D01*
X72414305Y-66424146D01*
X72354207Y-66226032D01*
X72333915Y-66020000D01*
X72354207Y-65813968D01*
X72414305Y-65615854D01*
X72414306Y-65615851D01*
X72466061Y-65519025D01*
X72511897Y-65433271D01*
X72643235Y-65273235D01*
X72803271Y-65141897D01*
X72896815Y-65091897D01*
X72985851Y-65044306D01*
X72985854Y-65044305D01*
X73183968Y-64984207D01*
X73292690Y-64973499D01*
X73338369Y-64969000D01*
X73941631Y-64969000D01*
X73987310Y-64973499D01*
X73987310Y-64973499D01*
G37*
G36*
X93093097Y-64924069D02*
G01*
X93196032Y-64934207D01*
X93394146Y-64994305D01*
X93394149Y-64994306D01*
X93487690Y-65044305D01*
X93576729Y-65091897D01*
X93736765Y-65223235D01*
X93868103Y-65383271D01*
X93894828Y-65433271D01*
X93965694Y-65565851D01*
X93965695Y-65565854D01*
X94025793Y-65763968D01*
X94046085Y-65970000D01*
X94025793Y-66176032D01*
X93968851Y-66363743D01*
X93965694Y-66374149D01*
X93938970Y-66424146D01*
X93868103Y-66556729D01*
X93736765Y-66716765D01*
X93576729Y-66848103D01*
X93490975Y-66893939D01*
X93394149Y-66945694D01*
X93394146Y-66945695D01*
X93196032Y-67005793D01*
X93093097Y-67015931D01*
X93041631Y-67021000D01*
X92438369Y-67021000D01*
X92386903Y-67015931D01*
X92283968Y-67005793D01*
X92085854Y-66945695D01*
X92085851Y-66945694D01*
X91989025Y-66893939D01*
X91903271Y-66848103D01*
X91743235Y-66716765D01*
X91611897Y-66556729D01*
X91541030Y-66424146D01*
X91514306Y-66374149D01*
X91511149Y-66363743D01*
X91454207Y-66176032D01*
X91433915Y-65970000D01*
X91454207Y-65763968D01*
X91514305Y-65565854D01*
X91514306Y-65565851D01*
X91585172Y-65433271D01*
X91611897Y-65383271D01*
X91743235Y-65223235D01*
X91903271Y-65091897D01*
X91992310Y-65044305D01*
X92085851Y-64994306D01*
X92085854Y-64994305D01*
X92283968Y-64934207D01*
X92386903Y-64924069D01*
X92438369Y-64919000D01*
X93041631Y-64919000D01*
X93093097Y-64924069D01*
X93093097Y-64924069D01*
G37*
G36*
X112143097Y-64924069D02*
G01*
X112246032Y-64934207D01*
X112444146Y-64994305D01*
X112444149Y-64994306D01*
X112537690Y-65044305D01*
X112626729Y-65091897D01*
X112786765Y-65223235D01*
X112918103Y-65383271D01*
X112944828Y-65433271D01*
X113015694Y-65565851D01*
X113015695Y-65565854D01*
X113075793Y-65763968D01*
X113096085Y-65970000D01*
X113075793Y-66176032D01*
X113018851Y-66363743D01*
X113015694Y-66374149D01*
X112988970Y-66424146D01*
X112918103Y-66556729D01*
X112786765Y-66716765D01*
X112626729Y-66848103D01*
X112540975Y-66893939D01*
X112444149Y-66945694D01*
X112444146Y-66945695D01*
X112246032Y-67005793D01*
X112143097Y-67015931D01*
X112091631Y-67021000D01*
X111488369Y-67021000D01*
X111436903Y-67015931D01*
X111333968Y-67005793D01*
X111135854Y-66945695D01*
X111135851Y-66945694D01*
X111039025Y-66893939D01*
X110953271Y-66848103D01*
X110793235Y-66716765D01*
X110661897Y-66556729D01*
X110591030Y-66424146D01*
X110564306Y-66374149D01*
X110561149Y-66363743D01*
X110504207Y-66176032D01*
X110483915Y-65970000D01*
X110504207Y-65763968D01*
X110564305Y-65565854D01*
X110564306Y-65565851D01*
X110635172Y-65433271D01*
X110661897Y-65383271D01*
X110793235Y-65223235D01*
X110953271Y-65091897D01*
X111042310Y-65044305D01*
X111135851Y-64994306D01*
X111135854Y-64994305D01*
X111333968Y-64934207D01*
X111436903Y-64924069D01*
X111488369Y-64919000D01*
X112091631Y-64919000D01*
X112143097Y-64924069D01*
X112143097Y-64924069D01*
G37*
G36*
X131193097Y-64924069D02*
G01*
X131296032Y-64934207D01*
X131494146Y-64994305D01*
X131494149Y-64994306D01*
X131587690Y-65044305D01*
X131676729Y-65091897D01*
X131836765Y-65223235D01*
X131968103Y-65383271D01*
X131994828Y-65433271D01*
X132065694Y-65565851D01*
X132065695Y-65565854D01*
X132125793Y-65763968D01*
X132146085Y-65970000D01*
X132125793Y-66176032D01*
X132068851Y-66363743D01*
X132065694Y-66374149D01*
X132038970Y-66424146D01*
X131968103Y-66556729D01*
X131836765Y-66716765D01*
X131676729Y-66848103D01*
X131590975Y-66893939D01*
X131494149Y-66945694D01*
X131494146Y-66945695D01*
X131296032Y-67005793D01*
X131193097Y-67015931D01*
X131141631Y-67021000D01*
X130538369Y-67021000D01*
X130486903Y-67015931D01*
X130383968Y-67005793D01*
X130185854Y-66945695D01*
X130185851Y-66945694D01*
X130089025Y-66893939D01*
X130003271Y-66848103D01*
X129843235Y-66716765D01*
X129711897Y-66556729D01*
X129641030Y-66424146D01*
X129614306Y-66374149D01*
X129611149Y-66363743D01*
X129554207Y-66176032D01*
X129533915Y-65970000D01*
X129554207Y-65763968D01*
X129614305Y-65565854D01*
X129614306Y-65565851D01*
X129685172Y-65433271D01*
X129711897Y-65383271D01*
X129843235Y-65223235D01*
X130003271Y-65091897D01*
X130092310Y-65044305D01*
X130185851Y-64994306D01*
X130185854Y-64994305D01*
X130383968Y-64934207D01*
X130486903Y-64924069D01*
X130538369Y-64919000D01*
X131141631Y-64919000D01*
X131193097Y-64924069D01*
X131193097Y-64924069D01*
G37*
G36*
X57848542Y-63560242D02*
G01*
X57996501Y-63621529D01*
X58129655Y-63710499D01*
X58242901Y-63823745D01*
X58331871Y-63956899D01*
X58393158Y-64104858D01*
X58424400Y-64261925D01*
X58424400Y-64422075D01*
X58393158Y-64579142D01*
X58331871Y-64727101D01*
X58242901Y-64860255D01*
X58129655Y-64973501D01*
X57996501Y-65062471D01*
X57848542Y-65123758D01*
X57691475Y-65155000D01*
X57531325Y-65155000D01*
X57374258Y-65123758D01*
X57226299Y-65062471D01*
X57093145Y-64973501D01*
X56979899Y-64860255D01*
X56890929Y-64727101D01*
X56829642Y-64579142D01*
X56798400Y-64422075D01*
X56798400Y-64261925D01*
X56829642Y-64104858D01*
X56890929Y-63956899D01*
X56979899Y-63823745D01*
X57093145Y-63710499D01*
X57226299Y-63621529D01*
X57374258Y-63560242D01*
X57531325Y-63529000D01*
X57691475Y-63529000D01*
X57848542Y-63560242D01*
X57848542Y-63560242D01*
G37*
G36*
X42628542Y-63560242D02*
G01*
X42776501Y-63621529D01*
X42909655Y-63710499D01*
X43022901Y-63823745D01*
X43111871Y-63956899D01*
X43173158Y-64104858D01*
X43204400Y-64261925D01*
X43204400Y-64422075D01*
X43173158Y-64579142D01*
X43111871Y-64727101D01*
X43022901Y-64860255D01*
X42909655Y-64973501D01*
X42776501Y-65062471D01*
X42628542Y-65123758D01*
X42471475Y-65155000D01*
X42311325Y-65155000D01*
X42154258Y-65123758D01*
X42006299Y-65062471D01*
X41873145Y-64973501D01*
X41759899Y-64860255D01*
X41670929Y-64727101D01*
X41609642Y-64579142D01*
X41578400Y-64422075D01*
X41578400Y-64261925D01*
X41609642Y-64104858D01*
X41670929Y-63956899D01*
X41759899Y-63823745D01*
X41873145Y-63710499D01*
X42006299Y-63621529D01*
X42154258Y-63560242D01*
X42311325Y-63529000D01*
X42471475Y-63529000D01*
X42628542Y-63560242D01*
X42628542Y-63560242D01*
G37*
G36*
X57848542Y-61020242D02*
G01*
X57996501Y-61081529D01*
X58129655Y-61170499D01*
X58242901Y-61283745D01*
X58331871Y-61416899D01*
X58393158Y-61564858D01*
X58424400Y-61721925D01*
X58424400Y-61882075D01*
X58393158Y-62039142D01*
X58331871Y-62187101D01*
X58242901Y-62320255D01*
X58129655Y-62433501D01*
X57996501Y-62522471D01*
X57848542Y-62583758D01*
X57691475Y-62615000D01*
X57531325Y-62615000D01*
X57374258Y-62583758D01*
X57226299Y-62522471D01*
X57093145Y-62433501D01*
X56979899Y-62320255D01*
X56890929Y-62187101D01*
X56829642Y-62039142D01*
X56798400Y-61882075D01*
X56798400Y-61721925D01*
X56829642Y-61564858D01*
X56890929Y-61416899D01*
X56979899Y-61283745D01*
X57093145Y-61170499D01*
X57226299Y-61081529D01*
X57374258Y-61020242D01*
X57531325Y-60989000D01*
X57691475Y-60989000D01*
X57848542Y-61020242D01*
X57848542Y-61020242D01*
G37*
G36*
X42628542Y-61020242D02*
G01*
X42776501Y-61081529D01*
X42909655Y-61170499D01*
X43022901Y-61283745D01*
X43111871Y-61416899D01*
X43173158Y-61564858D01*
X43204400Y-61721925D01*
X43204400Y-61882075D01*
X43173158Y-62039142D01*
X43111871Y-62187101D01*
X43022901Y-62320255D01*
X42909655Y-62433501D01*
X42776501Y-62522471D01*
X42628542Y-62583758D01*
X42471475Y-62615000D01*
X42311325Y-62615000D01*
X42154258Y-62583758D01*
X42006299Y-62522471D01*
X41873145Y-62433501D01*
X41759899Y-62320255D01*
X41670929Y-62187101D01*
X41609642Y-62039142D01*
X41578400Y-61882075D01*
X41578400Y-61721925D01*
X41609642Y-61564858D01*
X41670929Y-61416899D01*
X41759899Y-61283745D01*
X41873145Y-61170499D01*
X42006299Y-61081529D01*
X42154258Y-61020242D01*
X42311325Y-60989000D01*
X42471475Y-60989000D01*
X42628542Y-61020242D01*
X42628542Y-61020242D01*
G37*
G36*
X42628542Y-58480242D02*
G01*
X42776501Y-58541529D01*
X42909655Y-58630499D01*
X43022901Y-58743745D01*
X43111871Y-58876899D01*
X43173158Y-59024858D01*
X43204400Y-59181925D01*
X43204400Y-59342075D01*
X43173158Y-59499142D01*
X43111871Y-59647101D01*
X43022901Y-59780255D01*
X42909655Y-59893501D01*
X42776501Y-59982471D01*
X42628542Y-60043758D01*
X42471475Y-60075000D01*
X42311325Y-60075000D01*
X42154258Y-60043758D01*
X42006299Y-59982471D01*
X41873145Y-59893501D01*
X41759899Y-59780255D01*
X41670929Y-59647101D01*
X41609642Y-59499142D01*
X41578400Y-59342075D01*
X41578400Y-59181925D01*
X41609642Y-59024858D01*
X41670929Y-58876899D01*
X41759899Y-58743745D01*
X41873145Y-58630499D01*
X42006299Y-58541529D01*
X42154258Y-58480242D01*
X42311325Y-58449000D01*
X42471475Y-58449000D01*
X42628542Y-58480242D01*
X42628542Y-58480242D01*
G37*
G36*
X57848542Y-58480242D02*
G01*
X57996501Y-58541529D01*
X58129655Y-58630499D01*
X58242901Y-58743745D01*
X58331871Y-58876899D01*
X58393158Y-59024858D01*
X58424400Y-59181925D01*
X58424400Y-59342075D01*
X58393158Y-59499142D01*
X58331871Y-59647101D01*
X58242901Y-59780255D01*
X58129655Y-59893501D01*
X57996501Y-59982471D01*
X57848542Y-60043758D01*
X57691475Y-60075000D01*
X57531325Y-60075000D01*
X57374258Y-60043758D01*
X57226299Y-59982471D01*
X57093145Y-59893501D01*
X56979899Y-59780255D01*
X56890929Y-59647101D01*
X56829642Y-59499142D01*
X56798400Y-59342075D01*
X56798400Y-59181925D01*
X56829642Y-59024858D01*
X56890929Y-58876899D01*
X56979899Y-58743745D01*
X57093145Y-58630499D01*
X57226299Y-58541529D01*
X57374258Y-58480242D01*
X57531325Y-58449000D01*
X57691475Y-58449000D01*
X57848542Y-58480242D01*
X57848542Y-58480242D01*
G37*
G36*
X42628542Y-55940242D02*
G01*
X42776501Y-56001529D01*
X42909655Y-56090499D01*
X43022901Y-56203745D01*
X43111871Y-56336899D01*
X43173158Y-56484858D01*
X43204400Y-56641925D01*
X43204400Y-56802075D01*
X43173158Y-56959142D01*
X43111871Y-57107101D01*
X43022901Y-57240255D01*
X42909655Y-57353501D01*
X42776501Y-57442471D01*
X42628542Y-57503758D01*
X42471475Y-57535000D01*
X42311325Y-57535000D01*
X42154258Y-57503758D01*
X42006299Y-57442471D01*
X41873145Y-57353501D01*
X41759899Y-57240255D01*
X41670929Y-57107101D01*
X41609642Y-56959142D01*
X41578400Y-56802075D01*
X41578400Y-56641925D01*
X41609642Y-56484858D01*
X41670929Y-56336899D01*
X41759899Y-56203745D01*
X41873145Y-56090499D01*
X42006299Y-56001529D01*
X42154258Y-55940242D01*
X42311325Y-55909000D01*
X42471475Y-55909000D01*
X42628542Y-55940242D01*
X42628542Y-55940242D01*
G37*
G36*
X57848542Y-55940242D02*
G01*
X57996501Y-56001529D01*
X58129655Y-56090499D01*
X58242901Y-56203745D01*
X58331871Y-56336899D01*
X58393158Y-56484858D01*
X58424400Y-56641925D01*
X58424400Y-56802075D01*
X58393158Y-56959142D01*
X58331871Y-57107101D01*
X58242901Y-57240255D01*
X58129655Y-57353501D01*
X57996501Y-57442471D01*
X57848542Y-57503758D01*
X57691475Y-57535000D01*
X57531325Y-57535000D01*
X57374258Y-57503758D01*
X57226299Y-57442471D01*
X57093145Y-57353501D01*
X56979899Y-57240255D01*
X56890929Y-57107101D01*
X56829642Y-56959142D01*
X56798400Y-56802075D01*
X56798400Y-56641925D01*
X56829642Y-56484858D01*
X56890929Y-56336899D01*
X56979899Y-56203745D01*
X57093145Y-56090499D01*
X57226299Y-56001529D01*
X57374258Y-55940242D01*
X57531325Y-55909000D01*
X57691475Y-55909000D01*
X57848542Y-55940242D01*
X57848542Y-55940242D01*
G37*
M02*
